M48
; DRILL file {KiCad 8.0.4} date 2024-12-24T01:10:17-0600
; FORMAT={-:-/ absolute / inch / decimal}
; #@! TF.CreationDate,2024-12-24T01:10:17-06:00
; #@! TF.GenerationSoftware,Kicad,Pcbnew,8.0.4
; #@! TF.FileFunction,Plated,1,2,PTH
FMAT,2
INCH
; #@! TA.AperFunction,Plated,PTH,ViaDrill
T1C0.0118
; #@! TA.AperFunction,Plated,PTH,ViaDrill
T2C0.0197
; #@! TA.AperFunction,Plated,PTH,ComponentDrill
T3C0.0217
; #@! TA.AperFunction,Plated,PTH,ComponentDrill
T4C0.0335
; #@! TA.AperFunction,Plated,PTH,ComponentDrill
T5C0.0394
; #@! TA.AperFunction,Plated,PTH,ComponentDrill
T6C0.0866
%
G90
G05
T1
X15.7321Y-9.9359
X15.7731Y-9.5139
X15.8531Y-9.9369
X15.9031Y-9.5139
X15.9421Y-9.9369
X15.9545Y-9.3478
X16.0156Y-9.4134
X16.1141Y-9.9361
X16.2268Y-9.5815
X16.4741Y-9.8749
X16.5051Y-8.8819
X16.5651Y-9.9359
X16.5741Y-9.2939
X16.8681Y-9.6279
T2
X15.4831Y-9.6289
X15.5641Y-9.3249
X15.9561Y-9.6369
X16.0551Y-10.1609
X16.0641Y-9.6929
X16.0931Y-9.4539
X16.1631Y-10.1199
X16.2011Y-9.9949
X16.2011Y-10.1589
X16.2311Y-9.8279
X16.3361Y-9.2959
X16.3551Y-9.5229
X16.4821Y-9.5369
X16.5471Y-9.5359
X16.5681Y-9.6809
X16.6051Y-10.1139
X16.6281Y-9.5359
X16.6561Y-10.1909
X16.6901Y-10.0839
X16.7336Y-9.1149
X16.7541Y-9.5239
X16.7541Y-9.6949
X16.7641Y-10.0539
X16.8391Y-9.1049
X16.8861Y-9.8129
X16.9001Y-9.2119
X16.9011Y-9.2599
X16.9651Y-9.2109
X17.0301Y-9.3929
X17.0351Y-9.2029
X17.0551Y-9.8119
X17.1371Y-9.1639
X17.1581Y-9.8919
T5
X14.8645Y-8.9732
X14.9645Y-8.9732
X15.0645Y-8.9732
X15.1645Y-8.9732
T6
X7.5Y-10.3756
X7.5Y-14.3126
X25.6102Y-10.3756
X25.6102Y-14.3126
T3
G00X16.4036Y-8.6889
M15
G01X16.4036Y-8.6633
M16
G05
G00X16.7087Y-8.6889
M15
G01X16.7087Y-8.6633
M16
G05
T4
G00X16.4095Y-8.8366
M15
G01X16.4095Y-8.8149
M16
G05
G00X16.7028Y-8.8366
M15
G01X16.7028Y-8.8149
M16
G05
M30
