%TF.GenerationSoftware,KiCad,Pcbnew,8.0.4*%
%TF.CreationDate,2024-12-24T01:10:10-06:00*%
%TF.ProjectId,openithm-new,6f70656e-6974-4686-9d2d-6e65772e6b69,rev?*%
%TF.SameCoordinates,Original*%
%TF.FileFunction,Legend,Bot*%
%TF.FilePolarity,Positive*%
%FSLAX46Y46*%
G04 Gerber Fmt 4.6, Leading zero omitted, Abs format (unit mm)*
G04 Created by KiCad (PCBNEW 8.0.4) date 2024-12-24 01:10:10*
%MOMM*%
%LPD*%
G01*
G04 APERTURE LIST*
%ADD10C,0.000000*%
%ADD11C,1.500000*%
%ADD12C,0.100000*%
G04 APERTURE END LIST*
D10*
G36*
X199714725Y-238062322D02*
G01*
X199726396Y-238063225D01*
X199739393Y-238068016D01*
X199753642Y-238076525D01*
X199769067Y-238088580D01*
X199785593Y-238104011D01*
X199803145Y-238122648D01*
X199841025Y-238168856D01*
X199882107Y-238225839D01*
X199925788Y-238292233D01*
X199971467Y-238366673D01*
X200018544Y-238447796D01*
X200066415Y-238534236D01*
X200114480Y-238624629D01*
X200162137Y-238717610D01*
X200208786Y-238811816D01*
X200296648Y-238998441D01*
X200336660Y-239088132D01*
X200373257Y-239173589D01*
X200388119Y-239151453D01*
X200405325Y-239129212D01*
X200424750Y-239106884D01*
X200446269Y-239084490D01*
X200495089Y-239039582D01*
X200550784Y-238994648D01*
X200612351Y-238949846D01*
X200678792Y-238905336D01*
X200749104Y-238861278D01*
X200822286Y-238817829D01*
X200973260Y-238733400D01*
X201123704Y-238653323D01*
X201265612Y-238578871D01*
X201390976Y-238511319D01*
X201410398Y-238503597D01*
X201430091Y-238498164D01*
X201449943Y-238494944D01*
X201469840Y-238493862D01*
X201489669Y-238494842D01*
X201509316Y-238497808D01*
X201528669Y-238502685D01*
X201547614Y-238509396D01*
X201566038Y-238517866D01*
X201583828Y-238528019D01*
X201600871Y-238539780D01*
X201617052Y-238553072D01*
X201632260Y-238567821D01*
X201646380Y-238583949D01*
X201659300Y-238601382D01*
X201670906Y-238620044D01*
X201681086Y-238639858D01*
X201689725Y-238660750D01*
X201696711Y-238682643D01*
X201701930Y-238705462D01*
X201705269Y-238729131D01*
X201706615Y-238753574D01*
X201705855Y-238778716D01*
X201702875Y-238804480D01*
X201697563Y-238830792D01*
X201689804Y-238857574D01*
X201679486Y-238884752D01*
X201666496Y-238912250D01*
X201650720Y-238939991D01*
X201632045Y-238967901D01*
X201610357Y-238995904D01*
X201585544Y-239023923D01*
X201420429Y-239154215D01*
X201228278Y-239296020D01*
X201020807Y-239438600D01*
X200914989Y-239506824D01*
X200809734Y-239571214D01*
X200706507Y-239630427D01*
X200606772Y-239683122D01*
X200511995Y-239727956D01*
X200423639Y-239763586D01*
X200343169Y-239788670D01*
X200306349Y-239796838D01*
X200272049Y-239801865D01*
X200240453Y-239803585D01*
X200211744Y-239801830D01*
X200186105Y-239796431D01*
X200163719Y-239787221D01*
X200153377Y-239785580D01*
X200141422Y-239778562D01*
X200127956Y-239766514D01*
X200113078Y-239749780D01*
X200079498Y-239703641D01*
X200041494Y-239642910D01*
X199999877Y-239570354D01*
X199955459Y-239488737D01*
X199861467Y-239309386D01*
X199766012Y-239126983D01*
X199675587Y-238963654D01*
X199634290Y-238896056D01*
X199596685Y-238841524D01*
X199563585Y-238802823D01*
X199548978Y-238790274D01*
X199535801Y-238782720D01*
X199517045Y-238783910D01*
X199491867Y-238791276D01*
X199423437Y-238823340D01*
X199332898Y-238876519D01*
X199222636Y-238948420D01*
X198952498Y-239138821D01*
X198632124Y-239375406D01*
X197917068Y-239910581D01*
X197560588Y-240170896D01*
X197390967Y-240290862D01*
X197230274Y-240400846D01*
X197212445Y-240403179D01*
X197193910Y-240406993D01*
X197156086Y-240416241D01*
X197137475Y-240420267D01*
X197119518Y-240422954D01*
X197110891Y-240423576D01*
X197102555Y-240423599D01*
X197094553Y-240422936D01*
X197086926Y-240421497D01*
X197079718Y-240419196D01*
X197072970Y-240415944D01*
X197066726Y-240411652D01*
X197061027Y-240406234D01*
X197055917Y-240399601D01*
X197051437Y-240391664D01*
X197047631Y-240382336D01*
X197044540Y-240371529D01*
X197042208Y-240359154D01*
X197040676Y-240345124D01*
X197039987Y-240329351D01*
X197040183Y-240311746D01*
X197041308Y-240292221D01*
X197043403Y-240270689D01*
X197046511Y-240247061D01*
X197050674Y-240221250D01*
X197087858Y-240114461D01*
X197133397Y-240008301D01*
X197186754Y-239902959D01*
X197247390Y-239798627D01*
X197314767Y-239695496D01*
X197388346Y-239593756D01*
X197467589Y-239493598D01*
X197551958Y-239395214D01*
X197733919Y-239204530D01*
X197929922Y-239023229D01*
X198135661Y-238852839D01*
X198346827Y-238694888D01*
X198559114Y-238550902D01*
X198768216Y-238422410D01*
X198969824Y-238310937D01*
X199159633Y-238218011D01*
X199333334Y-238145159D01*
X199486621Y-238093909D01*
X199615187Y-238065787D01*
X199668854Y-238060877D01*
X199714725Y-238062322D01*
G37*
G36*
X205346844Y-236843846D02*
G01*
X206916246Y-237540820D01*
X207250203Y-237704322D01*
X207580672Y-237882043D01*
X207917589Y-238083240D01*
X208270890Y-238317173D01*
X208650510Y-238593099D01*
X209066384Y-238920275D01*
X209528447Y-239307960D01*
X210046635Y-239765412D01*
X210630883Y-240301889D01*
X211291127Y-240926649D01*
X212037301Y-241648949D01*
X212879341Y-242478047D01*
X212879341Y-242478040D01*
X212911350Y-242536982D01*
X212939175Y-242593060D01*
X212962078Y-242645771D01*
X212979324Y-242694612D01*
X212985596Y-242717423D01*
X212990178Y-242739078D01*
X212992978Y-242759514D01*
X212993903Y-242778667D01*
X212992862Y-242796475D01*
X212989764Y-242812875D01*
X212984515Y-242827804D01*
X212977024Y-242841199D01*
X212967199Y-242852997D01*
X212954948Y-242863134D01*
X212940179Y-242871549D01*
X212922800Y-242878179D01*
X212902719Y-242882959D01*
X212879844Y-242885828D01*
X212854083Y-242886722D01*
X212825344Y-242885579D01*
X212793535Y-242882335D01*
X212758564Y-242876928D01*
X212720339Y-242869294D01*
X212678769Y-242859372D01*
X212633760Y-242847097D01*
X212585222Y-242832407D01*
X212533062Y-242815238D01*
X212477188Y-242795529D01*
X210569005Y-241194478D01*
X209615988Y-240404289D01*
X208673560Y-239646903D01*
X207749128Y-238941755D01*
X207295975Y-238614842D01*
X206850097Y-238308277D01*
X206412421Y-238024489D01*
X205983872Y-237765906D01*
X205565377Y-237534957D01*
X205157860Y-237334073D01*
X205136734Y-237326686D01*
X205115640Y-237317216D01*
X205094749Y-237305821D01*
X205074232Y-237292656D01*
X205054261Y-237277880D01*
X205035006Y-237261649D01*
X205016638Y-237244120D01*
X204999330Y-237225452D01*
X204983252Y-237205800D01*
X204968576Y-237185322D01*
X204955472Y-237164175D01*
X204944112Y-237142516D01*
X204934668Y-237120503D01*
X204927310Y-237098292D01*
X204922209Y-237076041D01*
X204919537Y-237053906D01*
X204919466Y-237032046D01*
X204922166Y-237010616D01*
X204927808Y-236989774D01*
X204936564Y-236969678D01*
X204948606Y-236950484D01*
X204964103Y-236932350D01*
X204983228Y-236915432D01*
X205006152Y-236899888D01*
X205033045Y-236885875D01*
X205064080Y-236873549D01*
X205099428Y-236863069D01*
X205139259Y-236854592D01*
X205183744Y-236848273D01*
X205233056Y-236844272D01*
X205287366Y-236842744D01*
X205346844Y-236843846D01*
G37*
G36*
X200219250Y-257943309D02*
G01*
X200220914Y-258009633D01*
X200215007Y-258074484D01*
X200201824Y-258137614D01*
X200181658Y-258198774D01*
X200154803Y-258257715D01*
X200121553Y-258314188D01*
X200082202Y-258367945D01*
X200037044Y-258418737D01*
X199986373Y-258466315D01*
X199930482Y-258510431D01*
X199869666Y-258550836D01*
X199804218Y-258587282D01*
X199734433Y-258619519D01*
X199660604Y-258647298D01*
X199583026Y-258670372D01*
X199501991Y-258688492D01*
X199417794Y-258701408D01*
X199330730Y-258708873D01*
X199241091Y-258710637D01*
X199149172Y-258706452D01*
X199055267Y-258696068D01*
X198959669Y-258679239D01*
X198862673Y-258655714D01*
X198764572Y-258625244D01*
X198665661Y-258587583D01*
X198615636Y-258567373D01*
X198568078Y-258546417D01*
X198522975Y-258524693D01*
X198480314Y-258502178D01*
X198440082Y-258478848D01*
X198402265Y-258454682D01*
X198366852Y-258429657D01*
X198333828Y-258403751D01*
X198303182Y-258376940D01*
X198274900Y-258349202D01*
X198248969Y-258320514D01*
X198225377Y-258290855D01*
X198204109Y-258260200D01*
X198185155Y-258228529D01*
X198168500Y-258195817D01*
X198154132Y-258162043D01*
X198142037Y-258127183D01*
X198132204Y-258091216D01*
X198124618Y-258054118D01*
X198119267Y-258015867D01*
X198116139Y-257976441D01*
X198115220Y-257935816D01*
X198116496Y-257893971D01*
X198117456Y-257882024D01*
X198648022Y-257882024D01*
X198648383Y-257903211D01*
X198649464Y-257923775D01*
X198651263Y-257943712D01*
X198653775Y-257963019D01*
X198656998Y-257981694D01*
X198660928Y-257999732D01*
X198665562Y-258017130D01*
X198670897Y-258033886D01*
X198676930Y-258049996D01*
X198683657Y-258065456D01*
X198691075Y-258080265D01*
X198699182Y-258094417D01*
X198707973Y-258107911D01*
X198717445Y-258120742D01*
X198727596Y-258132909D01*
X198738421Y-258144406D01*
X198749919Y-258155232D01*
X198762085Y-258165383D01*
X198774916Y-258174855D01*
X198788410Y-258183647D01*
X198802562Y-258191753D01*
X198817370Y-258199171D01*
X198832830Y-258205898D01*
X198848939Y-258211931D01*
X198865695Y-258217266D01*
X198883093Y-258221901D01*
X198901130Y-258225831D01*
X198919804Y-258229054D01*
X198939111Y-258231566D01*
X198959048Y-258233364D01*
X198979611Y-258234446D01*
X199000797Y-258234807D01*
X199021984Y-258234446D01*
X199042548Y-258233364D01*
X199062485Y-258231566D01*
X199081793Y-258229054D01*
X199100467Y-258225831D01*
X199118505Y-258221901D01*
X199135904Y-258217266D01*
X199152659Y-258211931D01*
X199168769Y-258205898D01*
X199184230Y-258199171D01*
X199199038Y-258191753D01*
X199213191Y-258183647D01*
X199226684Y-258174855D01*
X199239516Y-258165383D01*
X199251682Y-258155232D01*
X199263180Y-258144406D01*
X199274006Y-258132909D01*
X199284156Y-258120742D01*
X199293629Y-258107911D01*
X199302420Y-258094417D01*
X199310526Y-258080265D01*
X199317945Y-258065456D01*
X199324672Y-258049996D01*
X199330705Y-258033886D01*
X199336040Y-258017130D01*
X199340674Y-257999732D01*
X199344604Y-257981694D01*
X199347827Y-257963019D01*
X199350339Y-257943712D01*
X199352138Y-257923775D01*
X199353219Y-257903211D01*
X199353580Y-257882024D01*
X199353219Y-257860837D01*
X199352138Y-257840274D01*
X199350339Y-257820338D01*
X199347827Y-257801031D01*
X199344604Y-257782357D01*
X199340674Y-257764320D01*
X199336040Y-257746921D01*
X199330705Y-257730166D01*
X199324672Y-257714057D01*
X199317945Y-257698596D01*
X199310526Y-257683788D01*
X199302420Y-257669636D01*
X199293629Y-257656143D01*
X199284156Y-257643311D01*
X199274006Y-257631145D01*
X199263180Y-257619648D01*
X199251682Y-257608822D01*
X199239516Y-257598672D01*
X199226684Y-257589199D01*
X199213191Y-257580408D01*
X199199038Y-257572302D01*
X199184230Y-257564884D01*
X199168769Y-257558157D01*
X199152659Y-257552124D01*
X199135904Y-257546789D01*
X199118505Y-257542155D01*
X199100467Y-257538224D01*
X199081793Y-257535002D01*
X199062485Y-257532489D01*
X199042548Y-257530691D01*
X199021984Y-257529609D01*
X199000797Y-257529248D01*
X198979611Y-257529609D01*
X198959048Y-257530691D01*
X198939111Y-257532489D01*
X198919804Y-257535002D01*
X198901130Y-257538224D01*
X198883093Y-257542155D01*
X198865695Y-257546789D01*
X198848939Y-257552124D01*
X198832830Y-257558157D01*
X198817370Y-257564884D01*
X198802562Y-257572302D01*
X198788410Y-257580408D01*
X198774916Y-257589199D01*
X198762085Y-257598672D01*
X198749919Y-257608822D01*
X198738421Y-257619648D01*
X198727596Y-257631145D01*
X198717445Y-257643311D01*
X198707973Y-257656143D01*
X198699182Y-257669636D01*
X198691075Y-257683788D01*
X198683657Y-257698596D01*
X198676930Y-257714057D01*
X198670897Y-257730166D01*
X198665562Y-257746921D01*
X198660928Y-257764320D01*
X198656998Y-257782357D01*
X198653775Y-257801031D01*
X198651263Y-257820338D01*
X198649464Y-257840274D01*
X198648383Y-257860837D01*
X198648022Y-257882024D01*
X198117456Y-257882024D01*
X198119957Y-257850882D01*
X198125587Y-257806527D01*
X198133376Y-257760883D01*
X198143308Y-257713928D01*
X198155373Y-257665639D01*
X198169556Y-257615993D01*
X198185845Y-257564969D01*
X198204227Y-257512542D01*
X198224689Y-257458692D01*
X198241013Y-257423498D01*
X198263292Y-257390673D01*
X198291178Y-257360205D01*
X198324322Y-257332085D01*
X198362375Y-257306303D01*
X198404989Y-257282850D01*
X198451814Y-257261716D01*
X198502502Y-257242892D01*
X198556705Y-257226367D01*
X198614072Y-257212132D01*
X198736906Y-257190492D01*
X198868216Y-257177896D01*
X199005210Y-257174266D01*
X199145098Y-257179524D01*
X199285089Y-257193593D01*
X199422392Y-257216395D01*
X199554219Y-257247853D01*
X199617205Y-257266803D01*
X199677776Y-257287889D01*
X199735583Y-257311100D01*
X199790276Y-257336426D01*
X199841506Y-257363858D01*
X199888926Y-257393386D01*
X199932185Y-257425000D01*
X199970936Y-257458692D01*
X200033824Y-257528362D01*
X200087083Y-257598300D01*
X200131009Y-257668258D01*
X200165895Y-257737987D01*
X200192034Y-257807237D01*
X200209721Y-257875761D01*
X200210605Y-257882024D01*
X200219250Y-257943309D01*
G37*
G36*
X200200554Y-255589964D02*
G01*
X200205481Y-255651842D01*
X200204723Y-255713629D01*
X200198384Y-255775026D01*
X200186567Y-255835731D01*
X200169376Y-255895445D01*
X200146914Y-255953867D01*
X200119285Y-256010696D01*
X200086591Y-256065633D01*
X200048936Y-256118377D01*
X200006424Y-256168628D01*
X199959157Y-256216084D01*
X199907239Y-256260447D01*
X199850774Y-256301415D01*
X199789865Y-256338688D01*
X199724615Y-256371966D01*
X199655128Y-256400949D01*
X199581506Y-256425335D01*
X199503854Y-256444825D01*
X199422274Y-256459119D01*
X199336870Y-256467915D01*
X199247745Y-256470914D01*
X199151903Y-256468466D01*
X199059574Y-256461255D01*
X198970863Y-256449476D01*
X198885872Y-256433328D01*
X198804706Y-256413007D01*
X198727467Y-256388710D01*
X198654258Y-256360634D01*
X198585184Y-256328976D01*
X198520347Y-256293934D01*
X198459852Y-256255704D01*
X198403800Y-256214482D01*
X198352296Y-256170468D01*
X198305442Y-256123856D01*
X198263343Y-256074845D01*
X198226101Y-256023631D01*
X198193821Y-255970411D01*
X198166604Y-255915383D01*
X198144556Y-255858743D01*
X198127778Y-255800688D01*
X198116375Y-255741416D01*
X198111794Y-255694806D01*
X198648022Y-255694806D01*
X198649095Y-255739866D01*
X198652268Y-255782432D01*
X198657469Y-255822492D01*
X198664627Y-255860033D01*
X198673671Y-255895041D01*
X198684531Y-255927504D01*
X198697134Y-255957410D01*
X198711411Y-255984744D01*
X198727290Y-256009495D01*
X198744699Y-256031649D01*
X198763569Y-256051193D01*
X198783827Y-256068115D01*
X198805403Y-256082401D01*
X198828226Y-256094038D01*
X198852224Y-256103015D01*
X198877327Y-256109317D01*
X198903463Y-256112932D01*
X198930562Y-256113847D01*
X198958553Y-256112048D01*
X198987363Y-256107524D01*
X199016924Y-256100261D01*
X199047162Y-256090247D01*
X199078008Y-256077467D01*
X199109389Y-256061910D01*
X199141236Y-256043563D01*
X199173477Y-256022412D01*
X199206041Y-255998445D01*
X199238857Y-255971648D01*
X199271854Y-255942010D01*
X199304961Y-255909516D01*
X199338106Y-255874154D01*
X199371220Y-255835912D01*
X199405110Y-255791600D01*
X199433988Y-255750957D01*
X199446531Y-255731866D01*
X199457801Y-255713518D01*
X199467793Y-255695854D01*
X199476499Y-255678817D01*
X199483913Y-255662349D01*
X199490029Y-255646391D01*
X199494840Y-255630885D01*
X199498340Y-255615773D01*
X199500522Y-255600996D01*
X199501380Y-255586498D01*
X199500908Y-255572219D01*
X199499098Y-255558102D01*
X199495944Y-255544088D01*
X199491441Y-255530119D01*
X199485581Y-255516137D01*
X199478358Y-255502084D01*
X199469766Y-255487902D01*
X199459798Y-255473533D01*
X199448448Y-255458918D01*
X199435708Y-255443999D01*
X199421574Y-255428719D01*
X199406038Y-255413019D01*
X199370735Y-255380126D01*
X199329747Y-255344857D01*
X199283024Y-255306745D01*
X199243956Y-255279874D01*
X199206129Y-255255486D01*
X199169542Y-255233586D01*
X199134196Y-255214176D01*
X199100089Y-255197259D01*
X199067223Y-255182839D01*
X199035597Y-255170919D01*
X199005211Y-255161501D01*
X198976066Y-255154590D01*
X198948160Y-255150189D01*
X198921495Y-255148300D01*
X198896070Y-255148928D01*
X198871886Y-255152074D01*
X198848941Y-255157743D01*
X198827237Y-255165938D01*
X198806773Y-255176661D01*
X198787549Y-255189917D01*
X198769566Y-255205708D01*
X198752822Y-255224038D01*
X198737319Y-255244910D01*
X198723057Y-255268326D01*
X198710034Y-255294291D01*
X198698252Y-255322807D01*
X198687710Y-255353878D01*
X198678408Y-255387508D01*
X198670346Y-255423698D01*
X198663525Y-255462453D01*
X198657944Y-255503775D01*
X198653603Y-255547668D01*
X198650502Y-255594136D01*
X198648642Y-255643181D01*
X198648022Y-255694806D01*
X198111794Y-255694806D01*
X198110449Y-255681123D01*
X198110104Y-255620007D01*
X198115444Y-255558263D01*
X198126571Y-255496091D01*
X198143590Y-255433686D01*
X198166603Y-255371245D01*
X198195714Y-255308965D01*
X198231025Y-255247045D01*
X198272642Y-255185679D01*
X198320666Y-255125066D01*
X198375202Y-255065403D01*
X198436352Y-255006886D01*
X198511085Y-254941770D01*
X198547577Y-254912460D01*
X198583597Y-254885310D01*
X198619229Y-254860317D01*
X198654558Y-254837479D01*
X198689667Y-254816792D01*
X198724640Y-254798253D01*
X198759562Y-254781858D01*
X198794516Y-254767604D01*
X198829586Y-254755489D01*
X198864856Y-254745508D01*
X198900411Y-254737660D01*
X198936334Y-254731939D01*
X198972709Y-254728344D01*
X199009620Y-254726871D01*
X199047151Y-254727516D01*
X199085386Y-254730277D01*
X199124409Y-254735150D01*
X199164304Y-254742132D01*
X199205156Y-254751220D01*
X199247047Y-254762411D01*
X199290062Y-254775701D01*
X199334286Y-254791087D01*
X199379801Y-254808566D01*
X199426692Y-254828134D01*
X199524937Y-254873527D01*
X199629694Y-254927240D01*
X199741634Y-254989247D01*
X199815910Y-255032295D01*
X199883365Y-255078557D01*
X199944102Y-255127732D01*
X199998224Y-255179520D01*
X200045835Y-255233620D01*
X200087039Y-255289733D01*
X200121937Y-255347557D01*
X200150635Y-255406793D01*
X200173235Y-255467139D01*
X200189840Y-255528297D01*
X200199952Y-255586498D01*
X200200554Y-255589964D01*
G37*
G36*
X208145488Y-255670459D02*
G01*
X208147861Y-255698958D01*
X208149025Y-255728264D01*
X208149010Y-255758433D01*
X208145561Y-255821577D01*
X208137745Y-255888829D01*
X208130152Y-255942466D01*
X208120618Y-255994224D01*
X208109166Y-256044082D01*
X208095818Y-256092022D01*
X208080596Y-256138023D01*
X208063524Y-256182068D01*
X208044624Y-256224136D01*
X208023918Y-256264208D01*
X208001430Y-256302265D01*
X207977181Y-256338287D01*
X207951195Y-256372255D01*
X207923494Y-256404149D01*
X207894100Y-256433950D01*
X207863037Y-256461639D01*
X207830326Y-256487197D01*
X207795991Y-256510603D01*
X207760054Y-256531839D01*
X207722537Y-256550885D01*
X207683464Y-256567722D01*
X207642856Y-256582330D01*
X207600737Y-256594691D01*
X207557129Y-256604784D01*
X207512055Y-256612590D01*
X207465537Y-256618091D01*
X207417598Y-256621266D01*
X207368260Y-256622096D01*
X207317547Y-256620561D01*
X207265480Y-256616644D01*
X207212083Y-256610323D01*
X207157377Y-256601580D01*
X207101386Y-256590395D01*
X207044132Y-256576749D01*
X206940947Y-256545484D01*
X206837116Y-256505228D01*
X206733647Y-256456910D01*
X206631547Y-256401461D01*
X206531824Y-256339811D01*
X206435486Y-256272890D01*
X206343540Y-256201628D01*
X206256995Y-256126955D01*
X206176858Y-256049802D01*
X206104136Y-255971099D01*
X206039837Y-255891776D01*
X205984970Y-255812762D01*
X205940541Y-255734989D01*
X205922556Y-255696859D01*
X205907558Y-255659387D01*
X205895674Y-255622691D01*
X205887030Y-255586885D01*
X205881750Y-255552088D01*
X205880256Y-255523927D01*
X206635683Y-255523927D01*
X206636398Y-255550971D01*
X206639335Y-255579049D01*
X206644442Y-255607953D01*
X206651668Y-255637478D01*
X206660962Y-255667416D01*
X206672270Y-255697560D01*
X206685543Y-255727705D01*
X206700727Y-255757642D01*
X206717772Y-255787166D01*
X206736626Y-255816070D01*
X206757236Y-255844147D01*
X206779552Y-255871190D01*
X206809709Y-255897662D01*
X206840556Y-255920908D01*
X206871959Y-255941008D01*
X206903782Y-255958042D01*
X206935889Y-255972093D01*
X206968144Y-255983239D01*
X207000413Y-255991563D01*
X207032558Y-255997145D01*
X207064446Y-256000065D01*
X207095939Y-256000405D01*
X207126903Y-255998245D01*
X207157201Y-255993665D01*
X207186699Y-255986748D01*
X207215260Y-255977573D01*
X207242748Y-255966220D01*
X207269029Y-255952772D01*
X207293966Y-255937308D01*
X207317423Y-255919910D01*
X207339266Y-255900658D01*
X207359358Y-255879633D01*
X207377565Y-255856915D01*
X207393749Y-255832585D01*
X207407776Y-255806725D01*
X207419509Y-255779415D01*
X207428814Y-255750735D01*
X207435554Y-255720766D01*
X207439595Y-255689590D01*
X207440799Y-255657286D01*
X207439032Y-255623936D01*
X207434158Y-255589620D01*
X207426042Y-255554419D01*
X207414547Y-255518414D01*
X207402009Y-255489426D01*
X207387620Y-255462002D01*
X207371494Y-255436153D01*
X207353743Y-255411893D01*
X207334480Y-255389235D01*
X207313819Y-255368192D01*
X207291873Y-255348777D01*
X207268754Y-255331003D01*
X207244575Y-255314882D01*
X207219451Y-255300428D01*
X207193493Y-255287653D01*
X207166814Y-255276570D01*
X207139529Y-255267193D01*
X207111749Y-255259534D01*
X207083588Y-255253607D01*
X207055159Y-255249423D01*
X207026575Y-255246996D01*
X206997949Y-255246340D01*
X206969395Y-255247466D01*
X206941024Y-255250387D01*
X206912950Y-255255118D01*
X206885286Y-255261670D01*
X206858146Y-255270056D01*
X206831642Y-255280290D01*
X206805887Y-255292384D01*
X206780994Y-255306352D01*
X206757077Y-255322206D01*
X206734248Y-255339958D01*
X206712621Y-255359623D01*
X206692308Y-255381213D01*
X206673423Y-255404740D01*
X206656078Y-255430219D01*
X206651426Y-255440395D01*
X206647388Y-255451062D01*
X206643957Y-255462194D01*
X206641126Y-255473765D01*
X206638890Y-255485750D01*
X206637242Y-255498123D01*
X206635683Y-255523927D01*
X205880256Y-255523927D01*
X205879963Y-255518414D01*
X205881390Y-255485049D01*
X205885596Y-255451167D01*
X205892462Y-255416871D01*
X205901874Y-255382265D01*
X205913714Y-255347453D01*
X205927867Y-255312537D01*
X205944216Y-255277621D01*
X205962645Y-255242808D01*
X205983038Y-255208202D01*
X206005278Y-255173907D01*
X206054836Y-255106659D01*
X206110388Y-255041891D01*
X206171005Y-254980431D01*
X206235756Y-254923104D01*
X206303711Y-254870739D01*
X206373940Y-254824161D01*
X206409616Y-254803301D01*
X206445512Y-254784198D01*
X206481511Y-254766956D01*
X206517498Y-254751677D01*
X206553355Y-254738465D01*
X206588967Y-254727423D01*
X206624217Y-254718656D01*
X206658989Y-254712265D01*
X206693167Y-254708355D01*
X206726635Y-254707028D01*
X206759212Y-254708859D01*
X206797086Y-254714228D01*
X206839766Y-254722957D01*
X206886761Y-254734864D01*
X206937580Y-254749768D01*
X206991733Y-254767488D01*
X207048728Y-254787844D01*
X207108074Y-254810655D01*
X207169281Y-254835739D01*
X207231857Y-254862916D01*
X207295311Y-254892005D01*
X207359153Y-254922826D01*
X207422892Y-254955197D01*
X207486036Y-254988938D01*
X207548095Y-255023867D01*
X207608578Y-255059804D01*
X207690678Y-255111553D01*
X207765157Y-255161261D01*
X207832246Y-255209367D01*
X207892178Y-255256311D01*
X207945185Y-255302531D01*
X207991500Y-255348467D01*
X208012221Y-255371465D01*
X208031356Y-255394558D01*
X208048934Y-255417799D01*
X208064984Y-255441243D01*
X208079536Y-255464946D01*
X208092618Y-255488962D01*
X208104260Y-255513346D01*
X208114490Y-255538154D01*
X208123338Y-255563439D01*
X208130833Y-255589257D01*
X208137004Y-255615664D01*
X208141879Y-255642712D01*
X208143775Y-255657286D01*
X208145488Y-255670459D01*
G37*
G36*
X205182259Y-240430982D02*
G01*
X205451329Y-240443811D01*
X205726497Y-240464546D01*
X206003991Y-240493111D01*
X206280037Y-240529427D01*
X206550865Y-240573417D01*
X206812700Y-240625004D01*
X207061771Y-240684110D01*
X207266444Y-240744813D01*
X207491995Y-240819158D01*
X207731187Y-240904252D01*
X207976787Y-240997200D01*
X208221561Y-241095109D01*
X208458273Y-241195084D01*
X208679689Y-241294233D01*
X208878574Y-241389661D01*
X209018862Y-241464270D01*
X209151938Y-241542322D01*
X209277722Y-241623436D01*
X209396131Y-241707231D01*
X209507087Y-241793325D01*
X209610507Y-241881338D01*
X209706312Y-241970888D01*
X209794420Y-242061595D01*
X209874750Y-242153076D01*
X209947223Y-242244952D01*
X210011757Y-242336840D01*
X210068271Y-242428360D01*
X210116685Y-242519131D01*
X210156918Y-242608771D01*
X210188889Y-242696900D01*
X210212518Y-242783136D01*
X210227723Y-242867099D01*
X210234424Y-242948406D01*
X210232541Y-243026678D01*
X210221992Y-243101532D01*
X210202697Y-243172588D01*
X210174575Y-243239465D01*
X210137545Y-243301782D01*
X210091526Y-243359156D01*
X210036438Y-243411209D01*
X209972201Y-243457557D01*
X209898732Y-243497820D01*
X209815952Y-243531618D01*
X209723780Y-243558568D01*
X209622135Y-243578290D01*
X209510936Y-243590403D01*
X209390102Y-243594525D01*
X209211746Y-243586653D01*
X209003391Y-243563795D01*
X208768940Y-243527087D01*
X208512293Y-243477667D01*
X208237354Y-243416672D01*
X207948022Y-243345237D01*
X207341789Y-243175600D01*
X206724807Y-242977851D01*
X206422040Y-242871276D01*
X206128289Y-242761085D01*
X205847458Y-242648412D01*
X205583447Y-242534397D01*
X205340159Y-242420174D01*
X205121494Y-242306882D01*
X204922893Y-242197579D01*
X204737365Y-242088120D01*
X204565171Y-241978765D01*
X204406567Y-241869772D01*
X204261813Y-241761398D01*
X204131166Y-241653903D01*
X204014885Y-241547544D01*
X203913229Y-241442581D01*
X203826456Y-241339272D01*
X203754823Y-241237874D01*
X203698591Y-241138647D01*
X203676330Y-241089928D01*
X203658017Y-241041848D01*
X203643682Y-240994440D01*
X203633359Y-240947737D01*
X203627079Y-240901769D01*
X203624875Y-240856571D01*
X203626780Y-240812173D01*
X203632825Y-240768609D01*
X203643043Y-240725910D01*
X203657467Y-240684110D01*
X203674442Y-240652120D01*
X203701900Y-240622291D01*
X203739371Y-240594613D01*
X203786383Y-240569076D01*
X203842464Y-240545671D01*
X203907142Y-240524388D01*
X204060406Y-240488150D01*
X204242402Y-240460283D01*
X204449358Y-240440710D01*
X204677501Y-240429354D01*
X204923058Y-240426137D01*
X205182259Y-240430982D01*
G37*
G36*
X202343382Y-231777189D02*
G01*
X202353310Y-231779318D01*
X202364297Y-231782822D01*
X202376305Y-231787668D01*
X202403228Y-231801237D01*
X202433768Y-231819741D01*
X202467616Y-231842896D01*
X202504461Y-231870417D01*
X202543994Y-231902022D01*
X202585903Y-231937424D01*
X202629880Y-231976340D01*
X202675613Y-232018486D01*
X202722794Y-232063577D01*
X202771111Y-232111330D01*
X202820255Y-232161460D01*
X202869916Y-232213682D01*
X202919783Y-232267714D01*
X202969547Y-232323270D01*
X203141265Y-232537545D01*
X203302524Y-232756724D01*
X203453306Y-232980334D01*
X203593591Y-233207903D01*
X203842594Y-233673035D01*
X204049377Y-234148346D01*
X204213786Y-234630066D01*
X204335665Y-235114421D01*
X204414859Y-235597639D01*
X204451214Y-236075948D01*
X204444574Y-236545575D01*
X204425082Y-236775954D01*
X204394784Y-237002747D01*
X204353659Y-237225485D01*
X204301689Y-237443693D01*
X204238854Y-237656903D01*
X204165134Y-237864641D01*
X204080511Y-238066436D01*
X203984965Y-238261817D01*
X203878476Y-238450311D01*
X203761026Y-238631449D01*
X203632594Y-238804757D01*
X203493161Y-238969765D01*
X203342709Y-239126000D01*
X203181217Y-239272992D01*
X203054450Y-239375623D01*
X202920319Y-239471432D01*
X202780969Y-239559800D01*
X202638544Y-239640106D01*
X202495189Y-239711730D01*
X202353048Y-239774053D01*
X202214267Y-239826453D01*
X202080989Y-239868311D01*
X201955359Y-239899007D01*
X201839522Y-239917921D01*
X201735622Y-239924432D01*
X201688818Y-239922843D01*
X201645804Y-239917921D01*
X201606846Y-239909588D01*
X201572212Y-239897767D01*
X201542171Y-239882380D01*
X201516991Y-239863351D01*
X201496940Y-239840600D01*
X201482286Y-239814051D01*
X201473297Y-239783627D01*
X201470241Y-239749249D01*
X201471010Y-239741509D01*
X201473290Y-239731563D01*
X201482231Y-239705324D01*
X201496752Y-239671075D01*
X201516544Y-239629360D01*
X201541297Y-239580719D01*
X201570702Y-239525697D01*
X201642222Y-239398676D01*
X201728626Y-239252638D01*
X201827431Y-239091925D01*
X201936158Y-238920876D01*
X202052326Y-238743833D01*
X202209943Y-238500393D01*
X202352497Y-238271371D01*
X202480633Y-238054648D01*
X202594997Y-237848105D01*
X202696236Y-237649625D01*
X202784994Y-237457087D01*
X202861919Y-237268373D01*
X202927656Y-237081365D01*
X202982851Y-236893943D01*
X203028150Y-236703989D01*
X203064199Y-236509384D01*
X203091643Y-236308009D01*
X203111130Y-236097746D01*
X203123304Y-235876476D01*
X203128812Y-235642079D01*
X203128300Y-235392438D01*
X203123528Y-235229468D01*
X203115759Y-235070942D01*
X203104890Y-234916344D01*
X203090817Y-234765157D01*
X203073436Y-234616863D01*
X203052645Y-234470946D01*
X203028339Y-234326890D01*
X203000417Y-234184177D01*
X202968773Y-234042291D01*
X202933306Y-233900715D01*
X202893911Y-233758933D01*
X202850486Y-233616426D01*
X202802927Y-233472679D01*
X202751130Y-233327175D01*
X202694992Y-233179397D01*
X202634411Y-233028829D01*
X202334549Y-232282485D01*
X202251178Y-232058968D01*
X202224324Y-231977388D01*
X202206668Y-231913172D01*
X202197693Y-231864252D01*
X202196884Y-231828561D01*
X202203723Y-231804032D01*
X202209849Y-231795307D01*
X202217693Y-231788598D01*
X202238278Y-231780192D01*
X202264961Y-231776747D01*
X202334553Y-231776471D01*
X202343382Y-231777189D01*
G37*
G36*
X215096698Y-230472604D02*
G01*
X215387325Y-230682858D01*
X215563374Y-230820223D01*
X215739863Y-230966527D01*
X215915163Y-231119963D01*
X216087646Y-231278722D01*
X216255685Y-231440994D01*
X216417652Y-231604972D01*
X216571920Y-231768846D01*
X216716859Y-231930809D01*
X216850843Y-232089050D01*
X216972244Y-232241762D01*
X217079434Y-232387137D01*
X217170785Y-232523364D01*
X217244670Y-232648636D01*
X217299460Y-232761144D01*
X217333528Y-232859079D01*
X217342282Y-232902017D01*
X217345245Y-232940633D01*
X217346219Y-232952872D01*
X217349108Y-232966407D01*
X217353864Y-232981188D01*
X217360438Y-232997167D01*
X217368782Y-233014297D01*
X217378848Y-233032527D01*
X217403950Y-233072098D01*
X217435356Y-233115494D01*
X217472680Y-233162326D01*
X217515532Y-233212206D01*
X217563527Y-233264749D01*
X217616276Y-233319564D01*
X217673391Y-233376267D01*
X217734486Y-233434467D01*
X217799172Y-233493779D01*
X217867061Y-233553815D01*
X217937768Y-233614186D01*
X218010902Y-233674506D01*
X218086079Y-233734387D01*
X218448430Y-234013250D01*
X218769000Y-234269478D01*
X219049005Y-234505656D01*
X219289658Y-234724367D01*
X219492173Y-234928196D01*
X219579509Y-235025337D01*
X219657766Y-235119726D01*
X219727096Y-235211687D01*
X219787650Y-235301541D01*
X219839581Y-235389613D01*
X219883041Y-235476225D01*
X219918180Y-235561700D01*
X219945151Y-235646361D01*
X219964107Y-235730531D01*
X219975197Y-235814534D01*
X219978575Y-235898691D01*
X219974392Y-235983326D01*
X219962799Y-236068762D01*
X219943950Y-236155322D01*
X219917995Y-236243329D01*
X219885086Y-236333106D01*
X219845375Y-236424976D01*
X219799014Y-236519262D01*
X219686950Y-236716372D01*
X219550106Y-236927022D01*
X219478552Y-237033713D01*
X219415885Y-237129835D01*
X219361901Y-237216811D01*
X219316391Y-237296062D01*
X219279150Y-237369008D01*
X219263565Y-237403560D01*
X219249970Y-237437070D01*
X219238339Y-237469714D01*
X219228645Y-237501670D01*
X219220863Y-237533116D01*
X219214968Y-237564229D01*
X219210933Y-237595187D01*
X219208732Y-237626168D01*
X219208341Y-237657349D01*
X219209732Y-237688907D01*
X219212880Y-237721022D01*
X219217759Y-237753869D01*
X219224343Y-237787628D01*
X219232607Y-237822474D01*
X219254070Y-237896143D01*
X219281941Y-237976298D01*
X219316013Y-238064359D01*
X219356079Y-238161748D01*
X219382718Y-238224474D01*
X219409615Y-238293143D01*
X219419292Y-238320493D01*
X219463565Y-238445622D01*
X219516689Y-238613812D01*
X219567746Y-238792336D01*
X219615495Y-238975822D01*
X219658697Y-239158895D01*
X219696111Y-239336179D01*
X219726498Y-239502301D01*
X219743378Y-239584187D01*
X219767287Y-239677002D01*
X219797810Y-239779687D01*
X219834534Y-239891184D01*
X219877047Y-240010432D01*
X219924934Y-240136372D01*
X220035177Y-240404091D01*
X220161956Y-240685866D01*
X220301965Y-240973221D01*
X220375897Y-241116343D01*
X220451895Y-241257683D01*
X220529548Y-241396179D01*
X220608440Y-241530774D01*
X220768189Y-241806348D01*
X220927318Y-242098252D01*
X221081899Y-242398010D01*
X221228005Y-242697148D01*
X221361710Y-242987191D01*
X221479084Y-243259664D01*
X221576202Y-243506092D01*
X221649135Y-243717999D01*
X221691959Y-243877637D01*
X221708718Y-243940113D01*
X221754555Y-244137266D01*
X221760852Y-244172199D01*
X221785715Y-244310132D01*
X221795501Y-244387667D01*
X221801270Y-244459382D01*
X221802904Y-244525361D01*
X221800288Y-244585688D01*
X221793305Y-244640447D01*
X221781839Y-244689721D01*
X221765774Y-244733595D01*
X221744994Y-244772154D01*
X221719381Y-244805480D01*
X221688821Y-244833657D01*
X221653197Y-244856771D01*
X221612392Y-244874904D01*
X221566290Y-244888141D01*
X221514775Y-244896565D01*
X221457730Y-244900261D01*
X221395040Y-244899313D01*
X221326588Y-244893804D01*
X221252258Y-244883818D01*
X221171933Y-244869441D01*
X221085498Y-244850754D01*
X220893830Y-244800792D01*
X220676324Y-244734603D01*
X220432049Y-244652860D01*
X220024701Y-244515881D01*
X219673577Y-244403707D01*
X219530468Y-244360539D01*
X219415058Y-244327913D01*
X219331894Y-244307277D01*
X219285522Y-244300076D01*
X219278960Y-244300999D01*
X219272505Y-244303733D01*
X219266159Y-244308230D01*
X219259926Y-244314443D01*
X219253810Y-244322322D01*
X219247813Y-244331819D01*
X219241938Y-244342886D01*
X219236190Y-244355474D01*
X219225084Y-244385021D01*
X219214521Y-244420071D01*
X219204526Y-244460236D01*
X219195125Y-244505131D01*
X219186344Y-244554366D01*
X219178210Y-244607554D01*
X219170747Y-244664308D01*
X219163981Y-244724240D01*
X219157939Y-244786962D01*
X219152647Y-244852088D01*
X219148129Y-244919228D01*
X219144413Y-244987996D01*
X219103041Y-245428998D01*
X219014360Y-245894985D01*
X218881909Y-246380352D01*
X218709228Y-246879490D01*
X218499856Y-247386793D01*
X218257334Y-247896654D01*
X217985202Y-248403466D01*
X217686999Y-248901623D01*
X217366265Y-249385517D01*
X217026540Y-249849541D01*
X216671363Y-250288089D01*
X216304276Y-250695553D01*
X215928817Y-251066328D01*
X215548526Y-251394805D01*
X215166944Y-251675378D01*
X214787609Y-251902440D01*
X214674067Y-251963286D01*
X214571325Y-252020436D01*
X214479022Y-252074331D01*
X214396796Y-252125409D01*
X214324285Y-252174110D01*
X214261127Y-252220873D01*
X214206961Y-252266137D01*
X214161425Y-252310342D01*
X214124158Y-252353927D01*
X214108512Y-252375624D01*
X214094797Y-252397330D01*
X214082968Y-252419102D01*
X214072981Y-252440993D01*
X214064789Y-252463058D01*
X214058347Y-252485353D01*
X214053611Y-252507932D01*
X214050536Y-252530850D01*
X214049183Y-252577923D01*
X214053929Y-252627012D01*
X214064411Y-252678555D01*
X214129007Y-253012349D01*
X214200838Y-253496832D01*
X214275562Y-254090869D01*
X214348839Y-254753326D01*
X214416328Y-255443069D01*
X214473688Y-256118962D01*
X214516579Y-256739871D01*
X214540661Y-257264661D01*
X214567119Y-257749732D01*
X214593578Y-258168657D01*
X214606808Y-258338846D01*
X214620037Y-258475134D01*
X214633266Y-258571735D01*
X214639881Y-258603344D01*
X214646496Y-258622861D01*
X214650725Y-258629064D01*
X214656766Y-258634454D01*
X214664571Y-258639042D01*
X214674091Y-258642843D01*
X214685277Y-258645868D01*
X214698082Y-258648131D01*
X214712456Y-258649645D01*
X214728351Y-258650422D01*
X214764512Y-258649819D01*
X214806176Y-258646426D01*
X214852955Y-258640345D01*
X214904464Y-258631680D01*
X214960313Y-258620535D01*
X215020115Y-258607013D01*
X215083483Y-258591217D01*
X215150029Y-258573251D01*
X215219365Y-258553217D01*
X215291105Y-258531220D01*
X215364860Y-258507362D01*
X215440243Y-258481748D01*
X215732228Y-258390913D01*
X216018296Y-258323101D01*
X216296664Y-258277767D01*
X216565549Y-258254371D01*
X216823169Y-258252368D01*
X217067741Y-258271217D01*
X217297481Y-258310375D01*
X217510608Y-258369299D01*
X217610383Y-258406004D01*
X217705337Y-258447447D01*
X217795246Y-258493560D01*
X217879887Y-258544275D01*
X217959038Y-258599526D01*
X218032475Y-258659243D01*
X218099975Y-258723359D01*
X218161317Y-258791806D01*
X218216276Y-258864516D01*
X218264631Y-258941422D01*
X218306158Y-259022456D01*
X218340634Y-259107549D01*
X218367837Y-259196634D01*
X218387543Y-259289644D01*
X218399530Y-259386510D01*
X218403576Y-259487164D01*
X218403576Y-259998693D01*
X216216358Y-259998693D01*
X215518863Y-259997246D01*
X214985493Y-259990424D01*
X214593510Y-259974508D01*
X214443432Y-259961976D01*
X214320175Y-259945776D01*
X214220896Y-259925441D01*
X214142752Y-259900508D01*
X214082902Y-259870510D01*
X214038503Y-259834982D01*
X214006713Y-259793460D01*
X213984690Y-259745479D01*
X213969592Y-259690573D01*
X213958576Y-259628278D01*
X213905659Y-259257855D01*
X213429409Y-259628278D01*
X213387133Y-259661930D01*
X213344828Y-259693480D01*
X213300294Y-259722995D01*
X213276504Y-259737011D01*
X213251332Y-259750544D01*
X213224503Y-259763601D01*
X213195743Y-259776193D01*
X213164775Y-259788326D01*
X213131327Y-259800011D01*
X213095121Y-259811254D01*
X213055884Y-259822065D01*
X213013340Y-259832452D01*
X212967215Y-259842424D01*
X212917234Y-259851989D01*
X212863121Y-259861155D01*
X212741402Y-259878326D01*
X212599859Y-259894005D01*
X212436291Y-259908259D01*
X212248501Y-259921157D01*
X212034288Y-259932767D01*
X211791452Y-259943155D01*
X211517794Y-259952391D01*
X211211116Y-259960541D01*
X210869217Y-259967674D01*
X210489897Y-259973857D01*
X210070958Y-259979159D01*
X209610200Y-259983647D01*
X209105423Y-259987388D01*
X207955015Y-259992905D01*
X206602139Y-259996251D01*
X205029199Y-259997969D01*
X201152744Y-259998693D01*
X196350281Y-259986290D01*
X192591268Y-259952390D01*
X190132022Y-259901953D01*
X189469909Y-259872083D01*
X189228855Y-259839940D01*
X189193146Y-259770798D01*
X189158988Y-259677884D01*
X189126690Y-259564299D01*
X189096562Y-259433145D01*
X189068916Y-259287521D01*
X189044059Y-259130529D01*
X189022304Y-258965268D01*
X189003959Y-258794839D01*
X188989334Y-258622343D01*
X188978741Y-258450881D01*
X188972488Y-258283553D01*
X188970886Y-258123459D01*
X188974244Y-257973701D01*
X188982874Y-257837379D01*
X188997084Y-257717593D01*
X189017185Y-257617444D01*
X189032517Y-257565000D01*
X189051985Y-257513531D01*
X189075491Y-257463083D01*
X189102934Y-257413701D01*
X189134214Y-257365430D01*
X189169231Y-257318315D01*
X189207884Y-257272401D01*
X189250075Y-257227734D01*
X189295701Y-257184360D01*
X189344664Y-257142322D01*
X189396863Y-257101667D01*
X189452198Y-257062439D01*
X189510570Y-257024684D01*
X189571877Y-256988447D01*
X189636019Y-256953773D01*
X189702898Y-256920708D01*
X189772412Y-256889296D01*
X189844461Y-256859583D01*
X189918946Y-256831614D01*
X189995765Y-256805435D01*
X190074820Y-256781090D01*
X190156010Y-256758625D01*
X190239234Y-256738085D01*
X190324393Y-256719514D01*
X190411386Y-256702960D01*
X190500114Y-256688466D01*
X190590476Y-256676077D01*
X190682373Y-256665840D01*
X190775703Y-256657799D01*
X190870367Y-256651999D01*
X190966265Y-256648486D01*
X191063297Y-256647305D01*
X191205028Y-256645686D01*
X191337251Y-256640966D01*
X191457072Y-256633353D01*
X191561597Y-256623052D01*
X191647932Y-256610270D01*
X191683373Y-256603014D01*
X191713182Y-256595215D01*
X191736997Y-256586899D01*
X191754455Y-256578092D01*
X191765195Y-256568821D01*
X191767933Y-256564018D01*
X191768856Y-256559110D01*
X191762961Y-256537608D01*
X191745670Y-256493756D01*
X191679283Y-256343860D01*
X191574449Y-256119136D01*
X191435922Y-255829300D01*
X191076804Y-255093153D01*
X190639965Y-254213140D01*
X189511074Y-251972997D01*
X188382191Y-251408551D01*
X188149439Y-251290764D01*
X187905939Y-251177318D01*
X187659131Y-251070900D01*
X187416458Y-250974197D01*
X187185360Y-250889897D01*
X186973280Y-250820685D01*
X186787658Y-250769250D01*
X186707095Y-250751038D01*
X186635937Y-250738278D01*
X186568844Y-250726539D01*
X186500201Y-250711337D01*
X186430524Y-250692932D01*
X186360330Y-250671580D01*
X186290137Y-250647542D01*
X186220460Y-250621074D01*
X186151816Y-250592437D01*
X186084723Y-250561887D01*
X186019697Y-250529683D01*
X185957255Y-250496084D01*
X185897913Y-250461349D01*
X185842188Y-250425734D01*
X185790598Y-250389500D01*
X185743658Y-250352904D01*
X185701886Y-250316205D01*
X185665798Y-250279660D01*
X185610010Y-250216908D01*
X185561792Y-250159634D01*
X185540562Y-250132437D01*
X185521273Y-250105873D01*
X185503942Y-250079697D01*
X185488584Y-250053663D01*
X185475215Y-250027526D01*
X185463853Y-250001039D01*
X185454512Y-249973959D01*
X185447209Y-249946039D01*
X185441960Y-249917033D01*
X185438781Y-249886697D01*
X185437689Y-249854785D01*
X185438700Y-249821051D01*
X185441829Y-249785250D01*
X185447093Y-249747136D01*
X185454508Y-249706465D01*
X185464090Y-249662990D01*
X185475856Y-249616466D01*
X185489821Y-249566647D01*
X185506001Y-249513289D01*
X185524413Y-249456146D01*
X185567998Y-249329521D01*
X185620704Y-249184810D01*
X185682659Y-249020048D01*
X185753994Y-248833272D01*
X185838019Y-248605277D01*
X185916876Y-248375215D01*
X185988706Y-248149286D01*
X186051648Y-247933692D01*
X186103841Y-247734634D01*
X186143426Y-247558313D01*
X186168541Y-247410930D01*
X186175091Y-247350029D01*
X186177326Y-247298688D01*
X186174066Y-247245109D01*
X186164476Y-247177629D01*
X186148840Y-247097229D01*
X186127442Y-247004893D01*
X186100566Y-246901600D01*
X186068496Y-246788335D01*
X185989914Y-246535810D01*
X185893968Y-246255172D01*
X185782932Y-245954277D01*
X185659080Y-245640979D01*
X185524685Y-245323132D01*
X185292779Y-244763689D01*
X185085780Y-244237550D01*
X184902553Y-243736681D01*
X184741960Y-243253046D01*
X184602865Y-242778610D01*
X184484129Y-242305335D01*
X184384618Y-241825188D01*
X184303193Y-241330132D01*
X184238718Y-240812132D01*
X184190056Y-240263152D01*
X184156070Y-239675156D01*
X184135623Y-239040109D01*
X184127579Y-238349975D01*
X184130801Y-237596719D01*
X184144184Y-236948783D01*
X184952423Y-236948783D01*
X184952492Y-236967999D01*
X184952981Y-236987856D01*
X184953900Y-237008329D01*
X184955258Y-237029396D01*
X184957065Y-237051035D01*
X184959331Y-237073223D01*
X184962065Y-237095938D01*
X184965277Y-237119156D01*
X184968977Y-237142856D01*
X184973174Y-237167015D01*
X184977878Y-237191609D01*
X185012881Y-237484028D01*
X185059460Y-237903778D01*
X185109345Y-238399596D01*
X185132945Y-238660010D01*
X185154270Y-238920217D01*
X185221806Y-239588432D01*
X185312571Y-240245098D01*
X185427469Y-240892306D01*
X185567405Y-241532151D01*
X185733282Y-242166725D01*
X185926005Y-242798121D01*
X186146478Y-243428431D01*
X186395606Y-244059750D01*
X186674293Y-244694168D01*
X186983443Y-245333780D01*
X187323960Y-245980679D01*
X187696750Y-246636957D01*
X188102716Y-247304706D01*
X188542762Y-247986021D01*
X189017793Y-248682994D01*
X189528713Y-249397717D01*
X189773281Y-249759385D01*
X190063118Y-250210763D01*
X190387267Y-250734074D01*
X190734774Y-251311541D01*
X191094684Y-251925387D01*
X191456040Y-252557837D01*
X191807888Y-253191113D01*
X192139271Y-253807439D01*
X193358560Y-256146800D01*
X193848315Y-257069260D01*
X194167744Y-257652722D01*
X194679272Y-258587583D01*
X196795940Y-258587583D01*
X196826696Y-257388135D01*
X197589687Y-257388135D01*
X197589687Y-258711057D01*
X199212467Y-258922719D01*
X199851875Y-259014222D01*
X200385450Y-259099111D01*
X200596014Y-259137007D01*
X200760275Y-259170770D01*
X200871621Y-259199571D01*
X200905383Y-259211853D01*
X200923435Y-259222585D01*
X200927203Y-259225481D01*
X200931871Y-259227566D01*
X200937412Y-259228857D01*
X200943796Y-259229369D01*
X200950994Y-259229120D01*
X200958976Y-259228124D01*
X200967714Y-259226399D01*
X200977179Y-259223960D01*
X200998173Y-259217004D01*
X201021725Y-259207388D01*
X201047603Y-259195240D01*
X201075573Y-259180689D01*
X201105404Y-259163864D01*
X201136862Y-259144895D01*
X201169716Y-259123910D01*
X201203732Y-259101039D01*
X201238679Y-259076411D01*
X201274323Y-259050155D01*
X201310433Y-259022400D01*
X201346775Y-258993276D01*
X201372016Y-258969087D01*
X201398222Y-258946109D01*
X201425534Y-258924313D01*
X201454088Y-258903670D01*
X201484026Y-258884151D01*
X201515484Y-258865727D01*
X201548602Y-258848369D01*
X201583520Y-258832047D01*
X201620375Y-258816733D01*
X201659307Y-258802398D01*
X201700455Y-258789012D01*
X201743957Y-258776547D01*
X201789953Y-258764973D01*
X201838581Y-258754262D01*
X201944289Y-258735310D01*
X202062193Y-258719458D01*
X202193404Y-258706474D01*
X202339033Y-258696126D01*
X202500190Y-258688181D01*
X202677988Y-258682406D01*
X202873536Y-258678569D01*
X203087947Y-258676437D01*
X203322330Y-258675778D01*
X203806986Y-258678741D01*
X204199864Y-258689559D01*
X204366796Y-258698818D01*
X204516674Y-258711125D01*
X204651463Y-258726843D01*
X204773126Y-258746334D01*
X204883628Y-258769959D01*
X204984930Y-258798079D01*
X205078998Y-258831057D01*
X205167795Y-258869255D01*
X205253285Y-258913033D01*
X205337431Y-258962754D01*
X205422198Y-259018780D01*
X205509548Y-259081471D01*
X205563780Y-259118774D01*
X205623628Y-259154580D01*
X205758250Y-259221514D01*
X205909563Y-259281885D01*
X206073718Y-259335306D01*
X206246864Y-259381388D01*
X206425152Y-259419745D01*
X206604732Y-259449988D01*
X206781754Y-259471731D01*
X206952369Y-259484586D01*
X207112725Y-259488164D01*
X207258974Y-259482079D01*
X207387265Y-259465942D01*
X207493749Y-259439367D01*
X207537610Y-259422044D01*
X207574575Y-259401966D01*
X207604164Y-259379084D01*
X207625894Y-259353351D01*
X207639285Y-259324717D01*
X207643856Y-259293134D01*
X207643240Y-259283317D01*
X207641410Y-259273713D01*
X207638391Y-259264329D01*
X207634210Y-259255171D01*
X207628891Y-259246245D01*
X207622462Y-259237558D01*
X207614947Y-259229117D01*
X207606373Y-259220928D01*
X207596765Y-259212997D01*
X207586150Y-259205331D01*
X207574553Y-259197936D01*
X207562000Y-259190819D01*
X207548516Y-259183986D01*
X207534129Y-259177443D01*
X207518862Y-259171198D01*
X207502744Y-259165256D01*
X207485798Y-259159625D01*
X207468051Y-259154310D01*
X207449530Y-259149318D01*
X207430259Y-259144655D01*
X207410264Y-259140328D01*
X207389572Y-259136344D01*
X207368208Y-259132708D01*
X207346198Y-259129428D01*
X207323568Y-259126509D01*
X207300344Y-259123959D01*
X207276552Y-259121783D01*
X207252217Y-259119988D01*
X207202022Y-259117568D01*
X207149967Y-259116750D01*
X207092007Y-259115421D01*
X207033966Y-259111496D01*
X206918146Y-259096217D01*
X206803514Y-259071636D01*
X206691079Y-259038477D01*
X206581847Y-258997463D01*
X206476828Y-258949318D01*
X206377027Y-258894765D01*
X206283454Y-258834528D01*
X206197115Y-258769330D01*
X206119019Y-258699894D01*
X206050173Y-258626944D01*
X205991584Y-258551204D01*
X205966452Y-258512513D01*
X205944261Y-258473397D01*
X205925139Y-258433944D01*
X205909212Y-258394246D01*
X205896604Y-258354392D01*
X205887443Y-258314475D01*
X205881854Y-258274583D01*
X205879963Y-258234807D01*
X205880527Y-258216365D01*
X205882206Y-258197444D01*
X205884977Y-258178085D01*
X205888817Y-258158325D01*
X205891934Y-258146611D01*
X206761913Y-258146611D01*
X206763136Y-258195165D01*
X206766736Y-258241523D01*
X206772610Y-258285555D01*
X206780654Y-258327133D01*
X206790765Y-258366127D01*
X206802839Y-258402408D01*
X206816774Y-258435847D01*
X206832466Y-258466314D01*
X206849812Y-258493681D01*
X206868708Y-258517819D01*
X206889051Y-258538597D01*
X206899732Y-258547686D01*
X206910737Y-258555887D01*
X206922052Y-258563184D01*
X206933664Y-258569560D01*
X206945560Y-258575000D01*
X206957728Y-258579486D01*
X206970154Y-258583004D01*
X206982826Y-258585537D01*
X206995730Y-258587069D01*
X207008854Y-258587583D01*
X207044506Y-258586613D01*
X207078686Y-258583750D01*
X207111367Y-258579066D01*
X207142523Y-258572631D01*
X207172129Y-258564516D01*
X207200159Y-258554793D01*
X207226588Y-258543533D01*
X207251388Y-258530807D01*
X207274535Y-258516685D01*
X207296002Y-258501239D01*
X207315764Y-258484540D01*
X207333795Y-258466658D01*
X207350069Y-258447666D01*
X207364560Y-258427634D01*
X207377242Y-258406632D01*
X207388090Y-258384733D01*
X207397078Y-258362007D01*
X207404179Y-258338526D01*
X207409368Y-258314359D01*
X207412620Y-258289579D01*
X207413908Y-258264256D01*
X207413206Y-258238462D01*
X207410489Y-258212268D01*
X207405731Y-258185744D01*
X207398905Y-258158961D01*
X207389987Y-258131992D01*
X207378950Y-258104906D01*
X207365769Y-258077775D01*
X207350417Y-258050669D01*
X207332869Y-258023661D01*
X207313098Y-257996821D01*
X207291080Y-257970220D01*
X207261628Y-257935182D01*
X207232814Y-257902825D01*
X207204660Y-257873143D01*
X207177184Y-257846128D01*
X207150406Y-257821774D01*
X207124344Y-257800076D01*
X207099020Y-257781026D01*
X207074451Y-257764617D01*
X207050657Y-257750845D01*
X207027657Y-257739701D01*
X207005472Y-257731180D01*
X206984120Y-257725275D01*
X206963621Y-257721980D01*
X206943993Y-257721287D01*
X206925257Y-257723192D01*
X206907432Y-257727687D01*
X206890538Y-257734766D01*
X206874592Y-257744422D01*
X206859616Y-257756649D01*
X206845628Y-257771440D01*
X206832648Y-257788789D01*
X206820694Y-257808690D01*
X206809787Y-257831136D01*
X206799946Y-257856121D01*
X206791191Y-257883637D01*
X206783539Y-257913680D01*
X206777012Y-257946241D01*
X206771628Y-257981315D01*
X206767407Y-258018896D01*
X206764368Y-258058977D01*
X206762530Y-258101550D01*
X206761913Y-258146611D01*
X205891934Y-258146611D01*
X205899613Y-258117759D01*
X205914414Y-258076056D01*
X205933040Y-258033526D01*
X205955308Y-257990479D01*
X205981039Y-257947226D01*
X206010052Y-257904077D01*
X206042165Y-257861340D01*
X206077198Y-257819327D01*
X206114969Y-257778348D01*
X206155299Y-257738712D01*
X206198006Y-257700730D01*
X206242909Y-257664711D01*
X206289828Y-257630966D01*
X206338581Y-257599805D01*
X206403167Y-257556172D01*
X206465015Y-257517810D01*
X206524692Y-257484616D01*
X206582767Y-257456487D01*
X206639809Y-257433318D01*
X206668120Y-257423562D01*
X206696386Y-257415007D01*
X206724677Y-257407641D01*
X206753065Y-257401450D01*
X206781622Y-257396423D01*
X206810417Y-257392545D01*
X206839522Y-257389804D01*
X206869009Y-257388187D01*
X206929410Y-257388273D01*
X206992187Y-257392700D01*
X207057911Y-257401364D01*
X207127148Y-257414163D01*
X207200468Y-257430993D01*
X207278439Y-257451750D01*
X207361629Y-257476331D01*
X207458773Y-257503952D01*
X207545942Y-257526974D01*
X207624327Y-257544932D01*
X207695115Y-257557361D01*
X207728032Y-257561356D01*
X207759496Y-257563795D01*
X207789654Y-257564618D01*
X207818657Y-257563769D01*
X207846651Y-257561188D01*
X207873787Y-257556819D01*
X207900212Y-257550601D01*
X207926075Y-257542479D01*
X207951524Y-257532392D01*
X207976709Y-257520284D01*
X208001778Y-257506095D01*
X208026878Y-257489769D01*
X208052160Y-257471246D01*
X208077771Y-257450469D01*
X208103860Y-257427379D01*
X208130576Y-257401919D01*
X208186481Y-257343654D01*
X208246675Y-257275208D01*
X208312347Y-257196117D01*
X208384685Y-257105916D01*
X208825664Y-256541471D01*
X208525799Y-255536054D01*
X208489302Y-255426465D01*
X208446319Y-255310055D01*
X208397394Y-255187857D01*
X208343069Y-255060906D01*
X208220389Y-254796874D01*
X208082620Y-254526227D01*
X207934102Y-254257234D01*
X207779176Y-253998163D01*
X207700666Y-253874932D01*
X207622183Y-253757282D01*
X207544268Y-253646246D01*
X207467464Y-253542859D01*
X207254729Y-253268424D01*
X207161242Y-253152729D01*
X207075274Y-253050625D01*
X206996024Y-252961544D01*
X206922692Y-252884916D01*
X206854475Y-252820174D01*
X206790573Y-252766749D01*
X206730185Y-252724073D01*
X206672511Y-252691577D01*
X206644440Y-252678969D01*
X206616748Y-252668693D01*
X206589333Y-252660678D01*
X206562096Y-252654853D01*
X206534937Y-252651146D01*
X206507755Y-252649487D01*
X206452923Y-252652028D01*
X206396798Y-252661907D01*
X206338581Y-252678555D01*
X206300818Y-252691574D01*
X206260549Y-252704153D01*
X206174042Y-252727889D01*
X206082161Y-252749558D01*
X205988006Y-252768952D01*
X205894679Y-252785867D01*
X205805278Y-252800094D01*
X205722906Y-252811428D01*
X205650661Y-252819661D01*
X205629626Y-252821736D01*
X205609505Y-252824682D01*
X205590282Y-252828546D01*
X205571940Y-252833373D01*
X205554464Y-252839207D01*
X205537838Y-252846094D01*
X205522045Y-252854079D01*
X205507069Y-252863208D01*
X205492894Y-252873525D01*
X205479504Y-252885076D01*
X205466883Y-252897906D01*
X205455014Y-252912060D01*
X205443881Y-252927583D01*
X205433469Y-252944521D01*
X205423761Y-252962919D01*
X205414741Y-252982822D01*
X205406393Y-253004276D01*
X205398701Y-253027325D01*
X205392517Y-253048970D01*
X205391648Y-253052014D01*
X205385218Y-253078390D01*
X205379395Y-253106497D01*
X205374164Y-253136380D01*
X205369507Y-253168084D01*
X205365409Y-253201656D01*
X205361854Y-253237140D01*
X205358825Y-253274580D01*
X205356307Y-253314024D01*
X205354283Y-253355514D01*
X205351652Y-253444820D01*
X205350803Y-253542859D01*
X205346468Y-253675636D01*
X205333694Y-253812360D01*
X205312826Y-253952533D01*
X205284210Y-254095659D01*
X205205114Y-254388776D01*
X205099173Y-254687733D01*
X204969151Y-254988550D01*
X204817812Y-255287248D01*
X204647922Y-255579849D01*
X204462244Y-255862372D01*
X204263544Y-256130840D01*
X204054586Y-256381272D01*
X203838134Y-256609691D01*
X203616955Y-256812116D01*
X203393811Y-256984568D01*
X203282367Y-257058311D01*
X203171469Y-257123069D01*
X203061462Y-257178344D01*
X202952692Y-257223639D01*
X202845505Y-257258457D01*
X202740246Y-257282300D01*
X202657813Y-257295520D01*
X202575842Y-257302067D01*
X202494278Y-257301883D01*
X202413065Y-257294910D01*
X202332150Y-257281090D01*
X202251477Y-257260365D01*
X202170992Y-257232676D01*
X202090639Y-257197966D01*
X202010363Y-257156176D01*
X201930110Y-257107248D01*
X201849825Y-257051124D01*
X201769452Y-256987747D01*
X201688937Y-256917057D01*
X201608226Y-256838996D01*
X201527262Y-256753507D01*
X201445991Y-256660532D01*
X201364359Y-256560012D01*
X201282310Y-256451889D01*
X201199790Y-256336104D01*
X201116743Y-256212601D01*
X201033115Y-256081320D01*
X200948850Y-255942204D01*
X200778193Y-255640233D01*
X200604331Y-255306223D01*
X200426827Y-254939708D01*
X200245240Y-254540224D01*
X200059132Y-254107305D01*
X199688717Y-253243001D01*
X198983158Y-253930913D01*
X198796007Y-254120893D01*
X198624489Y-254308082D01*
X198468112Y-254493824D01*
X198326385Y-254679463D01*
X198198817Y-254866342D01*
X198084918Y-255055805D01*
X197984197Y-255249196D01*
X197896162Y-255447857D01*
X197820323Y-255653133D01*
X197756188Y-255866367D01*
X197703267Y-256088903D01*
X197661069Y-256322084D01*
X197629103Y-256567254D01*
X197606878Y-256825757D01*
X197593903Y-257098936D01*
X197589687Y-257388135D01*
X196826696Y-257388135D01*
X196831219Y-257211751D01*
X196844564Y-256841735D01*
X196871836Y-256491485D01*
X196913733Y-256159683D01*
X196970951Y-255845012D01*
X197044189Y-255546154D01*
X197134144Y-255261791D01*
X197241515Y-254990606D01*
X197366998Y-254731280D01*
X197511291Y-254482497D01*
X197675092Y-254242937D01*
X197859098Y-254011284D01*
X198064008Y-253786220D01*
X198290519Y-253566427D01*
X198539328Y-253350587D01*
X198811133Y-253137383D01*
X199106632Y-252925496D01*
X199176034Y-252876371D01*
X200627952Y-252876371D01*
X200634286Y-252929537D01*
X200647830Y-252993298D01*
X200668608Y-253067600D01*
X200696647Y-253152392D01*
X200774609Y-253353241D01*
X200881923Y-253595431D01*
X201018796Y-253878549D01*
X201185435Y-254202182D01*
X201382046Y-254565915D01*
X201716257Y-255177522D01*
X201995276Y-255668619D01*
X202225100Y-256047683D01*
X202323436Y-256197850D01*
X202411721Y-256323187D01*
X202490704Y-256424753D01*
X202561135Y-256503607D01*
X202623763Y-256560808D01*
X202679337Y-256597417D01*
X202728606Y-256614492D01*
X202751111Y-256616036D01*
X202772320Y-256613093D01*
X202811229Y-256594279D01*
X202846081Y-256559110D01*
X203158791Y-256107836D01*
X203446078Y-255670825D01*
X203704012Y-255254072D01*
X203928666Y-254863571D01*
X204116113Y-254505316D01*
X204194657Y-254340155D01*
X204262425Y-254185302D01*
X204318929Y-254041508D01*
X204363675Y-253909523D01*
X204396175Y-253790094D01*
X204415935Y-253683972D01*
X204521770Y-253048970D01*
X203675106Y-254001470D01*
X203068770Y-254698206D01*
X202873916Y-254924204D01*
X202817313Y-254992142D01*
X202793163Y-255024526D01*
X202788575Y-255026090D01*
X202781467Y-255024224D01*
X202771905Y-255019012D01*
X202759952Y-255010539D01*
X202729136Y-254984141D01*
X202689534Y-254945702D01*
X202641665Y-254895894D01*
X202586044Y-254835390D01*
X202523188Y-254764860D01*
X202453614Y-254684977D01*
X202296380Y-254499837D01*
X202118475Y-254285344D01*
X201924034Y-254046874D01*
X201717190Y-253789800D01*
X201485920Y-253508612D01*
X201281728Y-253273313D01*
X201104822Y-253083489D01*
X201026666Y-253005501D01*
X200955408Y-252938726D01*
X200891075Y-252883114D01*
X200833693Y-252838612D01*
X200783287Y-252805169D01*
X200739883Y-252782733D01*
X200703507Y-252771252D01*
X200674185Y-252770675D01*
X200651942Y-252780950D01*
X200636805Y-252802026D01*
X200628800Y-252833850D01*
X200627952Y-252876371D01*
X199176034Y-252876371D01*
X199262910Y-252814878D01*
X199334244Y-252760908D01*
X199401050Y-252707800D01*
X199463334Y-252655532D01*
X199521102Y-252604081D01*
X199574362Y-252553425D01*
X199623120Y-252503540D01*
X199667382Y-252454405D01*
X199707155Y-252405996D01*
X199742444Y-252358292D01*
X199773257Y-252311269D01*
X199799600Y-252264905D01*
X199821480Y-252219177D01*
X199838902Y-252174063D01*
X199846210Y-252148979D01*
X207398069Y-252148979D01*
X207404907Y-252191790D01*
X207419545Y-252239133D01*
X207441947Y-252291087D01*
X207472079Y-252347735D01*
X207509903Y-252409156D01*
X207555385Y-252475432D01*
X207669181Y-252622869D01*
X207813182Y-252790693D01*
X207987104Y-252979549D01*
X208190662Y-253190083D01*
X208383756Y-253396086D01*
X208572069Y-253609453D01*
X208754543Y-253828453D01*
X208930118Y-254051355D01*
X209097734Y-254276427D01*
X209256334Y-254501939D01*
X209404856Y-254726158D01*
X209542242Y-254947355D01*
X209667432Y-255163798D01*
X209779368Y-255373755D01*
X209876989Y-255575496D01*
X209959236Y-255767288D01*
X210025050Y-255947402D01*
X210073372Y-256114106D01*
X210103142Y-256265668D01*
X210113300Y-256400357D01*
X210114764Y-256454747D01*
X210119226Y-256505572D01*
X210122613Y-256529695D01*
X210124724Y-256541471D01*
X210126788Y-256552985D01*
X210131764Y-256575461D01*
X210137554Y-256597143D01*
X210144171Y-256618049D01*
X210151627Y-256638200D01*
X210159936Y-256657614D01*
X210169111Y-256676311D01*
X210179164Y-256694311D01*
X210190109Y-256711632D01*
X210201958Y-256728294D01*
X210214724Y-256744317D01*
X210228421Y-256759720D01*
X210243060Y-256774522D01*
X210258656Y-256788742D01*
X210275220Y-256802401D01*
X210292767Y-256815517D01*
X210311308Y-256828110D01*
X210330856Y-256840199D01*
X210351426Y-256851803D01*
X210395678Y-256873636D01*
X210444167Y-256893764D01*
X210496997Y-256912342D01*
X210554272Y-256929524D01*
X210605208Y-256942887D01*
X210664929Y-256962839D01*
X210732712Y-256988940D01*
X210807832Y-257020751D01*
X210889567Y-257057833D01*
X210977193Y-257099747D01*
X211167224Y-257196313D01*
X211372138Y-257306935D01*
X211586146Y-257428100D01*
X211803463Y-257556293D01*
X212018299Y-257688001D01*
X212906052Y-258264256D01*
X213023716Y-258340634D01*
X212970798Y-255236196D01*
X212900242Y-252114110D01*
X214064411Y-251091054D01*
X214330540Y-250852063D01*
X214592716Y-250598783D01*
X214850293Y-250332223D01*
X215102625Y-250053389D01*
X215349065Y-249763291D01*
X215588969Y-249462934D01*
X215821689Y-249153328D01*
X216046581Y-248835479D01*
X216262997Y-248510395D01*
X216470293Y-248179085D01*
X216667822Y-247842555D01*
X216854938Y-247501814D01*
X217030995Y-247157869D01*
X217195348Y-246811728D01*
X217347350Y-246464398D01*
X217486355Y-246116887D01*
X217775158Y-245365306D01*
X217981072Y-244810508D01*
X218053397Y-244597601D01*
X218105543Y-244422727D01*
X218137690Y-244282167D01*
X218150020Y-244172199D01*
X218148809Y-244127525D01*
X218142712Y-244089103D01*
X218131750Y-244056469D01*
X218115948Y-244029158D01*
X218095326Y-244006704D01*
X218069908Y-243988643D01*
X218039717Y-243974510D01*
X218004774Y-243963838D01*
X217920727Y-243951022D01*
X217817946Y-243946474D01*
X217556911Y-243947301D01*
X217441582Y-243947861D01*
X217339560Y-243950126D01*
X217249681Y-243954975D01*
X217170784Y-243963286D01*
X217135090Y-243969015D01*
X217101706Y-243975938D01*
X217070485Y-243984167D01*
X217041283Y-243993810D01*
X217013954Y-244004978D01*
X216988354Y-244017779D01*
X216964336Y-244032325D01*
X216941755Y-244048725D01*
X216920466Y-244067089D01*
X216900323Y-244087526D01*
X216881182Y-244110146D01*
X216862897Y-244135060D01*
X216845322Y-244162376D01*
X216828313Y-244192205D01*
X216811723Y-244224657D01*
X216795408Y-244259842D01*
X216763020Y-244338847D01*
X216729986Y-244430099D01*
X216695144Y-244534477D01*
X216657329Y-244652860D01*
X216604244Y-244811372D01*
X216537749Y-244969291D01*
X216458076Y-245126434D01*
X216365459Y-245282621D01*
X216260129Y-245437672D01*
X216142320Y-245591405D01*
X216012263Y-245743639D01*
X215870191Y-245894194D01*
X215716338Y-246042888D01*
X215550934Y-246189541D01*
X215374213Y-246333973D01*
X215186408Y-246476001D01*
X214987751Y-246615446D01*
X214778474Y-246752126D01*
X214558810Y-246885861D01*
X214328991Y-247016469D01*
X214123345Y-247128069D01*
X213929844Y-247237886D01*
X213748641Y-247345791D01*
X213579892Y-247451654D01*
X213423752Y-247555348D01*
X213280376Y-247656741D01*
X213149919Y-247755706D01*
X213032536Y-247852113D01*
X212928383Y-247945832D01*
X212837613Y-248036735D01*
X212760383Y-248124693D01*
X212696846Y-248209576D01*
X212647159Y-248291254D01*
X212611477Y-248369600D01*
X212589953Y-248444483D01*
X212582744Y-248515775D01*
X212584174Y-248549378D01*
X212588395Y-248590293D01*
X212595302Y-248637978D01*
X212604793Y-248691889D01*
X212631114Y-248816223D01*
X212666530Y-248958954D01*
X212710213Y-249115740D01*
X212761338Y-249282242D01*
X212819077Y-249454117D01*
X212850168Y-249540714D01*
X212882603Y-249627027D01*
X212969420Y-249881997D01*
X213003527Y-249989600D01*
X213031433Y-250085911D01*
X213053137Y-250172405D01*
X213068641Y-250250552D01*
X213077942Y-250321827D01*
X213081043Y-250387701D01*
X213077942Y-250449648D01*
X213068641Y-250509141D01*
X213053137Y-250567651D01*
X213031433Y-250626653D01*
X213003527Y-250687618D01*
X212969420Y-250752019D01*
X212929112Y-250821330D01*
X212882603Y-250897023D01*
X212820998Y-250983465D01*
X212752121Y-251067452D01*
X212676241Y-251148907D01*
X212593630Y-251227752D01*
X212504559Y-251303910D01*
X212409300Y-251377304D01*
X212308124Y-251447855D01*
X212201303Y-251515486D01*
X212089107Y-251580121D01*
X211971808Y-251641680D01*
X211722986Y-251755265D01*
X211457007Y-251855621D01*
X211176042Y-251942127D01*
X210882262Y-252014164D01*
X210577836Y-252071112D01*
X210264935Y-252112350D01*
X209945730Y-252137258D01*
X209622390Y-252145217D01*
X209297087Y-252135606D01*
X208971991Y-252107804D01*
X208649273Y-252061192D01*
X208378441Y-252014378D01*
X208141224Y-251980199D01*
X207937339Y-251959301D01*
X207766501Y-251952329D01*
X207693386Y-251954267D01*
X207628426Y-251959930D01*
X207571585Y-251969397D01*
X207522829Y-251982749D01*
X207482121Y-252000068D01*
X207449427Y-252021433D01*
X207429314Y-252042177D01*
X207424710Y-252046926D01*
X207407935Y-252076628D01*
X207399067Y-252110618D01*
X207398069Y-252148979D01*
X199846210Y-252148979D01*
X199851874Y-252129540D01*
X199860402Y-252085586D01*
X199864492Y-252042177D01*
X199864151Y-251999292D01*
X199859384Y-251956907D01*
X199850200Y-251915000D01*
X199836604Y-251873549D01*
X199818602Y-251832530D01*
X199796201Y-251791922D01*
X199769408Y-251751701D01*
X199738229Y-251711845D01*
X199702670Y-251672331D01*
X199662738Y-251633138D01*
X199618439Y-251594241D01*
X199569780Y-251555619D01*
X199516768Y-251517249D01*
X199459408Y-251479108D01*
X199390441Y-251432608D01*
X199328529Y-251392362D01*
X199272869Y-251358419D01*
X199222662Y-251330833D01*
X199199352Y-251319440D01*
X199177105Y-251309654D01*
X199155820Y-251301484D01*
X199135398Y-251294936D01*
X199115738Y-251290015D01*
X199096740Y-251286728D01*
X199078303Y-251285082D01*
X199060329Y-251285083D01*
X199042717Y-251286738D01*
X199025366Y-251290052D01*
X199008177Y-251295034D01*
X198991049Y-251301688D01*
X198973882Y-251310022D01*
X198956577Y-251320042D01*
X198939032Y-251331754D01*
X198921148Y-251345165D01*
X198902826Y-251360281D01*
X198883963Y-251377109D01*
X198844220Y-251415926D01*
X198801118Y-251461668D01*
X198753857Y-251514386D01*
X198715418Y-251553760D01*
X198672893Y-251592495D01*
X198626331Y-251630571D01*
X198575780Y-251667968D01*
X198462906Y-251740651D01*
X198334658Y-251810389D01*
X198191424Y-251877026D01*
X198033591Y-251940407D01*
X197861547Y-252000378D01*
X197675680Y-252056783D01*
X197476377Y-252109467D01*
X197264025Y-252158275D01*
X197039013Y-252203053D01*
X196801728Y-252243644D01*
X196552557Y-252279895D01*
X196291888Y-252311650D01*
X196020108Y-252338753D01*
X195737606Y-252361051D01*
X195379294Y-252383909D01*
X195058061Y-252392609D01*
X194773362Y-252386632D01*
X194524657Y-252365462D01*
X194413631Y-252349018D01*
X194311401Y-252328583D01*
X194217897Y-252304090D01*
X194133053Y-252275477D01*
X194056799Y-252242677D01*
X193989069Y-252205628D01*
X193929795Y-252164263D01*
X193878908Y-252118519D01*
X193836341Y-252068330D01*
X193802026Y-252013633D01*
X193775896Y-251954363D01*
X193757882Y-251890454D01*
X193747916Y-251821843D01*
X193745932Y-251748465D01*
X193751860Y-251670255D01*
X193765633Y-251587149D01*
X193787184Y-251499081D01*
X193816444Y-251405988D01*
X193853345Y-251307806D01*
X193897821Y-251204468D01*
X194009222Y-250982070D01*
X194150104Y-250738278D01*
X194239951Y-250590964D01*
X194323184Y-250442824D01*
X194398149Y-250297991D01*
X194463193Y-250160601D01*
X194516661Y-250034786D01*
X194538537Y-249977512D01*
X194556900Y-249924682D01*
X194571542Y-249876813D01*
X194582256Y-249834422D01*
X194588836Y-249798025D01*
X194591076Y-249768140D01*
X194589897Y-249752492D01*
X194586403Y-249735355D01*
X194580655Y-249716791D01*
X194572713Y-249696860D01*
X194562640Y-249675625D01*
X194550497Y-249653146D01*
X194520245Y-249604703D01*
X194482448Y-249552023D01*
X194437597Y-249495597D01*
X194386184Y-249435914D01*
X194328698Y-249373467D01*
X194265631Y-249308747D01*
X194197475Y-249242243D01*
X194124719Y-249174448D01*
X194047854Y-249105851D01*
X193967373Y-249036944D01*
X193883765Y-248968218D01*
X193797521Y-248900164D01*
X193709133Y-248833272D01*
X193534019Y-248697536D01*
X193378955Y-248567587D01*
X193308877Y-248504525D01*
X193243735Y-248442600D01*
X193183502Y-248381708D01*
X193128152Y-248321746D01*
X193077660Y-248262612D01*
X193031999Y-248204200D01*
X192991145Y-248146409D01*
X192955070Y-248089134D01*
X192923750Y-248032273D01*
X192897158Y-247975722D01*
X192875269Y-247919377D01*
X192858056Y-247863136D01*
X192845494Y-247806895D01*
X192837558Y-247750551D01*
X192834220Y-247693999D01*
X192835456Y-247637138D01*
X192841239Y-247579863D01*
X192851545Y-247522072D01*
X192866346Y-247463660D01*
X192885617Y-247404525D01*
X192909332Y-247344563D01*
X192937465Y-247283670D01*
X192969991Y-247221745D01*
X193006884Y-247158682D01*
X193048118Y-247094379D01*
X193093666Y-247028732D01*
X193143504Y-246961639D01*
X193197605Y-246892995D01*
X193550381Y-246434384D01*
X192527325Y-245323132D01*
X192309284Y-245078981D01*
X192082769Y-244815191D01*
X191854188Y-244540239D01*
X191629947Y-244262599D01*
X191416454Y-243990746D01*
X191220118Y-243733155D01*
X191047345Y-243498302D01*
X190904545Y-243294660D01*
X190769321Y-243069631D01*
X190635518Y-242826438D01*
X190504144Y-242568001D01*
X190376207Y-242297238D01*
X190252713Y-242017071D01*
X190134671Y-241730418D01*
X190023089Y-241440199D01*
X189918974Y-241149334D01*
X189823334Y-240860743D01*
X189737176Y-240577345D01*
X189661508Y-240302060D01*
X189597339Y-240037809D01*
X189545675Y-239787510D01*
X189507525Y-239554083D01*
X189483896Y-239340448D01*
X189475796Y-239149526D01*
X189474943Y-239054182D01*
X189472282Y-238966384D01*
X189467657Y-238885820D01*
X189460914Y-238812181D01*
X189451897Y-238745156D01*
X189440451Y-238684436D01*
X189436331Y-238668365D01*
X190207120Y-238668365D01*
X190207350Y-238686390D01*
X190209865Y-238725498D01*
X190215152Y-238768836D01*
X190223246Y-238816590D01*
X190234181Y-238868943D01*
X190247995Y-238926080D01*
X190264721Y-238988184D01*
X190284397Y-239055439D01*
X190307056Y-239128030D01*
X190332736Y-239206140D01*
X190361471Y-239289954D01*
X190393297Y-239379656D01*
X190428249Y-239475430D01*
X190466363Y-239577460D01*
X190552220Y-239801025D01*
X190651150Y-240051823D01*
X190763439Y-240331326D01*
X190883484Y-240599915D01*
X191041665Y-240917339D01*
X191451356Y-241665821D01*
X191950343Y-242511041D01*
X192496460Y-243387266D01*
X193047537Y-244228765D01*
X193561408Y-244969805D01*
X193995904Y-245544653D01*
X194170209Y-245749214D01*
X194308857Y-245887578D01*
X194342448Y-245914653D01*
X194373775Y-245942941D01*
X194402848Y-245972419D01*
X194429676Y-246003059D01*
X194454269Y-246034836D01*
X194476636Y-246067724D01*
X194496788Y-246101697D01*
X194514735Y-246136730D01*
X194530485Y-246172796D01*
X194544048Y-246209870D01*
X194555434Y-246247925D01*
X194564654Y-246286937D01*
X194571716Y-246326879D01*
X194576630Y-246367725D01*
X194579406Y-246409449D01*
X194580053Y-246452026D01*
X194578582Y-246495430D01*
X194575002Y-246539635D01*
X194569322Y-246584615D01*
X194561553Y-246630345D01*
X194551704Y-246676798D01*
X194539785Y-246723948D01*
X194525805Y-246771771D01*
X194509774Y-246820239D01*
X194491702Y-246869327D01*
X194471598Y-246919010D01*
X194449472Y-246969261D01*
X194425335Y-247020055D01*
X194371062Y-247123167D01*
X194308857Y-247228139D01*
X194259397Y-247303057D01*
X194217457Y-247370249D01*
X194199589Y-247401505D01*
X194183940Y-247431498D01*
X194170623Y-247460451D01*
X194159751Y-247488587D01*
X194151436Y-247516129D01*
X194145793Y-247543300D01*
X194142934Y-247570322D01*
X194142972Y-247597418D01*
X194146020Y-247624811D01*
X194152192Y-247652724D01*
X194161599Y-247681381D01*
X194174356Y-247711002D01*
X194190576Y-247741813D01*
X194210370Y-247774034D01*
X194233853Y-247807891D01*
X194261138Y-247843604D01*
X194292337Y-247881397D01*
X194327563Y-247921493D01*
X194366930Y-247964114D01*
X194410551Y-248009485D01*
X194458539Y-248057826D01*
X194511006Y-248109362D01*
X194629831Y-248222908D01*
X194767932Y-248351905D01*
X194926212Y-248498136D01*
X195017705Y-248584849D01*
X195106667Y-248672595D01*
X195192631Y-248760755D01*
X195275132Y-248848708D01*
X195353707Y-248935835D01*
X195427889Y-249021514D01*
X195497213Y-249105127D01*
X195561215Y-249186052D01*
X195619429Y-249263670D01*
X195671391Y-249337361D01*
X195716634Y-249406505D01*
X195754694Y-249470480D01*
X195785106Y-249528668D01*
X195807405Y-249580448D01*
X195821125Y-249625201D01*
X195824623Y-249644748D01*
X195825802Y-249662305D01*
X195823562Y-249702108D01*
X195816982Y-249748396D01*
X195806268Y-249800628D01*
X195791626Y-249858259D01*
X195773263Y-249920749D01*
X195751387Y-249987553D01*
X195726203Y-250058130D01*
X195697919Y-250131937D01*
X195666741Y-250208431D01*
X195632875Y-250287070D01*
X195596530Y-250367311D01*
X195557910Y-250448612D01*
X195517224Y-250530429D01*
X195474677Y-250612221D01*
X195430477Y-250693444D01*
X195384830Y-250773557D01*
X195290516Y-250936350D01*
X195213230Y-251081238D01*
X195181254Y-251147185D01*
X195153875Y-251208917D01*
X195131204Y-251266521D01*
X195113356Y-251320085D01*
X195100442Y-251369696D01*
X195092577Y-251415441D01*
X195089873Y-251457406D01*
X195092443Y-251495681D01*
X195100400Y-251530351D01*
X195113858Y-251561503D01*
X195132929Y-251589226D01*
X195157726Y-251613605D01*
X195188363Y-251634730D01*
X195224952Y-251652685D01*
X195267607Y-251667560D01*
X195316441Y-251679441D01*
X195371566Y-251688415D01*
X195433095Y-251694569D01*
X195501143Y-251697991D01*
X195575821Y-251698768D01*
X195657243Y-251696986D01*
X195745521Y-251692734D01*
X195943102Y-251677167D01*
X196169466Y-251652764D01*
X196425518Y-251620221D01*
X196669337Y-251588836D01*
X196885302Y-251553523D01*
X197074085Y-251513250D01*
X197158494Y-251490930D01*
X197236358Y-251466982D01*
X197307763Y-251441278D01*
X197372793Y-251413687D01*
X197431531Y-251384080D01*
X197484061Y-251352330D01*
X197530468Y-251318305D01*
X197570835Y-251281877D01*
X197605246Y-251242918D01*
X197633785Y-251201297D01*
X197656537Y-251156885D01*
X197673585Y-251109554D01*
X197685013Y-251059174D01*
X197690905Y-251005616D01*
X197691345Y-250948750D01*
X197686418Y-250888448D01*
X197676207Y-250824580D01*
X197660795Y-250757018D01*
X197640268Y-250685631D01*
X197614709Y-250610291D01*
X197548831Y-250447234D01*
X197463832Y-250266815D01*
X197360386Y-250067998D01*
X197268100Y-249889098D01*
X197190129Y-249728208D01*
X197127143Y-249583492D01*
X197101480Y-249516627D01*
X197079816Y-249453117D01*
X197062234Y-249392733D01*
X197048818Y-249335247D01*
X197039653Y-249280428D01*
X197034822Y-249228048D01*
X197034409Y-249177877D01*
X197038499Y-249129686D01*
X197047175Y-249083246D01*
X197053315Y-249062581D01*
X198524547Y-249062581D01*
X199318302Y-249856328D01*
X199479842Y-250016249D01*
X199631667Y-250163355D01*
X199770676Y-250294752D01*
X199893769Y-250407545D01*
X199997845Y-250498841D01*
X200079804Y-250565745D01*
X200111520Y-250589147D01*
X200136544Y-250605365D01*
X200154489Y-250614038D01*
X200160685Y-250615432D01*
X200164966Y-250614804D01*
X200177128Y-250582351D01*
X200199418Y-250513932D01*
X200230389Y-250413266D01*
X200268596Y-250284075D01*
X200312589Y-250130079D01*
X200360923Y-249954999D01*
X200412151Y-249762556D01*
X200464825Y-249556470D01*
X200520615Y-249338190D01*
X204221910Y-249338190D01*
X204223772Y-249368223D01*
X204227707Y-249401412D01*
X204233722Y-249437966D01*
X204241823Y-249478095D01*
X204252017Y-249522009D01*
X204264311Y-249569919D01*
X204278710Y-249622034D01*
X204295222Y-249678564D01*
X204334608Y-249805709D01*
X204382520Y-249953033D01*
X204439011Y-250122217D01*
X204504131Y-250314939D01*
X204578167Y-250543866D01*
X204653236Y-250763905D01*
X204727064Y-250969474D01*
X204797378Y-251154993D01*
X204861905Y-251314880D01*
X204918369Y-251443555D01*
X204964499Y-251535436D01*
X204982978Y-251565835D01*
X204998020Y-251584943D01*
X205020526Y-251601494D01*
X205051566Y-251611514D01*
X205090990Y-251615087D01*
X205138650Y-251612298D01*
X205194397Y-251603230D01*
X205258083Y-251587967D01*
X205408677Y-251539193D01*
X205589243Y-251466648D01*
X205798592Y-251371003D01*
X206035537Y-251252930D01*
X206298889Y-251113102D01*
X206587459Y-250952190D01*
X206900058Y-250770865D01*
X207235499Y-250569800D01*
X207592592Y-250349666D01*
X207970149Y-250111136D01*
X208366981Y-249854881D01*
X208781901Y-249581572D01*
X209213718Y-249291882D01*
X209216614Y-249287243D01*
X209218692Y-249279984D01*
X209220436Y-249257880D01*
X209219028Y-249226112D01*
X209214545Y-249185223D01*
X209207065Y-249135756D01*
X209196665Y-249078254D01*
X209183423Y-249013259D01*
X209167416Y-248941313D01*
X209148721Y-248862959D01*
X209127417Y-248778740D01*
X209103581Y-248689198D01*
X209077290Y-248594876D01*
X209048622Y-248496317D01*
X209017655Y-248394062D01*
X208984465Y-248288655D01*
X208949131Y-248180638D01*
X208613994Y-247139943D01*
X206938297Y-247069386D01*
X206283455Y-247050645D01*
X205734445Y-247025289D01*
X205350801Y-246999932D01*
X205239593Y-246989321D01*
X205192051Y-246981191D01*
X205186630Y-246980049D01*
X205180307Y-246979916D01*
X205173113Y-246980764D01*
X205165075Y-246982569D01*
X205156224Y-246985303D01*
X205146588Y-246988942D01*
X205125077Y-246998830D01*
X205100776Y-247012025D01*
X205073917Y-247028320D01*
X205044733Y-247047509D01*
X205013455Y-247069386D01*
X205008018Y-247073382D01*
X204980318Y-247093742D01*
X204945552Y-247120373D01*
X204909392Y-247149070D01*
X204872069Y-247179628D01*
X204833815Y-247211839D01*
X204794865Y-247245497D01*
X204755449Y-247280396D01*
X204715801Y-247316327D01*
X204647550Y-247379360D01*
X204588161Y-247436942D01*
X204561717Y-247464051D01*
X204537402Y-247490234D01*
X204515186Y-247515635D01*
X204495040Y-247540399D01*
X204476936Y-247564673D01*
X204460844Y-247588601D01*
X204446734Y-247612329D01*
X204434579Y-247636002D01*
X204424349Y-247659765D01*
X204416014Y-247683764D01*
X204409547Y-247708144D01*
X204404917Y-247733050D01*
X204402095Y-247758629D01*
X204401054Y-247785024D01*
X204401763Y-247812382D01*
X204404193Y-247840847D01*
X204408315Y-247870566D01*
X204414101Y-247901683D01*
X204421522Y-247934344D01*
X204430547Y-247968694D01*
X204441149Y-248004878D01*
X204453297Y-248043043D01*
X204482119Y-248125892D01*
X204516781Y-248218405D01*
X204557049Y-248321744D01*
X204661779Y-248569275D01*
X204734673Y-248745852D01*
X204736743Y-248750867D01*
X204762547Y-248820618D01*
X204780289Y-248878302D01*
X204786072Y-248903079D01*
X204789763Y-248925392D01*
X204791335Y-248945425D01*
X204790762Y-248963362D01*
X204788019Y-248979386D01*
X204783079Y-248993683D01*
X204775918Y-249006436D01*
X204766508Y-249017829D01*
X204754825Y-249028046D01*
X204740842Y-249037272D01*
X204724534Y-249045691D01*
X204705875Y-249053486D01*
X204661399Y-249067943D01*
X204607208Y-249082115D01*
X204468853Y-249115499D01*
X204409951Y-249131488D01*
X204383461Y-249139388D01*
X204358955Y-249147504D01*
X204336438Y-249156046D01*
X204315918Y-249165225D01*
X204297399Y-249175250D01*
X204280890Y-249186330D01*
X204266396Y-249198677D01*
X204253924Y-249212500D01*
X204248448Y-249220031D01*
X204243480Y-249228009D01*
X204239020Y-249236461D01*
X204235070Y-249245414D01*
X204228702Y-249264924D01*
X204224382Y-249286751D01*
X204222116Y-249311103D01*
X204221910Y-249338190D01*
X200520615Y-249338190D01*
X200545648Y-249240245D01*
X200576990Y-249110567D01*
X200602079Y-248997813D01*
X200620761Y-248900459D01*
X200632879Y-248816980D01*
X200638280Y-248745852D01*
X200636807Y-248685550D01*
X200633445Y-248658982D01*
X200628307Y-248634549D01*
X200621373Y-248612061D01*
X200612623Y-248591326D01*
X200602039Y-248572154D01*
X200589602Y-248554356D01*
X200575291Y-248537739D01*
X200559087Y-248522114D01*
X200520924Y-248493075D01*
X200474958Y-248465717D01*
X200421034Y-248438513D01*
X200358997Y-248409940D01*
X200306213Y-248388877D01*
X200253404Y-248372078D01*
X200226852Y-248365317D01*
X200200129Y-248359671D01*
X200173180Y-248355155D01*
X200145951Y-248351786D01*
X200118385Y-248349579D01*
X200090428Y-248348552D01*
X200062026Y-248348719D01*
X200033123Y-248350098D01*
X200003665Y-248352703D01*
X199973597Y-248356553D01*
X199942863Y-248361662D01*
X199911408Y-248368047D01*
X199846120Y-248384708D01*
X199777291Y-248406667D01*
X199704483Y-248434051D01*
X199627257Y-248466991D01*
X199545174Y-248505616D01*
X199457793Y-248550054D01*
X199364677Y-248600435D01*
X199265385Y-248656888D01*
X198524547Y-249062581D01*
X197053315Y-249062581D01*
X197060521Y-249038326D01*
X197078621Y-248994699D01*
X197101560Y-248952134D01*
X197129421Y-248910402D01*
X197162288Y-248869275D01*
X197200245Y-248828522D01*
X197243377Y-248787914D01*
X197291766Y-248747223D01*
X197345497Y-248706218D01*
X197404655Y-248664670D01*
X197469322Y-248622351D01*
X197615524Y-248534479D01*
X197784773Y-248440768D01*
X197977741Y-248339383D01*
X198057939Y-248296385D01*
X198133149Y-248253360D01*
X198203347Y-248210284D01*
X198268507Y-248167130D01*
X198328603Y-248123873D01*
X198383608Y-248080486D01*
X198433498Y-248036945D01*
X198478246Y-247993222D01*
X198517826Y-247949293D01*
X198552212Y-247905131D01*
X198581380Y-247860711D01*
X198605302Y-247816007D01*
X198623953Y-247770993D01*
X198637307Y-247725643D01*
X198645339Y-247679931D01*
X198647350Y-247656932D01*
X198648022Y-247633832D01*
X198646016Y-247612089D01*
X198640042Y-247586603D01*
X198630159Y-247557455D01*
X198616430Y-247524725D01*
X198577677Y-247448842D01*
X198524273Y-247359601D01*
X198456710Y-247257647D01*
X198375479Y-247143627D01*
X198281070Y-247018187D01*
X198173975Y-246881972D01*
X198054684Y-246735629D01*
X197923688Y-246579803D01*
X197781479Y-246415140D01*
X197628546Y-246242287D01*
X197465382Y-246061889D01*
X197363701Y-245951744D01*
X199160971Y-245951744D01*
X199161068Y-245965479D01*
X199162788Y-245980597D01*
X199166135Y-245997110D01*
X199171116Y-246015031D01*
X199177738Y-246034373D01*
X199186007Y-246055149D01*
X199195930Y-246077372D01*
X199207513Y-246101055D01*
X199220763Y-246126211D01*
X199235686Y-246152853D01*
X199252288Y-246180993D01*
X199270576Y-246210644D01*
X199290556Y-246241820D01*
X199312235Y-246274534D01*
X199335620Y-246308798D01*
X199360716Y-246344625D01*
X199387531Y-246382028D01*
X199416070Y-246421020D01*
X199478349Y-246503823D01*
X199547603Y-246593137D01*
X199764542Y-246860854D01*
X199853439Y-246968035D01*
X199930424Y-247058085D01*
X199996350Y-247131496D01*
X200052071Y-247188757D01*
X200098438Y-247230361D01*
X200118380Y-247245445D01*
X200136304Y-247256798D01*
X200152315Y-247264482D01*
X200166522Y-247268558D01*
X200179029Y-247269089D01*
X200189944Y-247266134D01*
X200199374Y-247259756D01*
X200207424Y-247250015D01*
X200214202Y-247236974D01*
X200219813Y-247220693D01*
X200227965Y-247178659D01*
X200232733Y-247124403D01*
X200234968Y-247058417D01*
X200235523Y-246981191D01*
X200233691Y-246942360D01*
X200228306Y-246902053D01*
X200219536Y-246860447D01*
X200207549Y-246817721D01*
X200192513Y-246774052D01*
X200174596Y-246729617D01*
X200130792Y-246639162D01*
X200077479Y-246547776D01*
X200048507Y-246504941D01*
X200941074Y-246504941D01*
X200942095Y-246513984D01*
X200945105Y-246527679D01*
X200950027Y-246545714D01*
X200956784Y-246567780D01*
X200975491Y-246622765D01*
X201000606Y-246690151D01*
X201031509Y-246767459D01*
X201067580Y-246852209D01*
X201087360Y-246896599D01*
X201108198Y-246941918D01*
X201126852Y-246981191D01*
X201130019Y-246987858D01*
X201152744Y-247034108D01*
X201179862Y-247094289D01*
X201193958Y-247122421D01*
X201208452Y-247149277D01*
X201223372Y-247174880D01*
X201238747Y-247199252D01*
X201254607Y-247222416D01*
X201270980Y-247244396D01*
X201287896Y-247265212D01*
X201305384Y-247284888D01*
X201323472Y-247303447D01*
X201342190Y-247320911D01*
X201361567Y-247337303D01*
X201381632Y-247352645D01*
X201402414Y-247366960D01*
X201423942Y-247380270D01*
X201446245Y-247392599D01*
X201469352Y-247403968D01*
X201493292Y-247414401D01*
X201518095Y-247423919D01*
X201543789Y-247432547D01*
X201570404Y-247440305D01*
X201597968Y-247447218D01*
X201626511Y-247453306D01*
X201656062Y-247458594D01*
X201686649Y-247463103D01*
X201751051Y-247469877D01*
X201819948Y-247473809D01*
X201893574Y-247475080D01*
X201951982Y-247476910D01*
X202014395Y-247482280D01*
X202080270Y-247491009D01*
X202149065Y-247502916D01*
X202220236Y-247517821D01*
X202293243Y-247535541D01*
X202367541Y-247555898D01*
X202442588Y-247578709D01*
X202517842Y-247603793D01*
X202592759Y-247630971D01*
X202666799Y-247660060D01*
X202739417Y-247690880D01*
X202810071Y-247723251D01*
X202878219Y-247756991D01*
X202943318Y-247791919D01*
X203004825Y-247827855D01*
X203569271Y-248162999D01*
X203463436Y-247651471D01*
X203451473Y-247575765D01*
X203442145Y-247507191D01*
X203435608Y-247445438D01*
X203432016Y-247390195D01*
X203431525Y-247341155D01*
X203434290Y-247298005D01*
X203436942Y-247278542D01*
X203440465Y-247260436D01*
X203444881Y-247243647D01*
X203450207Y-247228138D01*
X203456463Y-247213869D01*
X203463669Y-247200801D01*
X203471843Y-247188896D01*
X203481006Y-247178115D01*
X203491177Y-247168419D01*
X203502375Y-247159770D01*
X203514619Y-247152128D01*
X203527929Y-247145455D01*
X203542325Y-247139713D01*
X203557824Y-247134861D01*
X203592216Y-247127678D01*
X203631258Y-247123596D01*
X203675106Y-247122304D01*
X203732694Y-247121640D01*
X203783166Y-247119677D01*
X203826643Y-247116461D01*
X203863243Y-247112037D01*
X203893087Y-247106451D01*
X203916294Y-247099747D01*
X203932983Y-247091971D01*
X203943273Y-247083167D01*
X203946057Y-247078394D01*
X203947285Y-247073382D01*
X203946974Y-247068135D01*
X203945138Y-247062660D01*
X203936951Y-247051047D01*
X203922844Y-247038587D01*
X203902936Y-247025327D01*
X203877347Y-247011311D01*
X203846196Y-246996584D01*
X203809604Y-246981192D01*
X203720569Y-246948592D01*
X203611200Y-246913874D01*
X203482452Y-246877399D01*
X203335282Y-246839529D01*
X203170645Y-246800626D01*
X202989497Y-246761051D01*
X202792794Y-246721166D01*
X202581493Y-246681333D01*
X201700100Y-246527266D01*
X201411331Y-246481342D01*
X201205659Y-246454228D01*
X201069439Y-246444479D01*
X201023111Y-246445663D01*
X200989030Y-246450645D01*
X200965492Y-246459245D01*
X200950790Y-246471282D01*
X200943219Y-246486574D01*
X200941074Y-246504941D01*
X200048507Y-246504941D01*
X200016001Y-246456882D01*
X199947702Y-246367899D01*
X199873925Y-246282249D01*
X199796014Y-246201354D01*
X199715313Y-246126634D01*
X199633164Y-246059510D01*
X199550913Y-246001404D01*
X199469902Y-245953737D01*
X199430281Y-245934262D01*
X199391474Y-245917929D01*
X199353649Y-245904917D01*
X199316974Y-245895403D01*
X199281617Y-245889564D01*
X199247745Y-245887578D01*
X199231985Y-245888200D01*
X199217781Y-245890076D01*
X199205141Y-245893217D01*
X199199409Y-245895267D01*
X199194070Y-245897638D01*
X199189125Y-245900332D01*
X199184575Y-245903350D01*
X199180421Y-245906695D01*
X199176663Y-245910368D01*
X199173303Y-245914370D01*
X199170340Y-245918703D01*
X199167777Y-245923368D01*
X199165613Y-245928368D01*
X199163850Y-245933704D01*
X199162487Y-245939378D01*
X199161528Y-245945390D01*
X199160971Y-245951744D01*
X197363701Y-245951744D01*
X197292477Y-245874592D01*
X197110321Y-245681042D01*
X196919407Y-245481885D01*
X196569489Y-245108161D01*
X196452752Y-244980850D01*
X198938515Y-244980850D01*
X198939340Y-244990184D01*
X198942445Y-244998459D01*
X198947880Y-245005635D01*
X199005887Y-245038239D01*
X199110144Y-245082082D01*
X199435707Y-245197183D01*
X199881158Y-245338328D01*
X200403089Y-245492909D01*
X200958094Y-245648317D01*
X201502763Y-245791943D01*
X201993689Y-245911178D01*
X202387463Y-245993413D01*
X202521663Y-246013563D01*
X202640024Y-246027279D01*
X202742830Y-246033915D01*
X202788489Y-246034376D01*
X202830367Y-246032826D01*
X202868497Y-246029182D01*
X202902916Y-246023365D01*
X202933660Y-246015293D01*
X202960764Y-246004886D01*
X202984264Y-245992063D01*
X203004194Y-245976744D01*
X203020592Y-245958847D01*
X203033491Y-245938292D01*
X203042928Y-245914999D01*
X203048938Y-245888886D01*
X203051557Y-245859872D01*
X203050820Y-245827877D01*
X203046763Y-245792821D01*
X203039422Y-245754622D01*
X203028831Y-245713199D01*
X203015026Y-245668473D01*
X202998044Y-245620362D01*
X202977919Y-245568785D01*
X202928383Y-245454912D01*
X202866703Y-245326208D01*
X202793163Y-245182027D01*
X202719687Y-245051888D01*
X202638615Y-244926400D01*
X202550618Y-244806079D01*
X202456368Y-244691443D01*
X202356537Y-244583009D01*
X202251798Y-244481292D01*
X202142821Y-244386810D01*
X202030278Y-244300079D01*
X201914842Y-244221617D01*
X201797183Y-244151940D01*
X201677974Y-244091564D01*
X201557887Y-244041008D01*
X201497724Y-244019573D01*
X201437593Y-244000786D01*
X201377578Y-243984713D01*
X201317764Y-243971417D01*
X201258233Y-243960963D01*
X201199071Y-243953416D01*
X201140361Y-243948840D01*
X201082188Y-243947301D01*
X201022355Y-243949743D01*
X200955753Y-243956913D01*
X200883054Y-243968579D01*
X200804928Y-243984508D01*
X200722048Y-244004469D01*
X200635085Y-244028227D01*
X200544711Y-244055551D01*
X200451599Y-244086208D01*
X200356420Y-244119966D01*
X200259845Y-244156592D01*
X200162547Y-244195853D01*
X200065197Y-244237517D01*
X199968467Y-244281351D01*
X199873029Y-244327123D01*
X199779555Y-244374601D01*
X199688717Y-244423551D01*
X199601138Y-244470008D01*
X199517254Y-244516569D01*
X199437453Y-244562923D01*
X199362121Y-244608761D01*
X199291647Y-244653771D01*
X199226418Y-244697644D01*
X199166822Y-244740071D01*
X199113246Y-244780740D01*
X199066078Y-244819342D01*
X199025705Y-244855567D01*
X198992516Y-244889105D01*
X198966897Y-244919646D01*
X198949236Y-244946879D01*
X198943511Y-244959159D01*
X198939921Y-244970495D01*
X198938515Y-244980850D01*
X196452752Y-244980850D01*
X196226805Y-244734437D01*
X195900245Y-244370635D01*
X195598697Y-244026676D01*
X195331048Y-243712483D01*
X195106187Y-243437978D01*
X194933004Y-243213083D01*
X194868568Y-243122339D01*
X194820385Y-243047719D01*
X194775800Y-242984343D01*
X194728296Y-242920217D01*
X194678260Y-242855832D01*
X194626080Y-242791680D01*
X194572142Y-242728251D01*
X194516835Y-242666037D01*
X194460547Y-242605528D01*
X194403664Y-242547215D01*
X194346574Y-242491590D01*
X194289665Y-242439143D01*
X194233325Y-242390364D01*
X194177940Y-242345746D01*
X194123899Y-242305779D01*
X194071589Y-242270954D01*
X194021398Y-242241762D01*
X193973713Y-242218694D01*
X193933304Y-242200046D01*
X193894764Y-242180513D01*
X193858105Y-242160140D01*
X193823335Y-242138973D01*
X193790464Y-242117057D01*
X193759501Y-242094437D01*
X193730458Y-242071157D01*
X193703342Y-242047264D01*
X193678164Y-242022803D01*
X193654934Y-241997818D01*
X193633661Y-241972356D01*
X193614355Y-241946460D01*
X193597026Y-241920178D01*
X193581683Y-241893552D01*
X193568336Y-241866630D01*
X193556994Y-241839456D01*
X193547668Y-241812075D01*
X193540368Y-241784532D01*
X193535101Y-241756873D01*
X193531880Y-241729143D01*
X193530712Y-241701388D01*
X193531609Y-241673651D01*
X193534579Y-241645979D01*
X193539632Y-241618417D01*
X193546778Y-241591010D01*
X193556026Y-241563804D01*
X193567387Y-241536842D01*
X193580870Y-241510172D01*
X193596485Y-241483837D01*
X193614241Y-241457883D01*
X193634148Y-241432356D01*
X193656216Y-241407300D01*
X193664380Y-241399047D01*
X193672335Y-241387581D01*
X193680076Y-241372995D01*
X193687601Y-241355382D01*
X193701989Y-241311453D01*
X193715472Y-241256543D01*
X193728025Y-241191401D01*
X193739623Y-241116776D01*
X193750238Y-241033418D01*
X193759846Y-240942076D01*
X193768420Y-240843499D01*
X193775934Y-240738437D01*
X193787682Y-240511853D01*
X193794883Y-240268319D01*
X193797329Y-240013829D01*
X193800533Y-239755067D01*
X193809731Y-239511396D01*
X193824304Y-239287981D01*
X193843631Y-239089992D01*
X193867091Y-238922596D01*
X193880178Y-238851985D01*
X193894065Y-238790960D01*
X193908676Y-238740166D01*
X193923933Y-238700251D01*
X193939758Y-238671859D01*
X193956074Y-238655637D01*
X193964750Y-238652164D01*
X193974221Y-238651623D01*
X193984454Y-238653951D01*
X193995417Y-238659082D01*
X194007078Y-238666951D01*
X194019404Y-238677495D01*
X194032363Y-238690649D01*
X194045923Y-238706348D01*
X194060051Y-238724527D01*
X194074716Y-238745122D01*
X194105524Y-238793302D01*
X194138089Y-238850370D01*
X194172152Y-238915810D01*
X194207456Y-238989104D01*
X194243742Y-239069737D01*
X194280751Y-239157190D01*
X194318224Y-239250949D01*
X194355905Y-239350495D01*
X194393533Y-239455312D01*
X194430852Y-239564884D01*
X194467602Y-239678693D01*
X194576089Y-240009043D01*
X194623525Y-240145602D01*
X194667420Y-240264359D01*
X194708525Y-240366270D01*
X194747588Y-240452289D01*
X194785360Y-240523375D01*
X194822589Y-240580481D01*
X194860024Y-240624566D01*
X194879054Y-240642023D01*
X194898416Y-240656584D01*
X194918204Y-240668367D01*
X194938512Y-240677491D01*
X194959434Y-240684077D01*
X194981063Y-240688244D01*
X195003494Y-240690111D01*
X195026818Y-240689799D01*
X195076527Y-240683111D01*
X195130937Y-240669136D01*
X195190800Y-240648831D01*
X195239810Y-240632712D01*
X195306726Y-240617446D01*
X195390437Y-240603058D01*
X195489831Y-240589575D01*
X195731229Y-240565424D01*
X196022029Y-240545201D01*
X196353344Y-240529112D01*
X196716285Y-240517364D01*
X197101963Y-240510164D01*
X197501491Y-240507718D01*
X197901911Y-240511865D01*
X198276467Y-240524358D01*
X198625339Y-240545274D01*
X198948709Y-240574692D01*
X199246758Y-240612687D01*
X199519666Y-240659338D01*
X199767614Y-240714723D01*
X199990783Y-240778918D01*
X200189354Y-240852002D01*
X200363507Y-240934051D01*
X200513425Y-241025144D01*
X200639287Y-241125358D01*
X200741274Y-241234770D01*
X200819567Y-241353457D01*
X200874348Y-241481498D01*
X200905796Y-241618970D01*
X200910857Y-241674471D01*
X200909487Y-241728529D01*
X200901664Y-241781145D01*
X200887365Y-241832325D01*
X200866568Y-241882071D01*
X200839250Y-241930386D01*
X200805389Y-241977273D01*
X200764961Y-242022736D01*
X200717945Y-242066778D01*
X200664317Y-242109401D01*
X200604056Y-242150611D01*
X200537137Y-242190408D01*
X200463540Y-242228798D01*
X200383241Y-242265783D01*
X200296217Y-242301366D01*
X200202447Y-242335550D01*
X200101907Y-242368340D01*
X199994574Y-242399737D01*
X199880427Y-242429745D01*
X199759443Y-242458368D01*
X199631598Y-242485608D01*
X199496871Y-242511470D01*
X199355238Y-242535955D01*
X199206678Y-242559068D01*
X199051167Y-242580811D01*
X198888683Y-242601189D01*
X198719203Y-242620203D01*
X198542705Y-242637858D01*
X198168564Y-242669101D01*
X197766079Y-242694943D01*
X195913990Y-242800778D01*
X196831219Y-243770917D01*
X197748440Y-244741055D01*
X198154133Y-244352994D01*
X198248313Y-244267421D01*
X198345542Y-244185997D01*
X198548527Y-244035667D01*
X198761848Y-243902131D01*
X198984263Y-243785519D01*
X199214533Y-243685960D01*
X199451418Y-243603584D01*
X199693677Y-243538520D01*
X199940070Y-243490896D01*
X200189357Y-243460843D01*
X200440298Y-243448488D01*
X200691651Y-243453962D01*
X200942179Y-243477393D01*
X201190638Y-243518911D01*
X201435791Y-243578645D01*
X201676396Y-243656724D01*
X201911213Y-243753278D01*
X202068181Y-243826951D01*
X202215279Y-243902794D01*
X202352971Y-243981325D01*
X202481724Y-244063060D01*
X202602001Y-244148515D01*
X202714268Y-244238208D01*
X202818991Y-244332655D01*
X202916634Y-244432373D01*
X203007661Y-244537879D01*
X203092540Y-244649689D01*
X203171734Y-244768321D01*
X203245708Y-244894291D01*
X203314929Y-245028115D01*
X203379860Y-245170311D01*
X203440966Y-245321395D01*
X203498714Y-245481885D01*
X203536964Y-245591181D01*
X203573198Y-245688178D01*
X203608709Y-245773806D01*
X203626597Y-245812647D01*
X203644788Y-245848995D01*
X203650762Y-245859872D01*
X203663445Y-245882966D01*
X203682728Y-245914676D01*
X203702799Y-245944242D01*
X203723820Y-245971779D01*
X203745951Y-245997404D01*
X203769355Y-246021233D01*
X203794193Y-246043383D01*
X203820627Y-246063970D01*
X203848818Y-246083109D01*
X203878927Y-246100918D01*
X203911116Y-246117513D01*
X203945546Y-246133009D01*
X203982380Y-246147523D01*
X204021778Y-246161172D01*
X204063901Y-246174072D01*
X204108913Y-246186338D01*
X204208243Y-246209437D01*
X204321061Y-246231399D01*
X204448658Y-246253154D01*
X204592327Y-246275632D01*
X205084933Y-246333579D01*
X205581415Y-246375403D01*
X206078206Y-246401518D01*
X206571742Y-246412336D01*
X207058457Y-246408271D01*
X207534784Y-246389736D01*
X207997159Y-246357145D01*
X208442016Y-246310912D01*
X208865788Y-246251450D01*
X209264911Y-246179171D01*
X209635818Y-246094491D01*
X209974944Y-245997822D01*
X210278724Y-245889577D01*
X210543591Y-245770170D01*
X210765980Y-245640015D01*
X210942325Y-245499524D01*
X211005018Y-245437685D01*
X211033842Y-245407243D01*
X211061045Y-245376879D01*
X211086671Y-245346412D01*
X211110767Y-245315660D01*
X211133376Y-245284443D01*
X211154545Y-245252581D01*
X211174319Y-245219891D01*
X211192743Y-245186194D01*
X211209862Y-245151308D01*
X211225721Y-245115052D01*
X211240366Y-245077247D01*
X211253841Y-245037710D01*
X211266193Y-244996261D01*
X211277466Y-244952720D01*
X211287705Y-244906904D01*
X211296956Y-244858634D01*
X211305264Y-244807729D01*
X211312674Y-244754007D01*
X211319231Y-244697288D01*
X211324981Y-244637391D01*
X211334239Y-244507339D01*
X211340810Y-244362404D01*
X211345056Y-244201139D01*
X211347338Y-244022099D01*
X211348019Y-243823834D01*
X211349397Y-243419413D01*
X211355736Y-243111938D01*
X211361799Y-242991260D01*
X211370343Y-242890865D01*
X211381781Y-242809436D01*
X211396526Y-242745654D01*
X211414992Y-242698202D01*
X211425750Y-242680188D01*
X211437592Y-242665762D01*
X211450572Y-242654760D01*
X211464740Y-242647017D01*
X211480149Y-242642367D01*
X211496849Y-242640648D01*
X211534332Y-242645337D01*
X211577603Y-242659768D01*
X211627076Y-242682623D01*
X211683163Y-242712583D01*
X211727744Y-242738790D01*
X211772128Y-242770938D01*
X211816221Y-242808763D01*
X211859930Y-242852005D01*
X211903161Y-242900401D01*
X211945821Y-242953691D01*
X211987815Y-243011612D01*
X212029050Y-243073903D01*
X212108868Y-243210548D01*
X212184527Y-243361534D01*
X212255276Y-243524767D01*
X212320367Y-243698154D01*
X212379050Y-243879604D01*
X212430575Y-244067021D01*
X212474194Y-244258315D01*
X212509157Y-244451391D01*
X212534716Y-244644157D01*
X212550119Y-244834520D01*
X212554619Y-245020388D01*
X212547466Y-245199666D01*
X212537531Y-245330777D01*
X212526692Y-245447367D01*
X212513631Y-245551038D01*
X212497029Y-245643392D01*
X212486990Y-245685826D01*
X212475571Y-245726031D01*
X212462608Y-245764208D01*
X212447937Y-245800557D01*
X212431392Y-245835278D01*
X212412810Y-245868571D01*
X212392024Y-245900638D01*
X212368872Y-245931677D01*
X212343187Y-245961889D01*
X212314805Y-245991475D01*
X212283562Y-246020634D01*
X212249292Y-246049568D01*
X212211832Y-246078475D01*
X212171015Y-246107557D01*
X212078657Y-246167045D01*
X211970899Y-246229634D01*
X211846423Y-246296925D01*
X211703913Y-246370521D01*
X211542049Y-246452023D01*
X211341234Y-246554275D01*
X211139386Y-246648258D01*
X210942085Y-246732318D01*
X210754913Y-246804803D01*
X210583451Y-246864058D01*
X210433280Y-246908430D01*
X210367923Y-246924519D01*
X210309981Y-246936266D01*
X210260153Y-246943466D01*
X210219135Y-246945912D01*
X210072735Y-246948802D01*
X210006259Y-246952642D01*
X209944215Y-246958280D01*
X209886563Y-246965870D01*
X209833265Y-246975562D01*
X209784283Y-246987509D01*
X209739576Y-247001861D01*
X209699107Y-247018772D01*
X209662836Y-247038392D01*
X209630726Y-247060874D01*
X209602737Y-247086370D01*
X209578830Y-247115030D01*
X209558967Y-247147008D01*
X209543109Y-247182454D01*
X209531217Y-247221521D01*
X209523252Y-247264361D01*
X209519176Y-247311124D01*
X209518950Y-247361964D01*
X209522535Y-247417031D01*
X209529892Y-247476478D01*
X209540983Y-247540456D01*
X209555769Y-247609117D01*
X209574211Y-247682613D01*
X209596270Y-247761096D01*
X209621908Y-247844718D01*
X209683764Y-248027984D01*
X209759469Y-248233625D01*
X209848713Y-248462857D01*
X209941532Y-248702271D01*
X210021588Y-248931219D01*
X210088931Y-249149988D01*
X210117177Y-249257880D01*
X210143613Y-249358860D01*
X210185687Y-249558120D01*
X210215203Y-249748053D01*
X210232213Y-249928942D01*
X210236770Y-250101072D01*
X210228924Y-250264727D01*
X210208727Y-250420192D01*
X210176232Y-250567749D01*
X210131490Y-250707685D01*
X210074552Y-250840282D01*
X210005470Y-250965826D01*
X209924296Y-251084600D01*
X209831081Y-251196889D01*
X209798213Y-251233786D01*
X209769060Y-251268413D01*
X209743614Y-251300773D01*
X209721870Y-251330868D01*
X209703821Y-251358703D01*
X209689460Y-251384280D01*
X209678781Y-251407603D01*
X209671777Y-251428674D01*
X209668443Y-251447498D01*
X209668150Y-251456067D01*
X209668771Y-251464077D01*
X209670307Y-251471525D01*
X209672756Y-251478414D01*
X209676117Y-251484743D01*
X209680390Y-251490513D01*
X209685573Y-251495724D01*
X209691667Y-251500377D01*
X209698670Y-251504472D01*
X209706581Y-251508010D01*
X209725125Y-251513414D01*
X209747293Y-251516592D01*
X209773079Y-251517548D01*
X209802475Y-251516286D01*
X209835476Y-251512808D01*
X209872075Y-251507117D01*
X209912265Y-251499218D01*
X209956040Y-251489112D01*
X210003394Y-251476804D01*
X210054320Y-251462296D01*
X210108812Y-251445591D01*
X210166863Y-251426694D01*
X210228467Y-251405607D01*
X210293617Y-251382334D01*
X210434530Y-251329240D01*
X210589550Y-251267438D01*
X210818480Y-251165697D01*
X211022839Y-251064524D01*
X211116005Y-251013682D01*
X211203271Y-250962420D01*
X211284717Y-250910551D01*
X211360423Y-250857888D01*
X211430471Y-250804242D01*
X211494941Y-250749428D01*
X211553914Y-250693257D01*
X211607471Y-250635542D01*
X211655692Y-250576095D01*
X211698659Y-250514731D01*
X211736451Y-250451260D01*
X211769150Y-250385496D01*
X211796836Y-250317252D01*
X211819590Y-250246340D01*
X211837494Y-250172573D01*
X211850627Y-250095763D01*
X211859070Y-250015724D01*
X211862904Y-249932267D01*
X211862211Y-249845206D01*
X211857070Y-249754353D01*
X211847562Y-249659522D01*
X211833768Y-249560523D01*
X211815769Y-249457172D01*
X211793646Y-249349279D01*
X211737349Y-249119121D01*
X211665523Y-248868550D01*
X211618824Y-248690232D01*
X211600391Y-248605853D01*
X211585458Y-248524316D01*
X211574195Y-248445363D01*
X211566768Y-248368736D01*
X211563347Y-248294176D01*
X211564098Y-248221424D01*
X211569190Y-248150222D01*
X211578791Y-248080313D01*
X211593069Y-248011437D01*
X211612191Y-247943336D01*
X211636326Y-247875752D01*
X211665642Y-247808426D01*
X211700306Y-247741100D01*
X211740487Y-247673516D01*
X211786352Y-247605415D01*
X211838070Y-247536539D01*
X211895807Y-247466630D01*
X211959734Y-247395428D01*
X212030016Y-247322676D01*
X212106822Y-247248116D01*
X212190321Y-247171488D01*
X212280679Y-247092535D01*
X212482649Y-246926619D01*
X212714073Y-246748301D01*
X212976297Y-246555513D01*
X213270664Y-246346189D01*
X213566941Y-246130803D01*
X213868179Y-245899707D01*
X214166111Y-245660343D01*
X214452467Y-245420151D01*
X214718980Y-245186573D01*
X214957381Y-244967051D01*
X215159402Y-244769027D01*
X215316776Y-244599942D01*
X215419370Y-244480918D01*
X215509148Y-244374529D01*
X215586524Y-244279767D01*
X215651912Y-244195625D01*
X215705723Y-244121095D01*
X215748373Y-244055169D01*
X215780275Y-243996840D01*
X215792324Y-243970209D01*
X215801841Y-243945099D01*
X215808877Y-243921384D01*
X215813485Y-243898939D01*
X215815716Y-243877637D01*
X215815621Y-243857353D01*
X215813253Y-243837960D01*
X215808662Y-243819332D01*
X215801901Y-243801344D01*
X215793022Y-243783869D01*
X215782075Y-243766782D01*
X215769113Y-243749957D01*
X215737350Y-243716587D01*
X215698145Y-243682751D01*
X215651913Y-243647443D01*
X215606734Y-243616897D01*
X215584857Y-243603574D01*
X215563338Y-243591597D01*
X215542091Y-243581003D01*
X215521028Y-243571826D01*
X215500062Y-243564103D01*
X215479105Y-243557869D01*
X215458071Y-243553159D01*
X215436873Y-243550009D01*
X215415422Y-243548455D01*
X215393633Y-243548532D01*
X215371417Y-243550276D01*
X215348687Y-243553721D01*
X215325357Y-243558904D01*
X215301339Y-243565861D01*
X215276546Y-243574626D01*
X215250890Y-243585235D01*
X215224285Y-243597724D01*
X215196643Y-243612128D01*
X215167877Y-243628483D01*
X215137900Y-243646824D01*
X215106625Y-243667188D01*
X215073964Y-243689608D01*
X215039830Y-243714122D01*
X215004137Y-243740763D01*
X214927720Y-243800575D01*
X214844018Y-243869326D01*
X214752331Y-243947301D01*
X214631799Y-244047945D01*
X214509072Y-244138125D01*
X214385259Y-244217711D01*
X214261472Y-244286575D01*
X214138821Y-244344586D01*
X214018419Y-244391616D01*
X213901376Y-244427536D01*
X213788803Y-244452216D01*
X213681811Y-244465527D01*
X213630755Y-244467879D01*
X213581511Y-244467341D01*
X213534218Y-244463895D01*
X213489015Y-244457527D01*
X213446040Y-244448219D01*
X213405433Y-244435956D01*
X213367332Y-244420722D01*
X213331876Y-244402501D01*
X213299204Y-244381275D01*
X213269455Y-244357030D01*
X213242769Y-244329749D01*
X213219283Y-244299415D01*
X213199136Y-244266014D01*
X213182468Y-244229527D01*
X213178329Y-244215173D01*
X213175815Y-244198616D01*
X213174896Y-244179927D01*
X213175543Y-244159178D01*
X213181421Y-244111782D01*
X213193216Y-244056996D01*
X213210695Y-243995389D01*
X213233626Y-243927529D01*
X213261777Y-243853984D01*
X213294914Y-243775324D01*
X213332806Y-243692116D01*
X213375219Y-243604929D01*
X213421922Y-243514332D01*
X213472681Y-243420892D01*
X213527265Y-243325178D01*
X213585440Y-243227760D01*
X213646974Y-243129204D01*
X213711635Y-243030080D01*
X213854292Y-242804022D01*
X213984727Y-242581736D01*
X214103122Y-242362448D01*
X214209657Y-242145382D01*
X214304514Y-241929762D01*
X214387872Y-241714814D01*
X214459913Y-241499763D01*
X214520819Y-241283833D01*
X214570768Y-241066249D01*
X214609943Y-240846236D01*
X214638525Y-240623019D01*
X214656694Y-240395823D01*
X214664630Y-240163873D01*
X214662516Y-239926393D01*
X214650531Y-239682609D01*
X214628857Y-239431745D01*
X214538255Y-238793662D01*
X214406993Y-238197026D01*
X218227192Y-238197026D01*
X218227397Y-238202088D01*
X218228010Y-238207344D01*
X218229023Y-238212781D01*
X218230430Y-238218386D01*
X218232225Y-238224145D01*
X218234400Y-238230047D01*
X218236951Y-238236078D01*
X218239869Y-238242225D01*
X218246785Y-238254817D01*
X218255096Y-238267718D01*
X218264751Y-238280826D01*
X218275697Y-238294038D01*
X218287884Y-238307249D01*
X218301259Y-238320357D01*
X218315771Y-238333259D01*
X218331368Y-238345850D01*
X218347999Y-238358028D01*
X218365612Y-238369690D01*
X218384154Y-238380731D01*
X218403576Y-238391049D01*
X218411841Y-238395753D01*
X218420091Y-238399946D01*
X218428308Y-238403636D01*
X218436477Y-238406828D01*
X218444581Y-238409529D01*
X218452605Y-238411746D01*
X218460531Y-238413485D01*
X218468345Y-238414752D01*
X218476029Y-238415554D01*
X218483568Y-238415897D01*
X218490945Y-238415789D01*
X218498145Y-238415234D01*
X218505151Y-238414241D01*
X218511947Y-238412814D01*
X218518517Y-238410961D01*
X218524845Y-238408689D01*
X218530914Y-238406002D01*
X218536709Y-238402909D01*
X218542213Y-238399416D01*
X218547411Y-238395528D01*
X218552285Y-238391253D01*
X218556820Y-238386597D01*
X218561000Y-238381566D01*
X218564809Y-238376166D01*
X218568230Y-238370405D01*
X218571247Y-238364289D01*
X218573844Y-238357824D01*
X218576005Y-238351017D01*
X218577715Y-238343873D01*
X218578955Y-238336401D01*
X218579712Y-238328605D01*
X218579967Y-238320493D01*
X218579712Y-238310625D01*
X218578955Y-238300874D01*
X218577715Y-238291252D01*
X218576005Y-238281772D01*
X218573844Y-238272447D01*
X218571247Y-238263290D01*
X218568230Y-238254313D01*
X218564809Y-238245531D01*
X218561000Y-238236955D01*
X218556820Y-238228599D01*
X218552285Y-238220475D01*
X218547411Y-238212596D01*
X218542213Y-238204976D01*
X218536709Y-238197628D01*
X218530914Y-238190563D01*
X218524845Y-238183796D01*
X218518517Y-238177339D01*
X218511947Y-238171204D01*
X218505151Y-238165406D01*
X218498145Y-238159956D01*
X218490945Y-238154868D01*
X218483568Y-238150155D01*
X218476029Y-238145829D01*
X218468345Y-238141904D01*
X218460531Y-238138392D01*
X218452605Y-238135306D01*
X218444581Y-238132660D01*
X218436477Y-238130466D01*
X218428308Y-238128737D01*
X218420091Y-238127486D01*
X218411841Y-238126726D01*
X218403576Y-238126470D01*
X218384154Y-238126874D01*
X218365612Y-238128054D01*
X218347999Y-238129958D01*
X218331368Y-238132533D01*
X218315771Y-238135728D01*
X218301259Y-238139492D01*
X218287884Y-238143773D01*
X218275697Y-238148519D01*
X218264751Y-238153678D01*
X218255096Y-238159199D01*
X218246785Y-238165029D01*
X218239869Y-238171119D01*
X218234400Y-238177415D01*
X218230430Y-238183866D01*
X218229023Y-238187133D01*
X218228010Y-238190420D01*
X218227397Y-238193720D01*
X218227192Y-238197026D01*
X214406993Y-238197026D01*
X214394350Y-238139559D01*
X214200473Y-237474500D01*
X213959958Y-236803551D01*
X213676138Y-236131775D01*
X213352346Y-235464236D01*
X212991916Y-234805999D01*
X212598180Y-234162128D01*
X212174471Y-233537687D01*
X211724124Y-232937741D01*
X211250471Y-232367354D01*
X210756844Y-231831590D01*
X210246578Y-231335514D01*
X209723005Y-230884189D01*
X209189459Y-230482680D01*
X208649273Y-230136052D01*
X208221482Y-229902487D01*
X207771909Y-229691324D01*
X207301098Y-229502641D01*
X206809590Y-229336514D01*
X206297929Y-229193021D01*
X205766657Y-229072240D01*
X205216315Y-228974248D01*
X204647448Y-228899124D01*
X204060598Y-228846943D01*
X203456307Y-228817785D01*
X202835117Y-228811726D01*
X202197572Y-228828844D01*
X201544214Y-228869216D01*
X200875585Y-228932921D01*
X200192228Y-229020034D01*
X199494686Y-229130635D01*
X198705588Y-229277396D01*
X197947703Y-229441520D01*
X197214208Y-229625487D01*
X196498282Y-229831779D01*
X195793105Y-230062876D01*
X195091856Y-230321258D01*
X194387713Y-230609406D01*
X193673855Y-230929799D01*
X193524390Y-230997806D01*
X193386810Y-231062918D01*
X193261012Y-231125137D01*
X193146894Y-231184462D01*
X193044350Y-231240893D01*
X192953279Y-231294429D01*
X192873577Y-231345073D01*
X192805139Y-231392822D01*
X192747864Y-231437677D01*
X192701648Y-231479639D01*
X192666388Y-231518706D01*
X192641979Y-231554880D01*
X192628319Y-231588160D01*
X192625488Y-231603714D01*
X192625305Y-231618546D01*
X192627757Y-231632653D01*
X192632832Y-231646038D01*
X192640517Y-231658699D01*
X192650799Y-231670636D01*
X192676174Y-231698883D01*
X192699391Y-231730628D01*
X192720464Y-231765751D01*
X192739406Y-231804133D01*
X192756228Y-231845654D01*
X192770945Y-231890195D01*
X192783570Y-231937637D01*
X192794114Y-231987860D01*
X192802591Y-232040743D01*
X192809014Y-232096169D01*
X192815749Y-232214168D01*
X192814423Y-232340901D01*
X192805138Y-232475410D01*
X192787999Y-232616742D01*
X192763108Y-232763938D01*
X192730570Y-232916043D01*
X192690486Y-233072102D01*
X192645970Y-233221087D01*
X192642960Y-233231158D01*
X192588097Y-233392255D01*
X192525998Y-233554437D01*
X192456768Y-233716748D01*
X192378462Y-233887900D01*
X192303257Y-234067321D01*
X192232598Y-234250049D01*
X192167933Y-234431123D01*
X192110710Y-234605582D01*
X192062375Y-234768466D01*
X192024375Y-234914813D01*
X192008476Y-234990524D01*
X191998157Y-235039662D01*
X191953006Y-235302114D01*
X191891602Y-235577407D01*
X191815884Y-235861433D01*
X191727789Y-236150085D01*
X191629255Y-236439253D01*
X191522221Y-236724830D01*
X191408623Y-237002707D01*
X191290400Y-237268776D01*
X191169490Y-237518929D01*
X191047831Y-237749057D01*
X190927360Y-237955052D01*
X190810015Y-238132806D01*
X190697734Y-238278211D01*
X190592456Y-238387158D01*
X190543048Y-238426676D01*
X190496117Y-238455539D01*
X190451906Y-238473233D01*
X190410656Y-238479245D01*
X190380380Y-238480103D01*
X190352413Y-238482798D01*
X190326791Y-238487515D01*
X190314870Y-238490689D01*
X190303549Y-238494438D01*
X190292832Y-238498785D01*
X190282723Y-238503751D01*
X190273227Y-238509362D01*
X190264348Y-238515639D01*
X190256091Y-238522605D01*
X190248461Y-238530284D01*
X190241460Y-238538699D01*
X190235095Y-238547872D01*
X190229370Y-238557827D01*
X190224288Y-238568586D01*
X190219855Y-238580173D01*
X190216075Y-238592611D01*
X190212951Y-238605923D01*
X190210490Y-238620131D01*
X190208694Y-238635258D01*
X190207570Y-238651329D01*
X190207120Y-238668365D01*
X189436331Y-238668365D01*
X189426421Y-238629711D01*
X189409653Y-238580669D01*
X189389990Y-238537002D01*
X189367279Y-238498400D01*
X189341363Y-238464551D01*
X189312089Y-238435147D01*
X189279300Y-238409877D01*
X189242842Y-238388431D01*
X189202560Y-238370499D01*
X189158298Y-238355771D01*
X189113003Y-238345104D01*
X189050604Y-238326660D01*
X188878831Y-238268403D01*
X188651660Y-238184929D01*
X188377775Y-238080164D01*
X187724585Y-237822472D01*
X186988712Y-237526746D01*
X186268550Y-237226610D01*
X185659181Y-236977737D01*
X185225100Y-236804932D01*
X185030796Y-236732999D01*
X185024286Y-236733563D01*
X185017993Y-236735242D01*
X185011926Y-236738013D01*
X185006094Y-236741853D01*
X185000508Y-236746739D01*
X184995177Y-236752648D01*
X184990111Y-236759559D01*
X184985320Y-236767449D01*
X184980813Y-236776295D01*
X184976599Y-236786074D01*
X184972690Y-236796764D01*
X184969093Y-236808342D01*
X184965820Y-236820785D01*
X184962879Y-236834072D01*
X184960281Y-236848179D01*
X184958034Y-236863084D01*
X184956150Y-236878764D01*
X184954637Y-236895196D01*
X184953505Y-236912359D01*
X184952763Y-236930228D01*
X184952423Y-236948783D01*
X184144184Y-236948783D01*
X184166492Y-235868695D01*
X184167872Y-235833417D01*
X185066074Y-235833417D01*
X185806911Y-236203832D01*
X186268658Y-236428280D01*
X186818668Y-236679807D01*
X187414566Y-236940842D01*
X188013978Y-237193815D01*
X188574529Y-237421157D01*
X189053844Y-237605298D01*
X189409550Y-237728667D01*
X189527806Y-237762071D01*
X189599270Y-237773694D01*
X189624002Y-237767403D01*
X189654909Y-237749001D01*
X189691552Y-237719191D01*
X189733492Y-237678678D01*
X189831505Y-237568357D01*
X189945435Y-237423672D01*
X190071767Y-237250254D01*
X190206987Y-237053737D01*
X190347581Y-236839753D01*
X190490036Y-236613935D01*
X190630837Y-236381917D01*
X190766470Y-236149329D01*
X190893422Y-235921806D01*
X191008178Y-235704980D01*
X191107225Y-235504484D01*
X191187048Y-235325950D01*
X191244133Y-235175012D01*
X191263051Y-235111651D01*
X191274967Y-235057302D01*
X191277701Y-235034457D01*
X191279269Y-235012206D01*
X191279642Y-234990524D01*
X191278791Y-234969384D01*
X191276687Y-234948761D01*
X191273301Y-234928629D01*
X191268603Y-234908962D01*
X191262565Y-234889734D01*
X191255157Y-234870919D01*
X191246351Y-234852493D01*
X191236117Y-234834427D01*
X191224427Y-234816698D01*
X191211251Y-234799279D01*
X191196560Y-234782144D01*
X191180326Y-234765267D01*
X191162518Y-234748623D01*
X191143109Y-234732185D01*
X191122068Y-234715929D01*
X191099368Y-234699827D01*
X191074978Y-234683855D01*
X191048870Y-234667986D01*
X191021015Y-234652194D01*
X190991383Y-234636454D01*
X190959946Y-234620740D01*
X190891539Y-234589286D01*
X190815562Y-234557625D01*
X190731781Y-234525550D01*
X190639965Y-234492856D01*
X190347722Y-234397224D01*
X190024292Y-234309060D01*
X189676109Y-234228802D01*
X189309607Y-234156891D01*
X188931219Y-234093764D01*
X188547379Y-234039861D01*
X188164522Y-233995622D01*
X187789080Y-233961486D01*
X187427487Y-233937892D01*
X187086177Y-233925278D01*
X186771584Y-233924086D01*
X186490141Y-233934753D01*
X186248283Y-233957719D01*
X186052443Y-233993423D01*
X185909054Y-234042304D01*
X185859039Y-234071824D01*
X185824551Y-234104802D01*
X185806610Y-234131588D01*
X185786034Y-234165299D01*
X185738009Y-234251426D01*
X185682542Y-234359051D01*
X185621701Y-234484039D01*
X185557553Y-234622256D01*
X185492166Y-234769568D01*
X185427606Y-234921841D01*
X185365940Y-235074941D01*
X185066074Y-235833417D01*
X184167872Y-235833417D01*
X184178016Y-235574066D01*
X184199152Y-235292640D01*
X184229589Y-235025219D01*
X184269019Y-234772602D01*
X184317129Y-234535592D01*
X184373612Y-234314990D01*
X184438156Y-234111595D01*
X184510451Y-233926210D01*
X184590188Y-233759636D01*
X184677056Y-233612672D01*
X184770746Y-233486120D01*
X184870947Y-233380782D01*
X184977349Y-233297458D01*
X185032778Y-233264302D01*
X185089642Y-233236949D01*
X185147901Y-233215501D01*
X185207516Y-233200057D01*
X185268449Y-233190717D01*
X185330662Y-233187581D01*
X185407453Y-233186136D01*
X185479076Y-233181811D01*
X185545532Y-233174617D01*
X185606820Y-233164568D01*
X185662940Y-233151677D01*
X185713893Y-233135956D01*
X185759678Y-233117420D01*
X185800296Y-233096079D01*
X185835746Y-233071949D01*
X185864421Y-233046468D01*
X186653576Y-233046468D01*
X186654960Y-233051581D01*
X186659071Y-233056984D01*
X186665842Y-233062659D01*
X186675211Y-233068586D01*
X186701480Y-233081117D01*
X186737360Y-233094424D01*
X186782336Y-233108351D01*
X186835890Y-233122743D01*
X186897506Y-233137446D01*
X186966666Y-233152303D01*
X187042854Y-233167160D01*
X187125554Y-233181862D01*
X187214248Y-233196254D01*
X187308420Y-233210181D01*
X187407553Y-233223488D01*
X187511130Y-233236020D01*
X187618634Y-233247621D01*
X187729549Y-233258138D01*
X187970328Y-233290864D01*
X188236944Y-233334753D01*
X188520510Y-233387738D01*
X188812137Y-233447752D01*
X189102938Y-233512727D01*
X189384024Y-233580596D01*
X189646506Y-233649292D01*
X189881496Y-233716748D01*
X190259766Y-233831194D01*
X190417430Y-233874489D01*
X190556181Y-233908019D01*
X190677569Y-233931419D01*
X190783143Y-233944329D01*
X190830485Y-233946738D01*
X190874455Y-233946388D01*
X190915247Y-233943234D01*
X190953055Y-233937232D01*
X190988073Y-233928336D01*
X191020493Y-233916501D01*
X191050511Y-233901681D01*
X191078319Y-233883833D01*
X191104112Y-233862909D01*
X191128084Y-233838865D01*
X191150428Y-233811656D01*
X191171337Y-233781237D01*
X191209630Y-233710587D01*
X191244512Y-233626552D01*
X191277534Y-233528771D01*
X191310245Y-233416882D01*
X191327659Y-233353932D01*
X191334370Y-233324728D01*
X191339596Y-233296925D01*
X191343219Y-233270440D01*
X191345125Y-233245189D01*
X191345196Y-233221087D01*
X191343316Y-233198051D01*
X191339369Y-233175997D01*
X191333239Y-233154841D01*
X191324809Y-233134499D01*
X191313963Y-233114887D01*
X191300585Y-233095921D01*
X191284559Y-233077516D01*
X191265768Y-233059590D01*
X191244097Y-233042058D01*
X191219428Y-233024836D01*
X191191645Y-233007840D01*
X191160633Y-232990986D01*
X191126274Y-232974190D01*
X191088454Y-232957368D01*
X191047054Y-232940437D01*
X191001960Y-232923312D01*
X190953055Y-232905909D01*
X190843345Y-232869934D01*
X190716996Y-232831840D01*
X190573076Y-232790956D01*
X190410656Y-232746610D01*
X189941850Y-232607977D01*
X189425086Y-232444540D01*
X188924857Y-232277797D01*
X188505657Y-232129247D01*
X188130178Y-231990100D01*
X187979451Y-231935887D01*
X187849989Y-231892500D01*
X187739233Y-231860379D01*
X187644626Y-231839963D01*
X187602579Y-231834281D01*
X187563611Y-231831690D01*
X187527400Y-231832245D01*
X187493627Y-231836000D01*
X187461974Y-231843012D01*
X187432119Y-231853333D01*
X187403744Y-231867020D01*
X187376528Y-231884128D01*
X187350152Y-231904711D01*
X187324296Y-231928823D01*
X187298640Y-231956521D01*
X187272864Y-231987859D01*
X187219676Y-232061674D01*
X187162173Y-232150707D01*
X187023991Y-232376187D01*
X186947304Y-232494700D01*
X186876818Y-232609905D01*
X186813773Y-232718495D01*
X186759410Y-232817162D01*
X186714968Y-232902601D01*
X186681688Y-232971503D01*
X186660811Y-233020561D01*
X186655410Y-233036615D01*
X186653576Y-233046468D01*
X185864421Y-233046468D01*
X185866028Y-233045040D01*
X185891143Y-233015367D01*
X185911090Y-232982942D01*
X185925869Y-232947779D01*
X185935481Y-232909889D01*
X185939925Y-232869287D01*
X185939201Y-232825984D01*
X185933310Y-232779994D01*
X185922251Y-232731330D01*
X185906025Y-232680005D01*
X185884631Y-232626031D01*
X185858069Y-232569421D01*
X185826340Y-232510190D01*
X185789443Y-232448348D01*
X185747378Y-232383910D01*
X185700146Y-232316888D01*
X185647746Y-232247295D01*
X185590179Y-232175144D01*
X185527444Y-232100448D01*
X185459541Y-232023219D01*
X185386470Y-231943472D01*
X185308232Y-231861218D01*
X185224827Y-231776471D01*
X185065702Y-231612626D01*
X184919213Y-231452115D01*
X184785590Y-231295375D01*
X184665068Y-231142848D01*
X184557878Y-230994971D01*
X184464253Y-230852185D01*
X184384425Y-230714928D01*
X184318628Y-230583639D01*
X184267094Y-230458759D01*
X184237785Y-230365357D01*
X185559963Y-230365357D01*
X185895107Y-230929799D01*
X185928752Y-230985757D01*
X185963353Y-231040939D01*
X186034287Y-231147531D01*
X186105634Y-231246681D01*
X186140753Y-231292561D01*
X186175122Y-231335496D01*
X186208458Y-231375123D01*
X186240476Y-231411081D01*
X186270892Y-231443008D01*
X186299422Y-231470543D01*
X186325782Y-231493324D01*
X186349687Y-231510988D01*
X186370853Y-231523175D01*
X186388996Y-231529523D01*
X186399582Y-231531753D01*
X186411466Y-231531861D01*
X186424603Y-231529896D01*
X186438948Y-231525906D01*
X186454456Y-231519939D01*
X186471082Y-231512044D01*
X186488780Y-231502269D01*
X186507505Y-231490663D01*
X186547855Y-231462151D01*
X186591771Y-231426895D01*
X186638892Y-231385282D01*
X186688854Y-231337701D01*
X186741297Y-231284539D01*
X186795859Y-231226184D01*
X186852178Y-231163022D01*
X186909892Y-231095442D01*
X186968639Y-231023831D01*
X187028058Y-230948577D01*
X187087787Y-230870068D01*
X187147465Y-230788690D01*
X187211866Y-230706085D01*
X187279032Y-230623945D01*
X187348420Y-230542736D01*
X187419488Y-230462922D01*
X187491693Y-230384968D01*
X187564492Y-230309340D01*
X187572701Y-230301132D01*
X189907343Y-230301132D01*
X189907950Y-230315472D01*
X189912278Y-230327824D01*
X189920249Y-230338266D01*
X189931786Y-230346880D01*
X189946811Y-230353747D01*
X189987015Y-230362563D01*
X190040241Y-230365357D01*
X190087724Y-230367188D01*
X190137325Y-230372558D01*
X190188683Y-230381287D01*
X190241437Y-230393194D01*
X190295223Y-230408098D01*
X190349682Y-230425819D01*
X190404451Y-230446175D01*
X190459167Y-230468986D01*
X190513471Y-230494070D01*
X190566999Y-230521248D01*
X190619391Y-230550337D01*
X190670283Y-230581158D01*
X190719316Y-230613529D01*
X190766127Y-230647270D01*
X190810353Y-230682200D01*
X190851635Y-230718137D01*
X190941767Y-230801422D01*
X190985222Y-230838536D01*
X191027817Y-230872615D01*
X191069715Y-230903644D01*
X191111076Y-230931612D01*
X191152063Y-230956505D01*
X191192837Y-230978310D01*
X191233559Y-230997015D01*
X191274390Y-231012606D01*
X191315493Y-231025071D01*
X191357029Y-231034396D01*
X191399159Y-231040569D01*
X191442045Y-231043577D01*
X191485848Y-231043407D01*
X191530730Y-231040046D01*
X191576852Y-231033481D01*
X191624376Y-231023699D01*
X191673463Y-231010687D01*
X191724275Y-230994432D01*
X191776973Y-230974922D01*
X191831718Y-230952144D01*
X191888673Y-230926083D01*
X191947999Y-230896729D01*
X192009856Y-230864067D01*
X192074407Y-230828085D01*
X192212237Y-230746109D01*
X192362778Y-230650697D01*
X192527325Y-230541745D01*
X192749908Y-230400139D01*
X192999131Y-230253907D01*
X193272280Y-230104214D01*
X193566642Y-229952220D01*
X194208153Y-229645986D01*
X194901961Y-229344506D01*
X195626362Y-229057082D01*
X196359651Y-228793015D01*
X196722846Y-228672648D01*
X197080125Y-228561608D01*
X197428773Y-228461059D01*
X197766079Y-228372163D01*
X198213286Y-228270153D01*
X198429564Y-228226629D01*
X198644990Y-228187781D01*
X198862587Y-228153377D01*
X199085377Y-228123185D01*
X199316383Y-228096972D01*
X199558630Y-228074505D01*
X199815139Y-228055553D01*
X200088934Y-228039882D01*
X200700473Y-228017454D01*
X201417433Y-228005362D01*
X202263996Y-228001744D01*
X203243299Y-227997783D01*
X204006387Y-228003124D01*
X204604938Y-228023760D01*
X204858661Y-228041687D01*
X205090628Y-228065687D01*
X205307298Y-228096507D01*
X205515132Y-228134898D01*
X205720588Y-228181609D01*
X205930127Y-228237390D01*
X206387290Y-228379155D01*
X206938297Y-228566190D01*
X207296070Y-228695140D01*
X207673894Y-228840420D01*
X208060400Y-228996861D01*
X208444219Y-229159297D01*
X208813981Y-229322561D01*
X209158320Y-229481483D01*
X209465864Y-229630898D01*
X209725246Y-229765637D01*
X210836491Y-230400636D01*
X210554272Y-229836190D01*
X210423828Y-229597618D01*
X210280701Y-229364841D01*
X210125127Y-229137967D01*
X209957341Y-228917107D01*
X209777578Y-228702371D01*
X209586076Y-228493869D01*
X209383069Y-228291709D01*
X209168793Y-228096003D01*
X208943485Y-227906860D01*
X208707379Y-227724389D01*
X208460712Y-227548701D01*
X208203719Y-227379906D01*
X207936636Y-227218112D01*
X207659700Y-227063431D01*
X207373145Y-226915971D01*
X207077207Y-226775843D01*
X206772123Y-226643156D01*
X206458128Y-226518020D01*
X206135458Y-226400546D01*
X205804348Y-226290842D01*
X205465035Y-226189019D01*
X205117754Y-226095187D01*
X204400231Y-225931932D01*
X203653665Y-225801958D01*
X202879944Y-225706141D01*
X202080954Y-225645361D01*
X201258579Y-225620496D01*
X200854607Y-225619531D01*
X200431205Y-225629315D01*
X200000361Y-225649021D01*
X199574065Y-225677823D01*
X199164305Y-225714892D01*
X198783071Y-225759403D01*
X198442350Y-225810528D01*
X198154133Y-225867440D01*
X197677439Y-225971939D01*
X197212140Y-226087444D01*
X196756814Y-226214629D01*
X196343576Y-226343690D01*
X196310041Y-226354164D01*
X195870399Y-226506721D01*
X195436468Y-226672973D01*
X195006826Y-226853591D01*
X194580051Y-227049246D01*
X194154724Y-227260612D01*
X193729423Y-227488358D01*
X193302726Y-227733158D01*
X192873213Y-227995683D01*
X192439463Y-228276605D01*
X192000053Y-228576596D01*
X191553565Y-228896327D01*
X191098575Y-229236470D01*
X190705834Y-229543255D01*
X190397429Y-229792370D01*
X190273302Y-229896915D01*
X190168399Y-229988981D01*
X190082099Y-230069213D01*
X190013783Y-230138257D01*
X189962831Y-230196759D01*
X189928621Y-230245365D01*
X189910534Y-230284721D01*
X189907343Y-230301132D01*
X187572701Y-230301132D01*
X187637342Y-230236502D01*
X187709702Y-230166920D01*
X187781029Y-230101059D01*
X187850779Y-230039383D01*
X187918411Y-229982358D01*
X187983382Y-229930450D01*
X188045148Y-229884122D01*
X188103168Y-229843841D01*
X188156899Y-229810070D01*
X188205799Y-229783277D01*
X188259021Y-229759789D01*
X188319038Y-229729326D01*
X188385205Y-229692351D01*
X188456876Y-229649330D01*
X188533404Y-229600729D01*
X188614144Y-229547011D01*
X188698450Y-229488642D01*
X188785675Y-229426088D01*
X188966301Y-229290282D01*
X189150855Y-229143314D01*
X189334168Y-228988904D01*
X189423745Y-228910071D01*
X189511074Y-228830773D01*
X189704826Y-228664099D01*
X189936612Y-228473034D01*
X190198163Y-228264606D01*
X190481212Y-228045843D01*
X190777491Y-227823772D01*
X191078731Y-227605423D01*
X191376663Y-227397822D01*
X191663021Y-227207997D01*
X192985935Y-226343690D01*
X191980518Y-225885079D01*
X191777085Y-225796024D01*
X191580060Y-225715030D01*
X191394197Y-225643544D01*
X191224251Y-225583014D01*
X191074975Y-225534886D01*
X190951125Y-225500608D01*
X190900220Y-225489114D01*
X190857454Y-225481625D01*
X190823422Y-225478323D01*
X190798717Y-225479386D01*
X190790195Y-225484128D01*
X190781182Y-225491689D01*
X190771703Y-225501996D01*
X190761785Y-225514973D01*
X190740736Y-225548644D01*
X190718239Y-225592108D01*
X190694502Y-225644770D01*
X190669731Y-225706037D01*
X190644134Y-225775313D01*
X190617916Y-225852005D01*
X190591285Y-225935519D01*
X190564447Y-226025259D01*
X190537610Y-226120633D01*
X190510979Y-226221044D01*
X190484761Y-226325900D01*
X190459164Y-226434606D01*
X190434393Y-226546568D01*
X190410656Y-226661191D01*
X190361358Y-226896008D01*
X190307306Y-227120904D01*
X190250359Y-227330917D01*
X190192378Y-227521086D01*
X190135223Y-227686451D01*
X190080756Y-227822050D01*
X190055111Y-227877138D01*
X190030836Y-227922923D01*
X190008162Y-227958787D01*
X189987324Y-227984109D01*
X189977726Y-227992374D01*
X189965526Y-228000623D01*
X189933651Y-228017009D01*
X189892371Y-228033136D01*
X189842358Y-228048875D01*
X189784282Y-228064098D01*
X189718817Y-228078675D01*
X189646634Y-228092477D01*
X189568405Y-228105375D01*
X189484801Y-228117239D01*
X189396495Y-228127940D01*
X189304158Y-228137350D01*
X189208462Y-228145338D01*
X189110078Y-228151776D01*
X189009679Y-228156535D01*
X188907937Y-228159485D01*
X188805523Y-228160497D01*
X187800106Y-228160497D01*
X187711910Y-229095357D01*
X187690645Y-229286935D01*
X187665814Y-229458849D01*
X187636333Y-229612109D01*
X187619509Y-229682058D01*
X187601116Y-229747721D01*
X187581017Y-229809224D01*
X187559077Y-229866693D01*
X187535161Y-229920254D01*
X187509132Y-229970033D01*
X187480855Y-230016156D01*
X187450195Y-230058748D01*
X187417016Y-230097937D01*
X187381182Y-230133847D01*
X187342557Y-230166605D01*
X187301006Y-230196337D01*
X187256393Y-230223168D01*
X187208583Y-230247225D01*
X187157439Y-230268634D01*
X187102827Y-230287520D01*
X187044611Y-230304010D01*
X186982654Y-230318229D01*
X186916822Y-230330303D01*
X186846978Y-230340359D01*
X186694713Y-230354919D01*
X186524775Y-230362916D01*
X186336079Y-230365357D01*
X185559963Y-230365357D01*
X184237785Y-230365357D01*
X184230055Y-230340725D01*
X184207743Y-230229978D01*
X184202183Y-230177474D01*
X184200392Y-230126957D01*
X184202400Y-230078480D01*
X184208235Y-230032100D01*
X184217926Y-229987871D01*
X184231502Y-229945847D01*
X184248993Y-229906085D01*
X184270428Y-229868638D01*
X184295836Y-229833562D01*
X184325245Y-229800912D01*
X184336291Y-229790941D01*
X184349536Y-229780883D01*
X184382328Y-229760570D01*
X184423027Y-229740102D01*
X184471038Y-229719609D01*
X184525767Y-229699218D01*
X184586620Y-229679060D01*
X184653003Y-229659263D01*
X184724320Y-229639958D01*
X184799979Y-229621272D01*
X184879384Y-229603336D01*
X184961942Y-229586279D01*
X185047058Y-229570229D01*
X185134138Y-229555315D01*
X185222588Y-229541668D01*
X185311812Y-229529416D01*
X185401218Y-229518689D01*
X186300800Y-229430493D01*
X186300800Y-228601468D01*
X186304293Y-228403297D01*
X186315511Y-228224919D01*
X186324364Y-228142877D01*
X186335565Y-228065453D01*
X186349254Y-227992539D01*
X186365568Y-227924024D01*
X186384646Y-227859797D01*
X186406629Y-227799750D01*
X186431653Y-227743773D01*
X186459859Y-227691755D01*
X186491386Y-227643587D01*
X186526371Y-227599159D01*
X186564955Y-227558362D01*
X186607275Y-227521085D01*
X186653471Y-227487218D01*
X186703682Y-227456653D01*
X186758046Y-227429278D01*
X186816702Y-227404985D01*
X186879790Y-227383663D01*
X186947448Y-227365203D01*
X187019815Y-227349494D01*
X187097030Y-227336428D01*
X187179232Y-227325893D01*
X187266559Y-227317781D01*
X187457147Y-227308385D01*
X187669904Y-227307360D01*
X187905941Y-227313828D01*
X188928989Y-227349107D01*
X189105381Y-226696469D01*
X189264132Y-226054853D01*
X189348467Y-225716682D01*
X189422878Y-225426469D01*
X189445941Y-225343115D01*
X189472195Y-225265036D01*
X189501731Y-225192234D01*
X189534638Y-225124712D01*
X189571008Y-225062475D01*
X189610930Y-225005525D01*
X189654496Y-224953865D01*
X189701795Y-224907499D01*
X189752918Y-224866429D01*
X189807955Y-224830660D01*
X189866998Y-224800194D01*
X189930136Y-224775035D01*
X189997459Y-224755185D01*
X190069059Y-224740648D01*
X190145026Y-224731428D01*
X190225449Y-224727527D01*
X190310421Y-224728949D01*
X190400030Y-224735696D01*
X190494367Y-224747773D01*
X190593524Y-224765182D01*
X190697589Y-224787927D01*
X190806655Y-224816011D01*
X190920810Y-224849436D01*
X191040146Y-224888207D01*
X191164753Y-224932326D01*
X191294722Y-224981797D01*
X191430142Y-225036623D01*
X191571105Y-225096807D01*
X191717701Y-225162353D01*
X191870019Y-225233263D01*
X192028152Y-225309541D01*
X192192188Y-225391191D01*
X193568020Y-226096745D01*
X194643993Y-225655774D01*
X195163045Y-225457349D01*
X195694163Y-225278846D01*
X196236184Y-225120341D01*
X196787947Y-224981912D01*
X197348288Y-224863638D01*
X197916044Y-224765595D01*
X198490053Y-224687860D01*
X199069152Y-224630512D01*
X199652178Y-224593628D01*
X200237969Y-224577286D01*
X200825362Y-224581562D01*
X201413195Y-224606535D01*
X202000304Y-224652281D01*
X202585526Y-224718880D01*
X203167700Y-224806407D01*
X203745663Y-224914941D01*
X204460210Y-225079134D01*
X205126181Y-225256142D01*
X205442824Y-225350357D01*
X205749571Y-225448861D01*
X206047171Y-225552016D01*
X206336373Y-225660183D01*
X206617928Y-225773725D01*
X206892583Y-225893002D01*
X207161089Y-226018378D01*
X207424195Y-226150213D01*
X207682650Y-226288869D01*
X207937204Y-226434708D01*
X208188605Y-226588093D01*
X208437603Y-226749383D01*
X208644886Y-226895679D01*
X208855631Y-227055721D01*
X209068340Y-227227959D01*
X209281514Y-227410842D01*
X209493654Y-227602820D01*
X209703263Y-227802343D01*
X209908840Y-228007860D01*
X210108889Y-228217822D01*
X210301909Y-228430677D01*
X210486403Y-228644876D01*
X210660871Y-228858868D01*
X210823816Y-229071104D01*
X210973739Y-229280032D01*
X211109141Y-229484102D01*
X211228523Y-229681764D01*
X211330387Y-229871469D01*
X211372369Y-229956653D01*
X211412413Y-230033698D01*
X211450649Y-230102733D01*
X211487206Y-230163888D01*
X211522212Y-230217291D01*
X211555797Y-230263072D01*
X211588090Y-230301360D01*
X211619221Y-230332283D01*
X211634390Y-230345024D01*
X211649318Y-230355973D01*
X211664019Y-230365145D01*
X211678510Y-230372556D01*
X211692808Y-230378224D01*
X211706928Y-230382164D01*
X211720886Y-230384392D01*
X211734699Y-230384924D01*
X211748383Y-230383777D01*
X211761953Y-230380967D01*
X211775427Y-230376509D01*
X211788820Y-230370421D01*
X211802149Y-230362717D01*
X211815428Y-230353415D01*
X211841907Y-230330079D01*
X211853365Y-230320160D01*
X211867836Y-230310253D01*
X211905470Y-230290530D01*
X211954111Y-230271014D01*
X212013061Y-230251807D01*
X212081623Y-230233015D01*
X212159099Y-230214738D01*
X212244792Y-230197082D01*
X212338004Y-230180150D01*
X212438037Y-230164044D01*
X212544194Y-230148868D01*
X212655777Y-230134726D01*
X212772088Y-230121720D01*
X212892430Y-230109955D01*
X213016105Y-230099534D01*
X213142416Y-230090559D01*
X213270664Y-230083135D01*
X213665471Y-230067666D01*
X213830783Y-230064414D01*
X213978422Y-230065220D01*
X214111178Y-230070883D01*
X214231842Y-230082204D01*
X214343205Y-230099985D01*
X214448056Y-230125027D01*
X214549187Y-230158130D01*
X214649387Y-230200096D01*
X214751448Y-230251725D01*
X214858160Y-230313819D01*
X214972313Y-230387178D01*
X214991908Y-230400636D01*
X215096698Y-230472604D01*
G37*
D11*
G36*
X461440879Y-368774432D02*
G01*
X461021758Y-363897391D01*
X459222177Y-363897391D01*
X459641298Y-368774432D01*
X461440879Y-368774432D01*
G37*
G36*
X460973398Y-364460126D02*
G01*
X460923573Y-363897391D01*
X455407592Y-363897391D01*
X455457418Y-364460126D01*
X460973398Y-364460126D01*
G37*
G36*
X461301661Y-368774432D02*
G01*
X461251835Y-368211696D01*
X455768095Y-368211696D01*
X455817920Y-368774432D01*
X461301661Y-368774432D01*
G37*
G36*
X457601381Y-368774432D02*
G01*
X457346392Y-365866965D01*
X455546811Y-365866965D01*
X455801800Y-368774432D01*
X457601381Y-368774432D01*
G37*
G36*
X458446950Y-366429700D02*
G01*
X458397125Y-365866965D01*
X455669909Y-365866965D01*
X455719735Y-366429700D01*
X458446950Y-366429700D01*
G37*
G36*
X454544438Y-366429700D02*
G01*
X454494612Y-365866965D01*
X449110523Y-365866965D01*
X449160349Y-366429700D01*
X454544438Y-366429700D01*
G37*
G36*
X454881493Y-368740726D02*
G01*
X454462372Y-363897391D01*
X452662791Y-363897391D01*
X453081912Y-368740726D01*
X454881493Y-368740726D01*
G37*
G36*
X454380307Y-364460126D02*
G01*
X454330481Y-363897391D01*
X448946392Y-363897391D01*
X448996218Y-364460126D01*
X454380307Y-364460126D01*
G37*
G36*
X450845624Y-366429700D02*
G01*
X450622875Y-363897391D01*
X448823294Y-363897391D01*
X449046043Y-366429700D01*
X450845624Y-366429700D01*
G37*
G36*
X451025876Y-368727537D02*
G01*
X451858255Y-365960754D01*
X450052812Y-365960754D01*
X449221898Y-368727537D01*
X451025876Y-368727537D01*
G37*
G36*
X448322107Y-368774432D02*
G01*
X447902987Y-363897391D01*
X446103405Y-363897391D01*
X446522526Y-368774432D01*
X448322107Y-368774432D01*
G37*
G36*
X447854626Y-364460126D02*
G01*
X447804801Y-363897391D01*
X442288820Y-363897391D01*
X442338646Y-364460126D01*
X447854626Y-364460126D01*
G37*
G36*
X448182889Y-368774432D02*
G01*
X448133063Y-368211696D01*
X442649323Y-368211696D01*
X442699148Y-368774432D01*
X448182889Y-368774432D01*
G37*
G36*
X444482610Y-368774432D02*
G01*
X444063489Y-363897391D01*
X442263908Y-363897391D01*
X442683028Y-368774432D01*
X444482610Y-368774432D01*
G37*
G36*
X441762721Y-368774432D02*
G01*
X441343601Y-363931096D01*
X439544019Y-363931096D01*
X439963140Y-368774432D01*
X441762721Y-368774432D01*
G37*
G36*
X441623503Y-368774432D02*
G01*
X441573677Y-368211696D01*
X436089937Y-368211696D01*
X436139763Y-368774432D01*
X441623503Y-368774432D01*
G37*
G36*
X437923224Y-368774432D02*
G01*
X437504103Y-363931096D01*
X435704522Y-363931096D01*
X436123642Y-368774432D01*
X437923224Y-368774432D01*
G37*
G36*
X435203335Y-368759777D02*
G01*
X434784215Y-363916442D01*
X432984633Y-363916442D01*
X433403754Y-368759777D01*
X435203335Y-368759777D01*
G37*
G36*
X430773259Y-368759777D02*
G01*
X430354138Y-363916442D01*
X428554557Y-363916442D01*
X428973677Y-368759777D01*
X430773259Y-368759777D01*
G37*
G36*
X430745415Y-368759777D02*
G01*
X434442763Y-363916442D01*
X433012477Y-363916442D01*
X429315129Y-368759777D01*
X430745415Y-368759777D01*
G37*
G36*
X424424899Y-368774432D02*
G01*
X423866559Y-367067174D01*
X423734668Y-365597321D01*
X423988192Y-363897391D01*
X422187146Y-363897391D01*
X421935087Y-365594390D01*
X422065513Y-367084760D01*
X422620921Y-368774432D01*
X424424899Y-368774432D01*
G37*
G36*
X427914152Y-368774432D02*
G01*
X427487704Y-363897391D01*
X425686657Y-363897391D01*
X426114571Y-368774432D01*
X427914152Y-368774432D01*
G37*
G36*
X427537529Y-364460126D02*
G01*
X427487704Y-363897391D01*
X422471444Y-363897391D01*
X422521270Y-364460126D01*
X427537529Y-364460126D01*
G37*
G36*
X427914152Y-368774432D02*
G01*
X427864326Y-368211696D01*
X423891472Y-368211696D01*
X423941298Y-368774432D01*
X427914152Y-368774432D01*
G37*
G36*
X416829435Y-366429700D02*
G01*
X416779609Y-365866965D01*
X411395520Y-365866965D01*
X411445345Y-366429700D01*
X416829435Y-366429700D01*
G37*
G36*
X416665303Y-364460126D02*
G01*
X416615478Y-363897391D01*
X411231388Y-363897391D01*
X411281214Y-364460126D01*
X416665303Y-364460126D01*
G37*
G36*
X416945206Y-366429700D02*
G01*
X416722456Y-363897391D01*
X414922875Y-363897391D01*
X415144159Y-366429700D01*
X416945206Y-366429700D01*
G37*
G36*
X413326992Y-368774432D02*
G01*
X413072003Y-365866965D01*
X411272421Y-365866965D01*
X411527411Y-368774432D01*
X413326992Y-368774432D01*
G37*
G36*
X417167955Y-368774432D02*
G01*
X417107871Y-368211696D01*
X411477585Y-368211696D01*
X411527411Y-368774432D01*
X417167955Y-368774432D01*
G37*
G36*
X413014850Y-365172338D02*
G01*
X412900544Y-363897391D01*
X411099497Y-363897391D01*
X411215268Y-365172338D01*
X413014850Y-365172338D01*
G37*
G36*
X410607104Y-368774432D02*
G01*
X410187983Y-363931096D01*
X408388402Y-363931096D01*
X408807522Y-368774432D01*
X410607104Y-368774432D01*
G37*
G36*
X410467885Y-368774432D02*
G01*
X410418060Y-368211696D01*
X404934319Y-368211696D01*
X404984145Y-368774432D01*
X410467885Y-368774432D01*
G37*
G36*
X403161116Y-368774432D02*
G01*
X402741996Y-363897391D01*
X400942414Y-363897391D01*
X401361535Y-368774432D01*
X403161116Y-368774432D01*
G37*
G36*
X403448346Y-364460126D02*
G01*
X403398520Y-363897391D01*
X400310802Y-363897391D01*
X400360628Y-364460126D01*
X403448346Y-364460126D01*
G37*
G36*
X403810314Y-368774432D02*
G01*
X403760488Y-368211696D01*
X400671305Y-368211696D01*
X400721130Y-368774432D01*
X403810314Y-368774432D01*
G37*
G36*
X396311570Y-368774432D02*
G01*
X395753231Y-367067174D01*
X395621340Y-365597321D01*
X395874864Y-363897391D01*
X394073817Y-363897391D01*
X393821758Y-365594390D01*
X393952184Y-367084760D01*
X394507592Y-368774432D01*
X396311570Y-368774432D01*
G37*
G36*
X399800823Y-368774432D02*
G01*
X399374375Y-363897391D01*
X397573328Y-363897391D01*
X398001242Y-368774432D01*
X399800823Y-368774432D01*
G37*
G36*
X399424201Y-364460126D02*
G01*
X399374375Y-363897391D01*
X394358116Y-363897391D01*
X394407941Y-364460126D01*
X399424201Y-364460126D01*
G37*
G36*
X399800823Y-368774432D02*
G01*
X399750998Y-368211696D01*
X395778144Y-368211696D01*
X395827969Y-368774432D01*
X399800823Y-368774432D01*
G37*
G36*
X393250230Y-368774432D02*
G01*
X392831109Y-363897391D01*
X391031528Y-363897391D01*
X391450649Y-368774432D01*
X393250230Y-368774432D01*
G37*
G36*
X392782749Y-364460126D02*
G01*
X392732924Y-363897391D01*
X387216943Y-363897391D01*
X387266769Y-364460126D01*
X392782749Y-364460126D01*
G37*
G36*
X393111012Y-368774432D02*
G01*
X393061186Y-368211696D01*
X387577446Y-368211696D01*
X387627271Y-368774432D01*
X393111012Y-368774432D01*
G37*
G36*
X392913175Y-366429700D02*
G01*
X392863349Y-365866965D01*
X387479260Y-365866965D01*
X387529086Y-366429700D01*
X392913175Y-366429700D01*
G37*
G36*
X386353789Y-366429700D02*
G01*
X386303963Y-365866965D01*
X380919874Y-365866965D01*
X380969700Y-366429700D01*
X386353789Y-366429700D01*
G37*
G36*
X386690844Y-368740726D02*
G01*
X386271723Y-363897391D01*
X384472142Y-363897391D01*
X384891263Y-368740726D01*
X386690844Y-368740726D01*
G37*
G36*
X386189658Y-364460126D02*
G01*
X386139832Y-363897391D01*
X380755743Y-363897391D01*
X380805569Y-364460126D01*
X386189658Y-364460126D01*
G37*
G36*
X382654975Y-366429700D02*
G01*
X382432226Y-363897391D01*
X380632645Y-363897391D01*
X380855394Y-366429700D01*
X382654975Y-366429700D01*
G37*
G36*
X382835227Y-368727537D02*
G01*
X383667606Y-365960754D01*
X381862163Y-365960754D01*
X381031249Y-368727537D01*
X382835227Y-368727537D01*
G37*
%TO.C,J4*%
D12*
X190199200Y-273602200D02*
X215699200Y-273602200D01*
X215699200Y-355602200D01*
X190199200Y-355602200D01*
X190199200Y-273602200D01*
G36*
X190199200Y-273602200D02*
G01*
X215699200Y-273602200D01*
X215699200Y-355602200D01*
X190199200Y-355602200D01*
X190199200Y-273602200D01*
G37*
X219199200Y-273602200D02*
X244699200Y-273602200D01*
X244699200Y-355602200D01*
X219199200Y-355602200D01*
X219199200Y-273602200D01*
G36*
X219199200Y-273602200D02*
G01*
X244699200Y-273602200D01*
X244699200Y-355602200D01*
X219199200Y-355602200D01*
X219199200Y-273602200D01*
G37*
X248199200Y-273602200D02*
X273699200Y-273602200D01*
X273699200Y-355602200D01*
X248199200Y-355602200D01*
X248199200Y-273602200D01*
G36*
X248199200Y-273602200D02*
G01*
X273699200Y-273602200D01*
X273699200Y-355602200D01*
X248199200Y-355602200D01*
X248199200Y-273602200D01*
G37*
X277199200Y-273602200D02*
X302699200Y-273602200D01*
X302699200Y-355602200D01*
X277199200Y-355602200D01*
X277199200Y-273602200D01*
G36*
X277199200Y-273602200D02*
G01*
X302699200Y-273602200D01*
X302699200Y-355602200D01*
X277199200Y-355602200D01*
X277199200Y-273602200D01*
G37*
X306199200Y-273602200D02*
X331699200Y-273602200D01*
X331699200Y-355602200D01*
X306199200Y-355602200D01*
X306199200Y-273602200D01*
G36*
X306199200Y-273602200D02*
G01*
X331699200Y-273602200D01*
X331699200Y-355602200D01*
X306199200Y-355602200D01*
X306199200Y-273602200D01*
G37*
X335199200Y-273602200D02*
X360699200Y-273602200D01*
X360699200Y-355602200D01*
X335199200Y-355602200D01*
X335199200Y-273602200D01*
G36*
X335199200Y-273602200D02*
G01*
X360699200Y-273602200D01*
X360699200Y-355602200D01*
X335199200Y-355602200D01*
X335199200Y-273602200D01*
G37*
X364199200Y-273602200D02*
X389699200Y-273602200D01*
X389699200Y-355602200D01*
X364199200Y-355602200D01*
X364199200Y-273602200D01*
G36*
X364199200Y-273602200D02*
G01*
X389699200Y-273602200D01*
X389699200Y-355602200D01*
X364199200Y-355602200D01*
X364199200Y-273602200D01*
G37*
X393199200Y-273602200D02*
X418699200Y-273602200D01*
X418699200Y-355602200D01*
X393199200Y-355602200D01*
X393199200Y-273602200D01*
G36*
X393199200Y-273602200D02*
G01*
X418699200Y-273602200D01*
X418699200Y-355602200D01*
X393199200Y-355602200D01*
X393199200Y-273602200D01*
G37*
X422199200Y-273602200D02*
X447699200Y-273602200D01*
X447699200Y-355602200D01*
X422199200Y-355602200D01*
X422199200Y-273602200D01*
G36*
X422199200Y-273602200D02*
G01*
X447699200Y-273602200D01*
X447699200Y-355602200D01*
X422199200Y-355602200D01*
X422199200Y-273602200D01*
G37*
X451199200Y-273602200D02*
X476699200Y-273602200D01*
X476699200Y-355602200D01*
X451199200Y-355602200D01*
X451199200Y-273602200D01*
G36*
X451199200Y-273602200D02*
G01*
X476699200Y-273602200D01*
X476699200Y-355602200D01*
X451199200Y-355602200D01*
X451199200Y-273602200D01*
G37*
X480199200Y-273602200D02*
X505699200Y-273602200D01*
X505699200Y-355602200D01*
X480199200Y-355602200D01*
X480199200Y-273602200D01*
G36*
X480199200Y-273602200D02*
G01*
X505699200Y-273602200D01*
X505699200Y-355602200D01*
X480199200Y-355602200D01*
X480199200Y-273602200D01*
G37*
X509199200Y-273602200D02*
X534699200Y-273602200D01*
X534699200Y-355602200D01*
X509199200Y-355602200D01*
X509199200Y-273602200D01*
G36*
X509199200Y-273602200D02*
G01*
X534699200Y-273602200D01*
X534699200Y-355602200D01*
X509199200Y-355602200D01*
X509199200Y-273602200D01*
G37*
X538199200Y-273602200D02*
X563699200Y-273602200D01*
X563699200Y-355602200D01*
X538199200Y-355602200D01*
X538199200Y-273602200D01*
G36*
X538199200Y-273602200D02*
G01*
X563699200Y-273602200D01*
X563699200Y-355602200D01*
X538199200Y-355602200D01*
X538199200Y-273602200D01*
G37*
X567199200Y-273602200D02*
X592699200Y-273602200D01*
X592699200Y-355602200D01*
X567199200Y-355602200D01*
X567199200Y-273602200D01*
G36*
X567199200Y-273602200D02*
G01*
X592699200Y-273602200D01*
X592699200Y-355602200D01*
X567199200Y-355602200D01*
X567199200Y-273602200D01*
G37*
X596199200Y-273602200D02*
X621699200Y-273602200D01*
X621699200Y-355602200D01*
X596199200Y-355602200D01*
X596199200Y-273602200D01*
G36*
X596199200Y-273602200D02*
G01*
X621699200Y-273602200D01*
X621699200Y-355602200D01*
X596199200Y-355602200D01*
X596199200Y-273602200D01*
G37*
X625199200Y-273602200D02*
X650699200Y-273602200D01*
X650699200Y-355602200D01*
X625199200Y-355602200D01*
X625199200Y-273602200D01*
G36*
X625199200Y-273602200D02*
G01*
X650699200Y-273602200D01*
X650699200Y-355602200D01*
X625199200Y-355602200D01*
X625199200Y-273602200D01*
G37*
%TD*%
M02*
