%TF.GenerationSoftware,KiCad,Pcbnew,8.0.4*%
%TF.CreationDate,2024-12-24T01:10:10-06:00*%
%TF.ProjectId,openithm-new,6f70656e-6974-4686-9d2d-6e65772e6b69,rev?*%
%TF.SameCoordinates,Original*%
%TF.FileFunction,Copper,L2,Bot*%
%TF.FilePolarity,Positive*%
%FSLAX46Y46*%
G04 Gerber Fmt 4.6, Leading zero omitted, Abs format (unit mm)*
G04 Created by KiCad (PCBNEW 8.0.4) date 2024-12-24 01:10:10*
%MOMM*%
%LPD*%
G01*
G04 APERTURE LIST*
%TA.AperFunction,ComponentPad*%
%ADD10C,4.400000*%
%TD*%
%TA.AperFunction,ComponentPad*%
%ADD11O,1.150000X1.800000*%
%TD*%
%TA.AperFunction,ComponentPad*%
%ADD12O,1.450000X2.000000*%
%TD*%
%TA.AperFunction,ComponentPad*%
%ADD13R,1.700000X1.700000*%
%TD*%
%TA.AperFunction,ComponentPad*%
%ADD14O,1.700000X1.700000*%
%TD*%
%TA.AperFunction,ViaPad*%
%ADD15C,1.000000*%
%TD*%
%TA.AperFunction,ViaPad*%
%ADD16C,0.700000*%
%TD*%
%TA.AperFunction,Conductor*%
%ADD17C,0.254000*%
%TD*%
G04 APERTURE END LIST*
D10*
%TO.P,H4,1,1*%
%TO.N,unconnected-(H4-Pad1)*%
X190500000Y-263539400D03*
%TD*%
%TO.P,H3,1,1*%
%TO.N,unconnected-(H3-Pad1)*%
X190500000Y-363539400D03*
%TD*%
%TO.P,H2,1,1*%
%TO.N,unconnected-(H2-Pad1)*%
X650500000Y-363539400D03*
%TD*%
%TO.P,H1,1,1*%
%TO.N,unconnected-(H1-Pad1)*%
X650500000Y-263539400D03*
%TD*%
D11*
%TO.P,J2,6,Shield*%
%TO.N,unconnected-(J2-Shield-Pad6)_1*%
X424400398Y-220373999D03*
D12*
%TO.N,unconnected-(J2-Shield-Pad6)_2*%
X424250401Y-224174002D03*
%TO.N,unconnected-(J2-Shield-Pad6)*%
X416800402Y-224173999D03*
D11*
%TO.N,unconnected-(J2-Shield-Pad6)_3*%
X416650401Y-220373998D03*
%TD*%
D13*
%TO.P,J3,1,Pin_1*%
%TO.N,+3.3V*%
X377558599Y-227918199D03*
D14*
%TO.P,J3,2,Pin_2*%
%TO.N,SWDIO*%
X380098602Y-227918200D03*
%TO.P,J3,3,Pin_3*%
%TO.N,SWCLK*%
X382638599Y-227918199D03*
%TO.P,J3,4,Pin_4*%
%TO.N,GND*%
X385178599Y-227918199D03*
%TD*%
D15*
%TO.N,+3.3V*%
X430914000Y-233957200D03*
X411508400Y-258036400D03*
X422354200Y-242212200D03*
X420830200Y-245895200D03*
D16*
X403939200Y-241653400D03*
D15*
X418645800Y-242237600D03*
D16*
X400637200Y-241653400D03*
D15*
X420296800Y-242212200D03*
X429263000Y-233982600D03*
X429288400Y-235201800D03*
X410543200Y-257045800D03*
%TO.N,GND*%
X425554600Y-246250800D03*
X425808600Y-255369400D03*
X433200000Y-249222600D03*
X435282800Y-232763400D03*
D16*
X418442600Y-250822800D03*
D15*
X432565000Y-238580000D03*
X427713600Y-231264800D03*
X408765200Y-240129400D03*
X407800000Y-258087200D03*
X425033200Y-231518800D03*
X405285400Y-244777600D03*
X423065400Y-258849200D03*
X421770000Y-256893400D03*
X415420000Y-241882000D03*
X414937400Y-236116200D03*
X412270400Y-249629000D03*
X425554600Y-241907400D03*
D16*
X419230000Y-225601200D03*
D15*
X393271200Y-244574400D03*
X411508400Y-253870800D03*
X395328600Y-236852800D03*
X408028600Y-246200000D03*
D16*
X412161511Y-243369746D03*
X428450200Y-244549000D03*
D15*
X435816200Y-251254600D03*
D16*
X420754000Y-252372200D03*
X420982600Y-236065400D03*
D15*
X432692000Y-233754000D03*
X423929000Y-256131400D03*
X428907400Y-249248000D03*
D16*
%TO.N,NRST*%
X409298600Y-252377134D03*
X402669200Y-252397600D03*
X399595800Y-252372200D03*
X404929800Y-252397600D03*
%TO.N,BOOT0*%
X406795125Y-239100550D03*
X405245553Y-237434130D03*
%TD*%
D17*
%TO.N,+3.3V*%
X403939200Y-241653400D02*
X400637200Y-241653400D01*
%TO.N,NRST*%
X404950266Y-252377134D02*
X404929800Y-252397600D01*
X402669200Y-252397600D02*
X399621200Y-252397600D01*
X409298600Y-252377134D02*
X404950266Y-252377134D01*
X399621200Y-252397600D02*
X399595800Y-252372200D01*
%TO.N,BOOT0*%
X405245553Y-237550978D02*
X406795125Y-239100550D01*
X405245553Y-237434130D02*
X405245553Y-237550978D01*
%TD*%
%TA.AperFunction,Conductor*%
%TO.N,GND*%
G36*
X416532104Y-218759585D02*
G01*
X416577859Y-218812389D01*
X416587803Y-218881547D01*
X416558778Y-218945103D01*
X416500000Y-218982877D01*
X416484463Y-218986373D01*
X416398553Y-218999979D01*
X416237547Y-219052294D01*
X416086712Y-219129150D01*
X415949766Y-219228646D01*
X415949761Y-219228650D01*
X415830053Y-219348358D01*
X415830049Y-219348363D01*
X415730553Y-219485309D01*
X415653697Y-219636144D01*
X415601382Y-219797150D01*
X415574901Y-219964348D01*
X415574901Y-220783647D01*
X415601382Y-220950845D01*
X415653697Y-221111851D01*
X415730553Y-221262686D01*
X415830049Y-221399632D01*
X415830053Y-221399637D01*
X415949761Y-221519345D01*
X415949766Y-221519349D01*
X416069218Y-221606135D01*
X416086716Y-221618848D01*
X416182826Y-221667818D01*
X416237547Y-221695701D01*
X416237549Y-221695701D01*
X416237552Y-221695703D01*
X416323851Y-221723743D01*
X416398553Y-221748016D01*
X416565752Y-221774498D01*
X416565757Y-221774498D01*
X416735050Y-221774498D01*
X416902248Y-221748016D01*
X417063250Y-221695703D01*
X417214086Y-221618848D01*
X417351042Y-221519344D01*
X417470747Y-221399639D01*
X417570251Y-221262683D01*
X417647106Y-221111847D01*
X417699419Y-220950845D01*
X417725901Y-220783647D01*
X417725901Y-219964348D01*
X417699419Y-219797150D01*
X417647104Y-219636144D01*
X417619221Y-219581423D01*
X417570251Y-219485313D01*
X417557538Y-219467815D01*
X417470752Y-219348363D01*
X417470748Y-219348358D01*
X417351040Y-219228650D01*
X417351035Y-219228646D01*
X417214089Y-219129150D01*
X417214088Y-219129149D01*
X417214086Y-219129148D01*
X417166983Y-219105148D01*
X417063254Y-219052294D01*
X416902248Y-218999979D01*
X416816339Y-218986373D01*
X416753204Y-218956444D01*
X416716273Y-218897132D01*
X416717271Y-218827270D01*
X416755881Y-218769037D01*
X416819845Y-218740923D01*
X416835737Y-218739900D01*
X424215068Y-218739900D01*
X424282107Y-218759585D01*
X424327862Y-218812389D01*
X424337806Y-218881547D01*
X424308781Y-218945103D01*
X424250003Y-218982877D01*
X424234466Y-218986373D01*
X424148550Y-218999980D01*
X423987544Y-219052295D01*
X423836709Y-219129151D01*
X423699763Y-219228647D01*
X423699758Y-219228651D01*
X423580050Y-219348359D01*
X423580046Y-219348364D01*
X423480550Y-219485310D01*
X423403694Y-219636145D01*
X423351379Y-219797151D01*
X423324898Y-219964349D01*
X423324898Y-220783648D01*
X423351379Y-220950846D01*
X423403694Y-221111852D01*
X423456548Y-221215581D01*
X423480547Y-221262683D01*
X423480550Y-221262687D01*
X423580046Y-221399633D01*
X423580050Y-221399638D01*
X423699758Y-221519346D01*
X423699763Y-221519350D01*
X423819215Y-221606136D01*
X423836713Y-221618849D01*
X423932823Y-221667819D01*
X423987544Y-221695702D01*
X423987546Y-221695702D01*
X423987549Y-221695704D01*
X424073848Y-221723744D01*
X424148550Y-221748017D01*
X424315749Y-221774499D01*
X424315754Y-221774499D01*
X424485047Y-221774499D01*
X424652245Y-221748017D01*
X424652248Y-221748016D01*
X424813247Y-221695704D01*
X424964083Y-221618849D01*
X425101039Y-221519345D01*
X425220744Y-221399640D01*
X425320248Y-221262684D01*
X425397103Y-221111848D01*
X425449416Y-220950846D01*
X425449416Y-220950845D01*
X425475898Y-220783648D01*
X425475898Y-219964349D01*
X425449416Y-219797151D01*
X425397101Y-219636145D01*
X425369218Y-219581424D01*
X425320248Y-219485314D01*
X425307535Y-219467816D01*
X425220749Y-219348364D01*
X425220745Y-219348359D01*
X425101037Y-219228651D01*
X425101032Y-219228647D01*
X424964086Y-219129151D01*
X424964085Y-219129150D01*
X424964083Y-219129149D01*
X424916980Y-219105149D01*
X424813251Y-219052295D01*
X424652245Y-218999980D01*
X424566330Y-218986373D01*
X424503195Y-218956444D01*
X424466264Y-218897132D01*
X424467262Y-218827269D01*
X424505872Y-218769037D01*
X424569836Y-218740923D01*
X424585728Y-218739900D01*
X660175500Y-218739900D01*
X660242539Y-218759585D01*
X660288294Y-218812389D01*
X660299500Y-218863900D01*
X660299500Y-260260493D01*
X660279815Y-260327532D01*
X660227011Y-260373287D01*
X660175458Y-260384493D01*
X180824458Y-260221978D01*
X180757425Y-260202271D01*
X180711688Y-260149451D01*
X180700500Y-260097978D01*
X180700500Y-252372200D01*
X398740615Y-252372200D01*
X398759303Y-252550005D01*
X398759304Y-252550007D01*
X398814547Y-252720029D01*
X398814550Y-252720035D01*
X398903941Y-252874865D01*
X398945612Y-252921146D01*
X399023564Y-253007721D01*
X399023567Y-253007723D01*
X399023570Y-253007726D01*
X399168207Y-253112812D01*
X399331533Y-253185529D01*
X399506409Y-253222700D01*
X399506410Y-253222700D01*
X399685189Y-253222700D01*
X399685191Y-253222700D01*
X399860067Y-253185529D01*
X400023393Y-253112812D01*
X400111522Y-253048782D01*
X400177329Y-253025302D01*
X400184408Y-253025100D01*
X402045632Y-253025100D01*
X402112671Y-253044785D01*
X402118518Y-253048782D01*
X402241607Y-253138212D01*
X402404933Y-253210929D01*
X402579809Y-253248100D01*
X402579810Y-253248100D01*
X402758589Y-253248100D01*
X402758591Y-253248100D01*
X402933467Y-253210929D01*
X403096793Y-253138212D01*
X403241430Y-253033126D01*
X403259861Y-253012657D01*
X403267348Y-253004341D01*
X403361059Y-252900265D01*
X403450450Y-252745435D01*
X403505697Y-252575403D01*
X403524385Y-252397600D01*
X404074615Y-252397600D01*
X404093303Y-252575405D01*
X404093304Y-252575407D01*
X404148547Y-252745429D01*
X404148550Y-252745435D01*
X404237941Y-252900265D01*
X404279612Y-252946546D01*
X404357564Y-253033121D01*
X404357567Y-253033123D01*
X404357570Y-253033126D01*
X404502207Y-253138212D01*
X404665533Y-253210929D01*
X404840409Y-253248100D01*
X404840410Y-253248100D01*
X405019189Y-253248100D01*
X405019191Y-253248100D01*
X405194067Y-253210929D01*
X405357393Y-253138212D01*
X405502030Y-253033126D01*
X405502033Y-253033123D01*
X405507287Y-253029306D01*
X405508827Y-253031426D01*
X405561320Y-253006250D01*
X405581273Y-253004634D01*
X408675032Y-253004634D01*
X408742071Y-253024319D01*
X408747918Y-253028316D01*
X408770586Y-253044785D01*
X408871007Y-253117746D01*
X409034333Y-253190463D01*
X409209209Y-253227634D01*
X409209210Y-253227634D01*
X409387989Y-253227634D01*
X409387991Y-253227634D01*
X409562867Y-253190463D01*
X409726193Y-253117746D01*
X409870830Y-253012660D01*
X409875276Y-253007723D01*
X409896748Y-252983875D01*
X409990459Y-252879799D01*
X410079850Y-252724969D01*
X410135097Y-252554937D01*
X410153785Y-252377134D01*
X410135097Y-252199331D01*
X410107473Y-252114315D01*
X410079852Y-252029304D01*
X410079849Y-252029298D01*
X410077001Y-252024365D01*
X409990459Y-251874469D01*
X409943603Y-251822430D01*
X409870835Y-251741612D01*
X409870832Y-251741610D01*
X409870831Y-251741609D01*
X409870830Y-251741608D01*
X409726193Y-251636522D01*
X409562867Y-251563805D01*
X409562865Y-251563804D01*
X409435194Y-251536667D01*
X409387991Y-251526634D01*
X409209209Y-251526634D01*
X409178554Y-251533149D01*
X409034333Y-251563804D01*
X409034328Y-251563806D01*
X408871008Y-251636521D01*
X408747919Y-251725952D01*
X408682112Y-251749432D01*
X408675033Y-251749634D01*
X405525199Y-251749634D01*
X405458160Y-251729949D01*
X405452313Y-251725952D01*
X405357394Y-251656989D01*
X405357393Y-251656988D01*
X405194067Y-251584271D01*
X405194065Y-251584270D01*
X405066394Y-251557133D01*
X405019191Y-251547100D01*
X404840409Y-251547100D01*
X404809754Y-251553615D01*
X404665533Y-251584270D01*
X404665528Y-251584272D01*
X404502208Y-251656987D01*
X404357568Y-251762075D01*
X404237940Y-251894936D01*
X404148550Y-252049764D01*
X404148547Y-252049770D01*
X404093304Y-252219792D01*
X404093303Y-252219794D01*
X404074615Y-252397600D01*
X403524385Y-252397600D01*
X403505697Y-252219797D01*
X403450450Y-252049765D01*
X403361059Y-251894935D01*
X403314203Y-251842896D01*
X403241435Y-251762078D01*
X403241432Y-251762076D01*
X403241431Y-251762075D01*
X403241430Y-251762074D01*
X403096793Y-251656988D01*
X402933467Y-251584271D01*
X402933465Y-251584270D01*
X402805794Y-251557133D01*
X402758591Y-251547100D01*
X402579809Y-251547100D01*
X402549154Y-251553615D01*
X402404933Y-251584270D01*
X402404928Y-251584272D01*
X402241608Y-251656987D01*
X402148065Y-251724950D01*
X402125134Y-251741612D01*
X402118519Y-251746418D01*
X402052712Y-251769898D01*
X402045633Y-251770100D01*
X400252753Y-251770100D01*
X400185714Y-251750415D01*
X400169786Y-251738255D01*
X400168032Y-251736676D01*
X400168031Y-251736675D01*
X400168030Y-251736674D01*
X400023393Y-251631588D01*
X399860067Y-251558871D01*
X399860065Y-251558870D01*
X399732394Y-251531733D01*
X399685191Y-251521700D01*
X399506409Y-251521700D01*
X399475754Y-251528215D01*
X399331533Y-251558870D01*
X399331528Y-251558872D01*
X399168208Y-251631587D01*
X399023568Y-251736675D01*
X398903940Y-251869536D01*
X398814550Y-252024364D01*
X398814547Y-252024370D01*
X398759304Y-252194392D01*
X398759303Y-252194394D01*
X398740615Y-252372200D01*
X180700500Y-252372200D01*
X180700500Y-241118656D01*
X376103391Y-241118656D01*
X376103392Y-241118679D01*
X376106144Y-241172264D01*
X376108876Y-241198349D01*
X376108877Y-241198358D01*
X376117283Y-241251315D01*
X376167057Y-241386301D01*
X376167062Y-241386313D01*
X376196839Y-241441331D01*
X376200316Y-241447756D01*
X376200320Y-241447762D01*
X376286115Y-241563264D01*
X383000691Y-248327950D01*
X383000696Y-248327955D01*
X383020862Y-248348271D01*
X383061726Y-248385181D01*
X383061730Y-248385184D01*
X383061742Y-248385195D01*
X383082683Y-248402133D01*
X383082687Y-248402136D01*
X383082694Y-248402141D01*
X383127316Y-248434379D01*
X383127319Y-248434380D01*
X383127322Y-248434382D01*
X383258195Y-248494144D01*
X383263660Y-248495748D01*
X383273572Y-248498658D01*
X383273574Y-248498659D01*
X383325207Y-248513821D01*
X383325217Y-248513824D01*
X383467633Y-248534300D01*
X383467636Y-248534300D01*
X409476654Y-248534300D01*
X409476670Y-248534300D01*
X409527819Y-248531706D01*
X409552783Y-248529167D01*
X409552794Y-248529165D01*
X409552797Y-248529165D01*
X409559210Y-248528182D01*
X409603402Y-248521411D01*
X409738779Y-248472683D01*
X409738788Y-248472678D01*
X409738791Y-248472677D01*
X409762656Y-248459999D01*
X409800483Y-248439905D01*
X409916649Y-248355010D01*
X410728112Y-247561990D01*
X410814652Y-247477417D01*
X410876356Y-247444639D01*
X410901320Y-247442100D01*
X417295120Y-247442100D01*
X417362159Y-247461785D01*
X417377293Y-247473980D01*
X417377582Y-247473647D01*
X417411702Y-247503212D01*
X417449477Y-247561990D01*
X417454500Y-247596925D01*
X417454500Y-249368996D01*
X417434815Y-249436035D01*
X417418358Y-249456500D01*
X411446090Y-255452946D01*
X411391057Y-255485018D01*
X411105458Y-255563418D01*
X411105448Y-255563420D01*
X410288638Y-255787642D01*
X410288625Y-255787647D01*
X410168363Y-255838109D01*
X410113502Y-255870007D01*
X410113501Y-255870008D01*
X410010151Y-255949562D01*
X410010150Y-255949563D01*
X409384445Y-256575269D01*
X409384429Y-256575287D01*
X409316645Y-256659400D01*
X409316625Y-256659426D01*
X409288133Y-256703760D01*
X409288128Y-256703769D01*
X409239752Y-256800412D01*
X409239748Y-256800423D01*
X409209169Y-256940995D01*
X409209168Y-256941007D01*
X409204184Y-257010699D01*
X409214448Y-257154210D01*
X409264730Y-257289019D01*
X409298215Y-257350342D01*
X409384439Y-257465523D01*
X409384443Y-257465527D01*
X409384448Y-257465533D01*
X410288077Y-258369161D01*
X411114077Y-259195161D01*
X411177577Y-259246333D01*
X411198225Y-259262973D01*
X411198227Y-259262974D01*
X411226872Y-259281383D01*
X411242571Y-259291472D01*
X411339216Y-259339849D01*
X411339220Y-259339849D01*
X411339224Y-259339851D01*
X411479796Y-259370430D01*
X411479800Y-259370430D01*
X411479808Y-259370432D01*
X411549499Y-259375416D01*
X411549500Y-259375416D01*
X411559078Y-259374730D01*
X411693010Y-259365152D01*
X411827819Y-259314870D01*
X411889142Y-259281385D01*
X412004324Y-259195161D01*
X412563392Y-258636092D01*
X412607750Y-258585384D01*
X412627764Y-258559167D01*
X412664992Y-258503000D01*
X412717801Y-258369161D01*
X412733935Y-258301180D01*
X412733935Y-258301179D01*
X412733937Y-258301145D01*
X412734346Y-258297664D01*
X412734439Y-258295607D01*
X412746898Y-258157884D01*
X412662935Y-256562594D01*
X412679069Y-256494615D01*
X412699079Y-256468402D01*
X418865323Y-250302161D01*
X418901488Y-250261899D01*
X418918122Y-250241257D01*
X418949767Y-250197373D01*
X419009538Y-250066496D01*
X419029223Y-249999457D01*
X419029224Y-249999453D01*
X419049700Y-249857037D01*
X419049700Y-247794700D01*
X419069385Y-247727661D01*
X419122189Y-247681906D01*
X419173700Y-247670700D01*
X423169990Y-247670700D01*
X423170000Y-247670700D01*
X423277456Y-247659147D01*
X423328967Y-247647941D01*
X423363197Y-247636547D01*
X423431497Y-247613816D01*
X423431501Y-247613813D01*
X423431504Y-247613813D01*
X423552543Y-247536025D01*
X423605347Y-247490270D01*
X423699567Y-247381536D01*
X423759338Y-247250659D01*
X423779023Y-247183620D01*
X423779024Y-247183616D01*
X423799500Y-247041200D01*
X423799500Y-241066200D01*
X423787947Y-240958744D01*
X423776741Y-240907233D01*
X423776637Y-240906922D01*
X423742616Y-240804702D01*
X423742613Y-240804696D01*
X423664828Y-240683662D01*
X423664825Y-240683657D01*
X423664820Y-240683651D01*
X423619076Y-240630859D01*
X423619072Y-240630856D01*
X423619070Y-240630853D01*
X423510336Y-240536633D01*
X423510333Y-240536631D01*
X423510331Y-240536630D01*
X423379465Y-240476864D01*
X423379460Y-240476862D01*
X423379459Y-240476862D01*
X423312420Y-240457177D01*
X423312422Y-240457177D01*
X423312417Y-240457176D01*
X423250347Y-240448252D01*
X423170000Y-240436700D01*
X423169998Y-240436700D01*
X422451545Y-240436700D01*
X422384506Y-240417015D01*
X422338751Y-240364211D01*
X422328807Y-240295053D01*
X422357832Y-240231497D01*
X422363864Y-240225019D01*
X426616664Y-235972219D01*
X426677987Y-235938734D01*
X426704345Y-235935900D01*
X428172434Y-235935900D01*
X428239473Y-235955585D01*
X428266147Y-235978698D01*
X428302923Y-236021140D01*
X428302926Y-236021143D01*
X428302930Y-236021147D01*
X428411664Y-236115367D01*
X428411667Y-236115368D01*
X428411668Y-236115369D01*
X428505925Y-236158416D01*
X428542541Y-236175138D01*
X428609580Y-236194823D01*
X428609584Y-236194824D01*
X428752000Y-236215300D01*
X428752003Y-236215300D01*
X431374190Y-236215300D01*
X431374200Y-236215300D01*
X431481656Y-236203747D01*
X431533167Y-236192541D01*
X431567397Y-236181147D01*
X431635697Y-236158416D01*
X431635701Y-236158413D01*
X431635704Y-236158413D01*
X431756743Y-236080625D01*
X431809547Y-236034870D01*
X431903767Y-235926136D01*
X431963538Y-235795259D01*
X431983223Y-235728220D01*
X431983224Y-235728216D01*
X432003700Y-235585800D01*
X432003700Y-233522400D01*
X431992147Y-233414944D01*
X431980941Y-233363433D01*
X431978692Y-233356676D01*
X431946816Y-233260902D01*
X431946813Y-233260896D01*
X431931434Y-233236966D01*
X431869025Y-233139857D01*
X431869020Y-233139851D01*
X431823276Y-233087059D01*
X431823272Y-233087056D01*
X431823270Y-233087053D01*
X431714536Y-232992833D01*
X431714533Y-232992831D01*
X431714531Y-232992830D01*
X431583665Y-232933064D01*
X431583660Y-232933062D01*
X431583659Y-232933062D01*
X431516620Y-232913377D01*
X431516622Y-232913377D01*
X431516617Y-232913376D01*
X431454547Y-232904452D01*
X431374200Y-232892900D01*
X428752000Y-232892900D01*
X428751991Y-232892900D01*
X428751990Y-232892901D01*
X428644549Y-232904452D01*
X428644537Y-232904454D01*
X428593027Y-232915660D01*
X428490502Y-232949783D01*
X428490496Y-232949786D01*
X428369462Y-233027571D01*
X428369451Y-233027579D01*
X428316657Y-233073325D01*
X428316654Y-233073327D01*
X428267978Y-233129503D01*
X428209200Y-233167277D01*
X428174266Y-233172300D01*
X426647360Y-233172300D01*
X426593311Y-233175197D01*
X426593310Y-233175197D01*
X426566977Y-233178029D01*
X426566950Y-233178032D01*
X426513554Y-233186685D01*
X426513552Y-233186685D01*
X426378747Y-233236966D01*
X426317422Y-233270451D01*
X426202240Y-233356676D01*
X426202228Y-233356686D01*
X419162892Y-240396023D01*
X419161723Y-240397257D01*
X419161269Y-240396826D01*
X419103842Y-240432287D01*
X419071056Y-240436700D01*
X417830000Y-240436700D01*
X417829991Y-240436700D01*
X417829990Y-240436701D01*
X417722549Y-240448252D01*
X417722537Y-240448254D01*
X417671027Y-240459460D01*
X417568502Y-240493583D01*
X417568496Y-240493586D01*
X417447462Y-240571371D01*
X417447451Y-240571379D01*
X417394659Y-240617123D01*
X417300433Y-240725864D01*
X417300430Y-240725868D01*
X417240664Y-240856734D01*
X417220976Y-240923782D01*
X417210277Y-240998201D01*
X417200502Y-241066190D01*
X417200500Y-241066201D01*
X417200500Y-245570500D01*
X417180815Y-245637539D01*
X417128011Y-245683294D01*
X417076500Y-245694500D01*
X410467560Y-245694500D01*
X410413511Y-245697397D01*
X410413510Y-245697397D01*
X410387177Y-245700229D01*
X410387150Y-245700232D01*
X410333754Y-245708885D01*
X410333752Y-245708885D01*
X410198947Y-245759166D01*
X410137622Y-245792651D01*
X410022440Y-245878876D01*
X410022428Y-245878886D01*
X409252535Y-246648781D01*
X409191212Y-246682266D01*
X409164854Y-246685100D01*
X384718147Y-246685100D01*
X384651108Y-246665415D01*
X384630466Y-246648781D01*
X379635084Y-241653400D01*
X399782015Y-241653400D01*
X399800703Y-241831205D01*
X399800704Y-241831207D01*
X399855947Y-242001229D01*
X399855950Y-242001235D01*
X399945341Y-242156065D01*
X399987012Y-242202346D01*
X400064964Y-242288921D01*
X400064967Y-242288923D01*
X400064970Y-242288926D01*
X400209607Y-242394012D01*
X400372933Y-242466729D01*
X400547809Y-242503900D01*
X400547810Y-242503900D01*
X400726589Y-242503900D01*
X400726591Y-242503900D01*
X400901467Y-242466729D01*
X401064793Y-242394012D01*
X401187882Y-242304582D01*
X401253689Y-242281102D01*
X401260768Y-242280900D01*
X403315632Y-242280900D01*
X403382671Y-242300585D01*
X403388518Y-242304582D01*
X403511607Y-242394012D01*
X403674933Y-242466729D01*
X403849809Y-242503900D01*
X403849810Y-242503900D01*
X404028589Y-242503900D01*
X404028591Y-242503900D01*
X404203467Y-242466729D01*
X404366793Y-242394012D01*
X404511430Y-242288926D01*
X404631059Y-242156065D01*
X404720450Y-242001235D01*
X404775697Y-241831203D01*
X404794385Y-241653400D01*
X404775697Y-241475597D01*
X404720450Y-241305565D01*
X404631059Y-241150735D01*
X404584203Y-241098696D01*
X404511435Y-241017878D01*
X404511432Y-241017876D01*
X404511431Y-241017875D01*
X404511430Y-241017874D01*
X404366793Y-240912788D01*
X404203467Y-240840071D01*
X404203465Y-240840070D01*
X404075794Y-240812933D01*
X404028591Y-240802900D01*
X403849809Y-240802900D01*
X403819154Y-240809415D01*
X403674933Y-240840070D01*
X403674928Y-240840072D01*
X403511608Y-240912787D01*
X403418065Y-240980750D01*
X403394048Y-240998201D01*
X403388519Y-241002218D01*
X403322712Y-241025698D01*
X403315633Y-241025900D01*
X401260768Y-241025900D01*
X401193729Y-241006215D01*
X401187882Y-241002218D01*
X401097950Y-240936878D01*
X401064793Y-240912788D01*
X400901467Y-240840071D01*
X400901465Y-240840070D01*
X400773794Y-240812933D01*
X400726591Y-240802900D01*
X400547809Y-240802900D01*
X400517154Y-240809415D01*
X400372933Y-240840070D01*
X400372928Y-240840072D01*
X400209608Y-240912787D01*
X400064968Y-241017875D01*
X399945340Y-241150736D01*
X399855950Y-241305564D01*
X399855947Y-241305570D01*
X399800704Y-241475592D01*
X399800703Y-241475594D01*
X399782015Y-241653400D01*
X379635084Y-241653400D01*
X378979885Y-240998201D01*
X378946400Y-240936878D01*
X378943566Y-240910298D01*
X378949785Y-237434130D01*
X404390368Y-237434130D01*
X404409056Y-237611935D01*
X404409057Y-237611937D01*
X404464300Y-237781959D01*
X404464303Y-237781965D01*
X404553694Y-237936795D01*
X404595365Y-237983076D01*
X404673317Y-238069651D01*
X404673320Y-238069653D01*
X404673323Y-238069656D01*
X404817960Y-238174742D01*
X404981286Y-238247459D01*
X405038481Y-238259615D01*
X405099961Y-238292806D01*
X405100380Y-238293224D01*
X405912675Y-239105519D01*
X405946160Y-239166842D01*
X405948315Y-239180237D01*
X405958628Y-239278355D01*
X405958629Y-239278357D01*
X406013872Y-239448379D01*
X406013875Y-239448385D01*
X406103266Y-239603215D01*
X406144937Y-239649496D01*
X406222889Y-239736071D01*
X406222892Y-239736073D01*
X406222895Y-239736076D01*
X406367532Y-239841162D01*
X406530858Y-239913879D01*
X406705734Y-239951050D01*
X406705735Y-239951050D01*
X406884514Y-239951050D01*
X406884516Y-239951050D01*
X407059392Y-239913879D01*
X407222718Y-239841162D01*
X407367355Y-239736076D01*
X407486984Y-239603215D01*
X407576375Y-239448385D01*
X407631622Y-239278353D01*
X407650310Y-239100550D01*
X407631622Y-238922747D01*
X407576375Y-238752715D01*
X407486984Y-238597885D01*
X407440128Y-238545846D01*
X407367360Y-238465028D01*
X407367357Y-238465026D01*
X407367356Y-238465025D01*
X407367355Y-238465024D01*
X407222718Y-238359938D01*
X407059392Y-238287221D01*
X407059390Y-238287220D01*
X406929511Y-238259614D01*
X406884516Y-238250050D01*
X406884515Y-238250050D01*
X406883406Y-238250050D01*
X406882787Y-238249868D01*
X406878048Y-238249370D01*
X406878139Y-238248503D01*
X406816367Y-238230365D01*
X406795725Y-238213731D01*
X406134512Y-237552518D01*
X406101027Y-237491195D01*
X406098873Y-237451872D01*
X406100738Y-237434130D01*
X406082050Y-237256327D01*
X406026803Y-237086295D01*
X405937412Y-236931465D01*
X405890556Y-236879426D01*
X405817788Y-236798608D01*
X405817785Y-236798606D01*
X405817784Y-236798605D01*
X405817783Y-236798604D01*
X405673146Y-236693518D01*
X405509820Y-236620801D01*
X405509818Y-236620800D01*
X405382147Y-236593663D01*
X405334944Y-236583630D01*
X405156162Y-236583630D01*
X405125507Y-236590145D01*
X404981286Y-236620800D01*
X404981281Y-236620802D01*
X404817961Y-236693517D01*
X404673321Y-236798605D01*
X404553693Y-236931466D01*
X404464303Y-237086294D01*
X404464300Y-237086300D01*
X404409057Y-237256322D01*
X404409056Y-237256324D01*
X404390368Y-237434130D01*
X378949785Y-237434130D01*
X378964884Y-228993516D01*
X378984689Y-228926514D01*
X379037574Y-228880854D01*
X379106751Y-228871034D01*
X379170254Y-228900172D01*
X379176565Y-228906059D01*
X379227201Y-228956695D01*
X379279790Y-228993518D01*
X379420767Y-229092232D01*
X379420769Y-229092233D01*
X379420772Y-229092235D01*
X379634939Y-229192103D01*
X379863194Y-229253263D01*
X380051520Y-229269739D01*
X380098601Y-229273859D01*
X380098602Y-229273859D01*
X380098603Y-229273859D01*
X380137836Y-229270426D01*
X380334010Y-229253263D01*
X380562265Y-229192103D01*
X380776432Y-229092235D01*
X380970003Y-228956695D01*
X381137097Y-228789601D01*
X381267027Y-228604040D01*
X381321601Y-228560418D01*
X381391100Y-228553224D01*
X381453455Y-228584746D01*
X381470173Y-228604040D01*
X381600104Y-228789600D01*
X381767198Y-228956694D01*
X381767204Y-228956698D01*
X381960764Y-229092231D01*
X381960766Y-229092232D01*
X381960769Y-229092234D01*
X382174936Y-229192102D01*
X382403191Y-229253262D01*
X382591517Y-229269738D01*
X382638598Y-229273858D01*
X382638599Y-229273858D01*
X382638600Y-229273858D01*
X382677833Y-229270425D01*
X382874007Y-229253262D01*
X383102262Y-229192102D01*
X383316429Y-229092234D01*
X383510000Y-228956694D01*
X383677094Y-228789600D01*
X383812634Y-228596029D01*
X383912502Y-228381862D01*
X383973662Y-228153607D01*
X383994258Y-227918199D01*
X383973662Y-227682791D01*
X383912502Y-227454536D01*
X383812634Y-227240370D01*
X383710900Y-227095077D01*
X383677093Y-227046796D01*
X383510001Y-226879705D01*
X383509995Y-226879701D01*
X383445722Y-226834696D01*
X383316433Y-226744166D01*
X383316429Y-226744164D01*
X383251017Y-226713662D01*
X383102262Y-226644296D01*
X383102258Y-226644295D01*
X383102254Y-226644293D01*
X382874012Y-226583137D01*
X382874002Y-226583135D01*
X382638600Y-226562540D01*
X382638598Y-226562540D01*
X382403195Y-226583135D01*
X382403185Y-226583137D01*
X382174943Y-226644293D01*
X382174934Y-226644297D01*
X381960770Y-226744163D01*
X381960768Y-226744164D01*
X381767196Y-226879704D01*
X381600107Y-227046793D01*
X381470175Y-227232356D01*
X381415598Y-227275980D01*
X381346099Y-227283173D01*
X381283745Y-227251651D01*
X381267025Y-227232355D01*
X381137096Y-227046797D01*
X380970004Y-226879706D01*
X380970001Y-226879704D01*
X380905724Y-226834696D01*
X380776436Y-226744167D01*
X380776432Y-226744165D01*
X380711018Y-226713662D01*
X380562265Y-226644297D01*
X380562261Y-226644296D01*
X380562257Y-226644294D01*
X380334015Y-226583138D01*
X380334005Y-226583136D01*
X380098603Y-226562541D01*
X380098601Y-226562541D01*
X379863198Y-226583136D01*
X379863188Y-226583138D01*
X379634946Y-226644294D01*
X379634937Y-226644298D01*
X379420773Y-226744164D01*
X379420771Y-226744165D01*
X379227199Y-226879705D01*
X379143406Y-226963499D01*
X379082083Y-226996984D01*
X379012391Y-226992000D01*
X378956458Y-226950128D01*
X378938054Y-226914927D01*
X378911391Y-226834696D01*
X378833603Y-226713657D01*
X378833598Y-226713651D01*
X378787854Y-226660859D01*
X378787850Y-226660856D01*
X378787848Y-226660853D01*
X378679114Y-226566633D01*
X378679111Y-226566631D01*
X378679109Y-226566630D01*
X378548243Y-226506864D01*
X378548238Y-226506862D01*
X378548237Y-226506862D01*
X378503544Y-226493738D01*
X378481195Y-226487176D01*
X378418464Y-226478157D01*
X378338778Y-226466700D01*
X376757979Y-226466700D01*
X376650968Y-226478156D01*
X376599658Y-226489270D01*
X376546561Y-226506864D01*
X376497498Y-226523121D01*
X376376320Y-226600692D01*
X376376318Y-226600693D01*
X376376316Y-226600695D01*
X376323437Y-226646350D01*
X376229023Y-226754913D01*
X376169015Y-226885690D01*
X376149210Y-226952694D01*
X376128480Y-227095070D01*
X376128480Y-227095077D01*
X376103391Y-241118656D01*
X180700500Y-241118656D01*
X180700500Y-223802550D01*
X415574902Y-223802550D01*
X415574902Y-224545448D01*
X415581897Y-224589613D01*
X415605077Y-224735968D01*
X415605078Y-224735971D01*
X415664687Y-224919428D01*
X415752261Y-225091301D01*
X415865643Y-225247358D01*
X416002043Y-225383758D01*
X416158100Y-225497140D01*
X416329973Y-225584714D01*
X416513430Y-225644323D01*
X416703953Y-225674499D01*
X416703954Y-225674499D01*
X416896850Y-225674499D01*
X416896851Y-225674499D01*
X417087374Y-225644323D01*
X417270831Y-225584714D01*
X417442704Y-225497140D01*
X417598761Y-225383758D01*
X417735161Y-225247358D01*
X417848543Y-225091301D01*
X417936117Y-224919428D01*
X417995726Y-224735971D01*
X418025902Y-224545448D01*
X418025902Y-224144925D01*
X418045587Y-224077886D01*
X418098391Y-224032131D01*
X418124116Y-224023636D01*
X418305203Y-223985146D01*
X418478130Y-223908153D01*
X418631271Y-223796890D01*
X418757933Y-223656218D01*
X418852579Y-223492286D01*
X418911074Y-223312258D01*
X418930860Y-223124002D01*
X422119940Y-223124002D01*
X422139726Y-223312258D01*
X422139727Y-223312261D01*
X422198218Y-223492279D01*
X422198221Y-223492286D01*
X422292867Y-223656218D01*
X422419529Y-223796890D01*
X422572665Y-223908150D01*
X422572670Y-223908153D01*
X422745592Y-223985144D01*
X422745593Y-223985144D01*
X422745597Y-223985146D01*
X422926681Y-224023636D01*
X422988163Y-224056828D01*
X423021940Y-224117991D01*
X423024901Y-224144926D01*
X423024901Y-224545450D01*
X423055076Y-224735971D01*
X423055077Y-224735974D01*
X423114686Y-224919431D01*
X423202260Y-225091304D01*
X423315642Y-225247361D01*
X423452042Y-225383761D01*
X423608099Y-225497143D01*
X423779972Y-225584717D01*
X423963429Y-225644326D01*
X424153952Y-225674502D01*
X424153953Y-225674502D01*
X424346849Y-225674502D01*
X424346850Y-225674502D01*
X424537373Y-225644326D01*
X424720830Y-225584717D01*
X424892703Y-225497143D01*
X425048760Y-225383761D01*
X425185160Y-225247361D01*
X425298542Y-225091304D01*
X425386116Y-224919431D01*
X425445725Y-224735974D01*
X425475901Y-224545451D01*
X425475901Y-223802553D01*
X425445725Y-223612030D01*
X425386116Y-223428573D01*
X425298542Y-223256700D01*
X425185160Y-223100643D01*
X425048760Y-222964243D01*
X424892703Y-222850861D01*
X424720830Y-222763287D01*
X424537373Y-222703678D01*
X424537371Y-222703677D01*
X424537370Y-222703677D01*
X424369617Y-222677108D01*
X424346850Y-222673502D01*
X424153952Y-222673502D01*
X424131185Y-222677108D01*
X423963425Y-222703678D01*
X423963424Y-222703678D01*
X423940283Y-222711197D01*
X423870442Y-222713190D01*
X423810610Y-222677108D01*
X423794584Y-222655269D01*
X423757933Y-222591786D01*
X423631271Y-222451114D01*
X423631270Y-222451113D01*
X423478134Y-222339853D01*
X423478129Y-222339850D01*
X423305207Y-222262859D01*
X423305202Y-222262857D01*
X423159401Y-222231867D01*
X423120046Y-222223502D01*
X422930754Y-222223502D01*
X422898297Y-222230400D01*
X422745597Y-222262857D01*
X422745592Y-222262859D01*
X422572670Y-222339850D01*
X422572665Y-222339853D01*
X422419529Y-222451113D01*
X422292866Y-222591787D01*
X422198221Y-222755717D01*
X422198218Y-222755724D01*
X422139727Y-222935742D01*
X422139726Y-222935746D01*
X422119940Y-223124002D01*
X418930860Y-223124002D01*
X418911074Y-222935746D01*
X418852579Y-222755718D01*
X418757933Y-222591786D01*
X418631271Y-222451114D01*
X418631270Y-222451113D01*
X418478134Y-222339853D01*
X418478129Y-222339850D01*
X418305207Y-222262859D01*
X418305202Y-222262857D01*
X418159401Y-222231867D01*
X418120046Y-222223502D01*
X417930754Y-222223502D01*
X417898297Y-222230400D01*
X417745597Y-222262857D01*
X417745592Y-222262859D01*
X417572670Y-222339850D01*
X417572665Y-222339853D01*
X417419529Y-222451113D01*
X417292867Y-222591785D01*
X417256218Y-222655263D01*
X417205650Y-222703478D01*
X417137043Y-222716700D01*
X417110515Y-222711194D01*
X417110469Y-222711179D01*
X417087374Y-222703675D01*
X417087370Y-222703674D01*
X417087369Y-222703674D01*
X416919637Y-222677108D01*
X416896851Y-222673499D01*
X416703953Y-222673499D01*
X416681167Y-222677108D01*
X416513432Y-222703674D01*
X416329970Y-222763285D01*
X416158099Y-222850858D01*
X416069063Y-222915546D01*
X416002043Y-222964240D01*
X416002041Y-222964242D01*
X416002040Y-222964242D01*
X415865645Y-223100637D01*
X415865645Y-223100638D01*
X415865643Y-223100640D01*
X415865641Y-223100643D01*
X415752261Y-223256696D01*
X415664688Y-223428567D01*
X415605077Y-223612029D01*
X415575798Y-223796890D01*
X415574902Y-223802550D01*
X180700500Y-223802550D01*
X180700500Y-218863900D01*
X180720185Y-218796861D01*
X180772989Y-218751106D01*
X180824500Y-218739900D01*
X416465065Y-218739900D01*
X416532104Y-218759585D01*
G37*
%TD.AperFunction*%
%TD*%
%TA.AperFunction,Conductor*%
%TO.N,+3.3V*%
G36*
X428628000Y-235430400D02*
G01*
X426443600Y-235430400D01*
X426443599Y-235430400D01*
X421516000Y-240357999D01*
X421516000Y-240358000D01*
X421516000Y-241526400D01*
X419484000Y-241526400D01*
X419484000Y-240841162D01*
X419503685Y-240774123D01*
X419520319Y-240753481D01*
X426559681Y-233714119D01*
X426621004Y-233680634D01*
X426647362Y-233677800D01*
X428628000Y-233677800D01*
X428628000Y-235430400D01*
G37*
%TD.AperFunction*%
%TD*%
%TA.AperFunction,Conductor*%
%TO.N,+3.3V*%
G36*
X418544200Y-247165200D02*
G01*
X418544200Y-249857037D01*
X418524515Y-249924076D01*
X418507881Y-249944718D01*
X412143400Y-256309198D01*
X412242097Y-258184452D01*
X412225963Y-258252433D01*
X412205949Y-258278650D01*
X411646881Y-258837719D01*
X411585558Y-258871204D01*
X411515867Y-258866220D01*
X411471519Y-258837719D01*
X409741881Y-257108081D01*
X409708396Y-257046758D01*
X409713380Y-256977066D01*
X409741881Y-256932719D01*
X410367594Y-256307005D01*
X410422446Y-256275112D01*
X411231247Y-256053088D01*
X411686197Y-255928201D01*
X411686197Y-255928200D01*
X411686200Y-255928200D01*
X417960000Y-249629000D01*
X417960000Y-247165200D01*
X417960000Y-246504800D01*
X418544200Y-246504800D01*
X418544200Y-247165200D01*
G37*
%TD.AperFunction*%
%TD*%
%TA.AperFunction,Conductor*%
%TO.N,+3.3V*%
G36*
X423237039Y-240961885D02*
G01*
X423282794Y-241014689D01*
X423294000Y-241066200D01*
X423294000Y-247041200D01*
X423274315Y-247108239D01*
X423221511Y-247153994D01*
X423170000Y-247165200D01*
X417830000Y-247165200D01*
X417762961Y-247145515D01*
X417717206Y-247092711D01*
X417706000Y-247041200D01*
X417706000Y-246936600D01*
X417706000Y-241066200D01*
X417725685Y-240999161D01*
X417778489Y-240953406D01*
X417830000Y-240942200D01*
X419484000Y-240942200D01*
X421516000Y-240942200D01*
X423170000Y-240942200D01*
X423237039Y-240961885D01*
G37*
%TD.AperFunction*%
%TD*%
%TA.AperFunction,Conductor*%
%TO.N,+3.3V*%
G36*
X378405817Y-226991885D02*
G01*
X378451572Y-227044689D01*
X378462778Y-227096422D01*
X378437600Y-241170799D01*
X378437601Y-241170802D01*
X384457399Y-247190599D01*
X384457400Y-247190600D01*
X383416000Y-247190600D01*
X383416000Y-248013638D01*
X383400594Y-248009115D01*
X383379626Y-247992155D01*
X383359460Y-247971839D01*
X376644884Y-241207153D01*
X376611628Y-241145705D01*
X376608891Y-241119581D01*
X376633979Y-227095978D01*
X376653784Y-227028974D01*
X376706669Y-226983314D01*
X376757979Y-226972200D01*
X378338778Y-226972200D01*
X378405817Y-226991885D01*
G37*
%TD.AperFunction*%
%TD*%
%TA.AperFunction,Conductor*%
%TO.N,+3.3V*%
G36*
X417960000Y-246936600D02*
G01*
X410644800Y-246936600D01*
X409563338Y-247993483D01*
X409501634Y-248026261D01*
X409476670Y-248028800D01*
X384457400Y-248028800D01*
X383467633Y-248028800D01*
X383416000Y-248013638D01*
X383416000Y-247190600D01*
X409425600Y-247190600D01*
X410379881Y-246236319D01*
X410441204Y-246202834D01*
X410467562Y-246200000D01*
X417706000Y-246200000D01*
X417960000Y-246200000D01*
X417960000Y-246936600D01*
G37*
%TD.AperFunction*%
%TD*%
%TA.AperFunction,Conductor*%
%TO.N,+3.3V*%
G36*
X431441239Y-233418085D02*
G01*
X431486994Y-233470889D01*
X431498200Y-233522400D01*
X431498200Y-235585800D01*
X431478515Y-235652839D01*
X431425711Y-235698594D01*
X431374200Y-235709800D01*
X428752000Y-235709800D01*
X428684961Y-235690115D01*
X428639206Y-235637311D01*
X428628000Y-235585800D01*
X428628000Y-235430400D01*
X428628000Y-233522400D01*
X428647685Y-233455361D01*
X428700489Y-233409606D01*
X428752000Y-233398400D01*
X431374200Y-233398400D01*
X431441239Y-233418085D01*
G37*
%TD.AperFunction*%
%TD*%
M02*
